<?xml version="1.0" encoding="UTF-8" standalone="no"?>
<svg
   viewBox="0 0 550 300"
   version="1.1"
   id="svg366"
   sodipodi:docname="404 Error.svg"
   width="550"
   height="300"
   inkscape:version="1.1.1 (3bf5ae0d25, 2021-09-20)"
   xmlns:inkscape="http://www.inkscape.org/namespaces/inkscape"
   xmlns:sodipodi="http://sodipodi.sourceforge.net/DTD/sodipodi-0.dtd"
   xmlns="http://www.w3.org/2000/svg"
   xmlns:svg="http://www.w3.org/2000/svg">
  <defs
     id="defs370" />
  <sodipodi:namedview
     id="namedview368"
     pagecolor="#505050"
     bordercolor="#eeeeee"
     borderopacity="1"
     inkscape:pageshadow="0"
     inkscape:pageopacity="0"
     inkscape:pagecheckerboard="0"
     showgrid="false"
     inkscape:zoom="1.564"
     inkscape:cx="437.97954"
     inkscape:cy="109.33504"
     inkscape:window-width="1920"
     inkscape:window-height="986"
     inkscape:window-x="-11"
     inkscape:window-y="-11"
     inkscape:window-maximized="1"
     inkscape:current-layer="svg366" />
  <g
     id="freepik--background-complete--inject-40"
     transform="matrix(0.81123589,0,0,0.73982896,-26.867182,-39.11348)">
    <path
       d="m 467,443.86 a 16.66,16.66 0 0 1 24.72,12.82 c -10.1,0 -20,-2.35 -24.72,-12.82"
       style="fill:#ebebeb"
       id="path2" />
    <path
       d="m 478.76,433.51 a 21.55,21.55 0 0 0 28.18,-22.46 c -12.83,2.52 -24.87,8 -28.18,22.46"
       style="fill:#ebebeb"
       id="path4" />
    <path
       d="m 434.79,450.6 a 3.91,3.91 0 0 1 0.63,-0.25 l 1.85,-0.62 c 1.6,-0.52 3.92,-1.28 6.77,-2.27 5.71,-2 13.54,-4.84 22,-8.51 4.21,-1.85 8.17,-3.73 11.73,-5.53 3.56,-1.8 6.67,-3.58 9.25,-5.15 a 62.35,62.35 0 0 0 5.87,-4 c 1.32,-1 2,-1.71 2,-1.67 a 3,3 0 0 1 -0.45,0.5 17.63,17.63 0 0 1 -1.43,1.33 53.27,53.27 0 0 1 -5.81,4.19 c -2.55,1.62 -5.68,3.4 -9.22,5.26 -3.54,1.86 -7.52,3.73 -11.75,5.59 -8.45,3.68 -16.32,6.5 -22.06,8.38 -2.87,0.95 -5.21,1.65 -6.83,2.11 l -1.87,0.53 a 2.71,2.71 0 0 1 -0.68,0.11 z"
       style="fill:#e0e0e0"
       id="path6" />
    <path
       d="m 480,449.74 c 0,0.08 -1.22,-0.74 -3.23,-1.83 a 40.35,40.35 0 0 0 -8.27,-3.32 39.52,39.52 0 0 0 -8.82,-1.35 c -2.28,-0.09 -3.71,0 -3.71,-0.08 a 4,4 0 0 1 1,-0.16 23.46,23.46 0 0 1 2.73,-0.13 34.47,34.47 0 0 1 17.26,4.72 23,23 0 0 1 2.28,1.51 3.41,3.41 0 0 1 0.76,0.64 z"
       style="fill:#e0e0e0"
       id="path8" />
    <path
       d="m 241.73,404.78 a 21,21 0 0 0 20.7,28.35 c -1.92,-12.58 -6.76,-24.54 -20.7,-28.35"
       style="fill:#ebebeb"
       id="path10" />
    <path
       d="m 239.76,398.6 c 0.08,0 0.42,1.38 1.15,3.57 a 53.5,53.5 0 0 0 3.55,8.28 54.61,54.61 0 0 0 4.93,7.54 c 1.43,1.82 2.4,2.88 2.34,2.94 a 3.93,3.93 0 0 1 -0.76,-0.67 c -0.47,-0.46 -1.11,-1.15 -1.86,-2 a 43.59,43.59 0 0 1 -8.55,-15.94 c -0.32,-1.12 -0.55,-2 -0.66,-2.68 a 3.25,3.25 0 0 1 -0.14,-1.04 z"
       style="fill:#e0e0e0"
       id="path12" />
    <path
       d="M 41.89,152.44 A 32.53,32.53 0 0 0 74,196.37 c -3,-19.5 -10.47,-38 -32.07,-43.93"
       style="fill:#ebebeb"
       id="path14" />
    <path
       d="m 38.83,142.88 a 8.3,8.3 0 0 1 0.47,1.49 c 0.26,1 0.67,2.36 1.22,4.07 A 80.62,80.62 0 0 0 46,161.3 79.8,79.8 0 0 0 53.68,173 c 1.12,1.4 2,2.52 2.71,3.27 a 10.87,10.87 0 0 1 1,1.21 8.47,8.47 0 0 1 -1.14,-1.07 c -0.71,-0.72 -1.69,-1.8 -2.84,-3.18 A 69.45,69.45 0 0 1 40.18,148.56 c -0.51,-1.72 -0.87,-3.14 -1.07,-4.12 a 11.2,11.2 0 0 1 -0.28,-1.56 z"
       style="fill:#e0e0e0"
       id="path16" />
    <path
       d="m 75.68,351.48 a 21,21 0 0 0 3.39,34.95 c 4.75,-11.81 6.67,-24.56 -3.39,-34.95"
       style="fill:#ebebeb"
       id="path18" />
    <path
       d="m 77.12,345.16 c 0.08,0 -0.33,1.41 -0.82,3.66 a 51.69,51.69 0 0 0 -0.75,17.94 c 0.3,2.29 0.6,3.7 0.51,3.72 a 4.34,4.34 0 0 1 -0.31,-1 c -0.17,-0.63 -0.37,-1.55 -0.57,-2.69 a 44,44 0 0 1 0.76,-18.08 c 0.29,-1.13 0.57,-2 0.79,-2.64 a 4.32,4.32 0 0 1 0.39,-0.91 z"
       style="fill:#e0e0e0"
       id="path20" />
    <path
       d="m 261.26,98.62 a 21,21 0 0 0 30.33,-17.68 c -12.72,0.61 -25.1,4.2 -30.33,17.68"
       style="fill:#ebebeb"
       id="path22" />
    <path
       d="m 254.91,100 c 0,-0.08 1.42,-0.28 3.67,-0.78 a 51.86,51.86 0 0 0 16.61,-6.81 c 2,-1.24 3.11,-2.09 3.16,-2 a 3.47,3.47 0 0 1 -0.74,0.69 c -0.5,0.42 -1.26,1 -2.22,1.64 a 43.77,43.77 0 0 1 -16.73,6.87 c -1.15,0.21 -2.08,0.33 -2.73,0.39 a 3.81,3.81 0 0 1 -1.02,0 z"
       style="fill:#e0e0e0"
       id="path24" />
    <path
       d="m 235.34,96.81 a 27.69,27.69 0 0 0 16.72,-43.17 c -12.6,11.09 -22.42,25 -16.72,43.17"
       style="fill:#ebebeb"
       id="path26" />
    <path
       d="m 229.89,103.39 a 6.94,6.94 0 0 1 0.84,-1 c 0.57,-0.63 1.38,-1.57 2.34,-2.75 a 67,67 0 0 0 11.53,-20.7 c 0.5,-1.44 0.87,-2.62 1.11,-3.44 a 6.57,6.57 0 0 1 0.43,-1.26 5.94,5.94 0 0 1 -0.24,1.31 c -0.17,0.84 -0.5,2 -1,3.5 a 58.67,58.67 0 0 1 -11.59,20.82 c -1,1.16 -1.86,2.07 -2.48,2.66 a 6.13,6.13 0 0 1 -0.94,0.86 z"
       style="fill:#e0e0e0"
       id="path28" />
    <path
       d="m 317.37,439.37 a 12.65,12.65 0 0 0 21,2.37 c -6.36,-4.28 -13.64,-7 -21,-2.37"
       style="fill:#ebebeb"
       id="path30" />
    <path
       d="m 313.83,437.73 a 58.44,58.44 0 0 0 7.2,2.64 56.24,56.24 0 0 0 7.58,1.14 7.37,7.37 0 0 1 -2.27,0.14 25.39,25.39 0 0 1 -10.58,-2.71 7.62,7.62 0 0 1 -1.93,-1.21 z"
       style="fill:#e0e0e0"
       id="path32" />
    <path
       d="m 410.07,80.33 a 12.64,12.64 0 0 0 21.07,-1.74 c -7.07,-3 -14.73,-4.23 -21.07,1.74"
       style="fill:#ebebeb"
       id="path34" />
    <path
       d="m 406.28,79.41 a 38.34,38.34 0 0 0 15.23,0.85 7.84,7.84 0 0 1 -2.2,0.57 25.34,25.34 0 0 1 -10.91,-0.61 7.53,7.53 0 0 1 -2.12,-0.81 z"
       style="fill:#e0e0e0"
       id="path36" />
    <path
       d="m 650.31,111.09 a 21,21 0 0 0 26.37,-23.15 c -12.36,3 -23.82,8.93 -26.37,23.15"
       style="fill:#ebebeb"
       id="path38" />
    <path
       d="m 644.33,113.61 c 0,-0.08 1.33,-0.55 3.45,-1.47 a 51.84,51.84 0 0 0 15,-9.86 c 1.69,-1.59 2.65,-2.65 2.72,-2.59 a 3.85,3.85 0 0 1 -0.6,0.81 c -0.41,0.51 -1,1.21 -1.86,2 a 43.83,43.83 0 0 1 -15.11,9.94 c -1.08,0.42 -2,0.73 -2.6,0.9 a 4.14,4.14 0 0 1 -1,0.27 z"
       style="fill:#e0e0e0"
       id="path40" />
    <path
       d="m 674,415.88 a 36.55,36.55 0 0 0 21.18,-57.29 C 678.75,373.48 666.09,392 674,415.88"
       style="fill:#ebebeb"
       id="path42" />
    <path
       d="m 666.91,424.68 a 12.27,12.27 0 0 1 1.12,-1.36 c 0.75,-0.84 1.8,-2.09 3.05,-3.66 1.25,-1.57 2.69,-3.5 4.18,-5.7 1.49,-2.2 3,-4.71 4.47,-7.41 1.47,-2.7 2.67,-5.36 3.7,-7.82 1.03,-2.46 1.84,-4.71 2.45,-6.63 0.61,-1.92 1.07,-3.48 1.36,-4.57 a 10.33,10.33 0 0 1 0.52,-1.68 12.13,12.13 0 0 1 -0.32,1.73 c -0.23,1.11 -0.64,2.69 -1.21,4.63 -0.57,1.94 -1.36,4.22 -2.35,6.71 -0.99,2.49 -2.24,5.15 -3.69,7.88 a 86.65,86.65 0 0 1 -4.53,7.43 c -1.53,2.2 -3,4.11 -4.29,5.66 -1.29,1.55 -2.4,2.77 -3.19,3.57 a 11.09,11.09 0 0 1 -1.27,1.22 z"
       style="fill:#e0e0e0"
       id="path44" />
  </g>
  <g
     id="freepik--Shape--inject-40"
     transform="matrix(0.81123589,0,0,0.73982896,-26.867182,-39.11348)">
    <path
       d="m 538.22,289.8 c -6.31,-35.25 -36.58,-66 -72.27,-68.94 -19.45,-1.58 -39,4.55 -58.37,2.21 a 68,68 0 0 1 -42.49,-22.4 c -16,-18.2 -21.41,-44.09 -38.35,-61.41 -23.34,-23.89 -64.07,-24.26 -92.47,-6.69 -28.4,17.57 -45.57,49.28 -53.43,81.73 l -0.31,9.87 c -1.71,33.66 7.15,72.83 26.68,102.83 19.79,30.4 32.8,43 68.86,64.81 30.62,18.56 90.58,26.72 126.38,27.58 35.8,0.86 72.57,-9.8 99.5,-33.42 26.93,-23.62 42.59,-60.92 36.27,-96.17 z"
       style="fill:#3d3ab2"
       id="path47" />
    <g
       style="opacity:0.8"
       id="g51">
      <path
         d="m 538.22,289.8 c -6.31,-35.25 -36.58,-66 -72.27,-68.94 -19.45,-1.58 -39,4.55 -58.37,2.21 a 68,68 0 0 1 -42.49,-22.4 c -16,-18.2 -21.41,-44.09 -38.35,-61.41 -23.34,-23.89 -64.07,-24.26 -92.47,-6.69 -28.4,17.57 -45.57,49.28 -53.43,81.73 l -0.31,9.87 c -1.71,33.66 7.15,72.83 26.68,102.83 19.79,30.4 32.8,43 68.86,64.81 30.62,18.56 90.58,26.72 126.38,27.58 35.8,0.86 72.57,-9.8 99.5,-33.42 26.93,-23.62 42.59,-60.92 36.27,-96.17 z"
         style="fill:#ffffff"
         id="path49" />
    </g>
    <circle
       cx="556.21997"
       cy="413.16"
       r="17.25"
       transform="rotate(-81.74,556.24149,413.1548)"
       style="fill:#3d3ab2"
       id="circle53" />
    <circle
       cx="556.21997"
       cy="413.16"
       r="17.25"
       transform="rotate(-81.74,556.24149,413.1548)"
       style="opacity:0.8;fill:#ffffff"
       id="circle55" />
  </g>
  <path
     d="m 326.15023,168.37155 q 0.3975,38.21957 -18.26903,58.44649 -18.66654,20.22692 -51.10787,20.49326 -32.61168,0.28854 -51.84608,-19.59067 -19.2344,-19.8792 -19.64813,-58.09137 l -0.47052,-44.80404 q -0.40562,-38.071599 18.26903,-58.446489 18.67465,-20.374889 51.27822,-20.626431 32.44944,-0.288533 51.70006,19.731238 19.25063,20.019772 19.64003,58.083972 z M 289.78252,118.8622 q -0.2677,-24.066638 -9.1913,-35.541385 -8.92359,-11.474748 -25.95955,-11.33418 -16.97917,0.147966 -25.62694,11.785475 -8.64777,11.63751 -8.44497,35.69675 l 0.56787,54.44401 q 0.25148,24.19241 9.30488,35.74114 9.05339,11.54873 26.01633,11.40076 16.96294,-0.14796 25.54582,-11.78547 8.58287,-11.63751 8.33139,-35.96309 z"
     style="fill:#3d3ab2;stroke-width:0.77471"
     id="path58" />
  <g
     style="opacity:0.4"
     id="g62"
     transform="matrix(0.81123589,0,0,0.73982896,-26.867182,-39.11348)">
    <path
       d="m 435.16,280.45 q 0.49,51.66 -22.52,79 -23.01,27.34 -63,27.7 -40.2,0.39 -63.91,-26.48 -23.71,-26.87 -24.22,-78.52 l -0.58,-60.56 q -0.5,-51.46 22.52,-79 23.02,-27.54 63.21,-27.88 40,-0.39 63.73,26.67 23.73,27.06 24.21,78.51 z M 390.33,213.53 Q 390,181 379,165.49 q -11,-15.51 -32,-15.32 -20.93,0.2 -31.59,15.93 -10.66,15.73 -10.41,48.25 l 0.7,73.59 q 0.31,32.7 11.47,48.31 11.16,15.61 32.07,15.41 20.91,-0.2 31.49,-15.93 Q 391.31,320 391,287.12 Z"
       id="path60" />
  </g>
  <path
     d="m 346.80429,168.19399 q 0.40562,38.21217 -18.26903,58.44649 -18.67465,20.23432 -51.10786,20.49326 -32.61168,0.28854 -51.84609,-19.59807 -19.2344,-19.8866 -19.62379,-58.10616 L 205.487,124.62547 q -0.40562,-38.071603 18.26903,-58.446492 18.67465,-20.37489 51.27822,-20.63383 32.44944,-0.273737 51.70007,19.731238 19.25063,20.004975 19.56701,58.113564 z m -36.3677,-49.50935 q -0.2596,-24.059239 -9.23187,-35.511791 -8.97226,-11.452553 -25.95954,-11.33418 -16.97917,0.155364 -25.62695,11.785475 -8.64777,11.630112 -8.4044,35.704146 l 0.57598,54.43661 q 0.25959,24.19981 9.30487,35.74854 9.04528,11.54873 26.01634,11.40076 16.96294,-0.15536 25.54582,-11.78547 8.58287,-11.63011 8.32328,-35.97048 z"
     style="fill:#3d3ab2;stroke-width:0.77471"
     id="path64" />
  <path
     d="m 205.59246,127.28885 c 0.0406,0.0962 -4.75384,1.83478 -10.70831,3.8767 -5.95447,2.04193 -10.83,3.58078 -10.83,3.51419 0,-0.0666 4.75384,-1.83477 10.70831,-3.8767 5.95447,-2.04193 10.78944,-3.61777 10.83,-3.51419 z"
     style="fill:#3d3ab2;stroke-width:0.77471"
     id="path66" />
  <path
     d="m 206.76875,144.99296 c 0.0406,0.0962 -4.75384,1.83477 -10.71642,3.8767 -5.96259,2.04193 -10.81378,3.61037 -10.85434,3.51419 -0.0406,-0.0962 4.75384,-1.83478 10.70832,-3.87671 5.95447,-2.04192 10.86244,-3.61776 10.86244,-3.51418 z"
     style="fill:#3d3ab2;stroke-width:0.77471"
     id="path68" />
  <path
     d="m 207.9775,162.69706 c 0.0406,0.0962 -4.75385,1.83478 -10.71643,3.87671 -5.96258,2.04193 -10.77321,3.61036 -10.85434,3.51419 -0.0811,-0.0962 4.75385,-1.83478 10.70832,-3.87671 5.95447,-2.04193 10.82188,-3.61776 10.86245,-3.51419 z"
     style="fill:#3d3ab2;stroke-width:0.77471"
     id="path70" />
  <path
     d="m 209.20246,180.40117 c 0.0406,0.0962 -4.75384,1.83478 -10.71642,3.8767 -5.96259,2.04193 -10.82189,3.61037 -10.86245,3.51419 -0.0406,-0.0962 4.76195,-1.83477 10.71642,-3.8767 5.95447,-2.04193 10.78944,-3.61777 10.86245,-3.51419 z"
     style="fill:#3d3ab2;stroke-width:0.77471"
     id="path72" />
  <path
     d="m 210.36253,198.10528 a 3.593775,3.2774423 0 0 1 -0.74634,0.33292 c -0.48674,0.19236 -1.20063,0.45869 -2.07676,0.77682 -1.7685,0.64365 -4.21032,1.47966 -6.91984,2.43404 -2.70953,0.95438 -5.17569,1.74599 -6.96852,2.32306 -0.89236,0.28853 -1.62247,0.51788 -2.12544,0.66585 a 2.9285616,2.6707825 0 0 1 -0.81123,0.19235 3.3260671,3.0332987 0 0 1 0.74633,-0.33292 c 0.48674,-0.19236 1.19252,-0.45869 2.07677,-0.73983 1.76038,-0.64365 4.21031,-1.47966 6.91984,-2.43404 2.70953,-0.95438 5.17568,-1.75339 6.96852,-2.32306 0.89235,-0.28853 1.62247,-0.51788 2.12543,-0.66585 a 2.7906515,2.5450116 0 0 1 0.81124,-0.22934 z"
     style="fill:#3d3ab2;stroke-width:0.77471"
     id="path74" />
  <path
     d="m 215.90327,214.30013 a 17.384785,15.854535 0 0 1 -2.43371,0.98398 c -1.54135,0.56227 -3.6749,1.31689 -6.03559,2.1307 -2.3607,0.81382 -4.51859,1.52405 -6.07616,2.01974 a 16.938605,15.447629 0 0 1 -2.5635,0.73983 16.695235,15.22568 0 0 1 2.4337,-0.98398 c 1.53324,-0.56967 3.66679,-1.32429 6.0356,-2.1307 2.36881,-0.80642 4.51047,-1.52405 6.07616,-2.01974 a 15.924561,14.522842 0 0 1 2.5635,-0.73983 z"
     style="fill:#3d3ab2;stroke-width:0.77471"
     id="path76" />
  <path
     d="m 227.77165,229.1559 a 14.107392,12.865626 0 0 1 -2.18222,0.89519 c -1.37099,0.50309 -3.24495,1.17633 -5.37038,1.90136 -2.12544,0.72504 -4.05618,1.35389 -5.41906,1.79039 a 14.050606,12.813838 0 0 1 -2.28769,0.64365 13.215033,12.051814 0 0 1 2.18223,-0.89519 c 1.36288,-0.50309 3.24494,-1.17633 5.37038,-1.90136 2.12544,-0.72504 4.05618,-1.35389 5.41906,-1.79779 a 13.425954,12.244169 0 0 1 2.28768,-0.63625 z"
     style="fill:#3d3ab2;stroke-width:0.77471"
     id="path78" />
  <path
     d="m 247.4928,238.89945 a 14.675257,13.383506 0 0 1 -2.18223,0.88779 c -1.37099,0.51048 -3.24494,1.18373 -5.37038,1.90136 -2.12544,0.71764 -4.05618,1.35389 -5.41906,1.79779 a 13.425954,12.244169 0 0 1 -2.28768,0.63625 14.107392,12.865626 0 0 1 2.18222,-0.89519 c 1.37099,-0.50309 3.24495,-1.17633 5.37039,-1.90136 2.12543,-0.72504 4.05617,-1.35389 5.41905,-1.79039 a 12.549819,11.445154 0 0 1 2.28769,-0.63625 z"
     style="fill:#3d3ab2;stroke-width:0.77471"
     id="path80" />
  <path
     d="m 306.97261,201.11638 c 0.0487,0.0962 -6.1086,2.71517 -13.75045,5.85205 -7.64184,3.13687 -13.88024,5.59311 -13.92892,5.49693 -0.0487,-0.0962 6.10861,-2.71517 13.79101,-5.85205 7.68241,-3.13687 13.83969,-5.59311 13.88836,-5.49693 z"
     style="fill:#3d3ab2;stroke-width:0.77471"
     id="path82" />
  <path
     d="m 311.01257,185.94989 c 0.0487,0.0962 -5.03778,2.27127 -11.35731,4.86067 -6.31952,2.58941 -11.47898,4.61654 -11.52766,4.52036 -0.0487,-0.0962 5.02966,-2.27867 11.3573,-4.86808 6.32764,-2.5894 11.47899,-4.60913 11.52767,-4.51295 z"
     style="fill:#3d3ab2;stroke-width:0.77471"
     id="path84" />
  <path
     d="m 312.8703,168.91163 c 0.0487,0.0962 -5.03778,2.27127 -11.35731,4.86067 -6.31952,2.5894 -11.47898,4.61654 -11.52766,4.52036 -0.0487,-0.0962 5.02966,-2.27868 11.3573,-4.86808 6.32764,-2.5894 11.47899,-4.64612 11.52767,-4.51295 z"
     style="fill:#3d3ab2;stroke-width:0.77471"
     id="path86" />
  <path
     d="m 314.72803,151.86597 c 0.0487,0.0962 -5.02967,2.27867 -11.35731,4.86807 -6.32764,2.5894 -11.47898,4.60914 -11.52766,4.51296 -0.0487,-0.0962 5.03778,-2.27128 11.3573,-4.86068 6.31953,-2.5894 11.46277,-4.62393 11.52767,-4.52035 z"
     style="fill:#3d3ab2;stroke-width:0.77471"
     id="path88" />
  <path
     d="m 316.59387,134.82771 c 0.0406,0.0962 -5.03778,2.27867 -11.3573,4.86807 -6.31953,2.5894 -11.47899,4.60914 -11.52767,4.51296 -0.0487,-0.0962 5.03778,-2.27128 11.35731,-4.86808 6.31952,-2.5968 11.47898,-4.59433 11.52766,-4.51295 z"
     style="fill:#3d3ab2;stroke-width:0.77471"
     id="path90" />
  <path
     d="m 312.8703,119.65381 c 0.0487,0.0962 -5.03778,2.27868 -11.35731,4.86808 -6.31952,2.5894 -11.47898,4.60913 -11.52766,4.51296 -0.0487,-0.0962 5.02966,-2.27868 11.3573,-4.86808 6.32764,-2.5894 11.47899,-4.60913 11.52767,-4.51296 z"
     style="fill:#3d3ab2;stroke-width:0.77471"
     id="path92" />
  <path
     d="m 312.8703,103.31839 c 0.0487,0.0962 -5.03778,2.27867 -11.35731,4.86808 -6.31952,2.5894 -11.47898,4.60913 -11.52766,4.51295 -0.0487,-0.0962 5.02966,-2.27867 11.3573,-4.86807 6.32764,-2.5894 11.47899,-4.60914 11.52767,-4.51296 z"
     style="fill:#3d3ab2;stroke-width:0.77471"
     id="path94" />
  <path
     d="m 311.01257,87.937347 c 0.0487,0.09618 -5.03778,2.271275 -11.35731,4.860677 -6.31952,2.589401 -11.47898,4.616532 -11.52766,4.520355 -0.0487,-0.09618 5.02966,-2.278674 11.3573,-4.868075 6.32764,-2.589401 11.47899,-4.609134 11.52767,-4.512957 z"
     style="fill:#3d3ab2;stroke-width:0.77471"
     id="path96" />
  <path
     d="m 294.99066,77.217226 a 69.303882,63.203588 0 0 1 -6.87117,3.033298 69.393118,63.284969 0 0 1 -7.04964,2.678181 66.196849,60.370043 0 0 1 6.87117,-3.033298 69.393118,63.284969 0 0 1 7.04964,-2.678181 z"
     style="fill:#3d3ab2;stroke-width:0.77471"
     id="path98" />
  <path
     d="m 286.42401,70.654943 a 71.591567,65.289906 0 0 1 -6.87117,3.0259 69.393118,63.284969 0 0 1 -7.04964,2.678181 69.320107,63.218385 0 0 1 6.87117,-3.018502 69.393118,63.284969 0 0 1 7.04964,-2.685579 z"
     style="fill:#3d3ab2;stroke-width:0.77471"
     id="path100" />
  <path
     d="m 206.50916,105.82641 c 0.0406,0.0962 -4.75384,1.83478 -10.70831,3.87671 -5.95448,2.04192 -10.82189,3.61776 -10.86245,3.51418 -0.0406,-0.10357 4.75384,-1.83477 10.71642,-3.8767 5.96259,-2.04193 10.81378,-3.61037 10.85434,-3.51419 z"
     style="fill:#3d3ab2;stroke-width:0.77471"
     id="path102" />
  <path
     d="m 212.44741,83.749915 c 0.0487,0.09618 -5.15946,1.967945 -11.60879,4.187432 -6.44933,2.219487 -11.73047,3.921094 -11.77103,3.824916 -0.0406,-0.09618 5.15946,-1.975343 11.6169,-4.187432 6.45743,-2.212088 11.76292,-3.928492 11.76292,-3.824916 z"
     style="fill:#3d3ab2;stroke-width:0.77471"
     id="path104" />
  <path
     d="m 228.07992,61.895368 c 0.0406,0.103576 -6.55478,2.448834 -14.73204,5.252786 -8.17726,2.803951 -14.83751,4.993845 -14.87807,4.897667 -0.0406,-0.09618 6.55479,-2.456232 14.73204,-5.260184 8.17726,-2.803951 14.83751,-4.986447 14.87807,-4.890269 z"
     style="fill:#3d3ab2;stroke-width:0.77471"
     id="path106" />
  <path
     d="m 343.30787,201.33093 -0.34072,-0.10357 -0.97349,-0.34772 c -0.42995,-0.14057 -0.9897,-0.25155 -1.62247,-0.41431 a 16.711459,15.240477 0 0 0 -2.29579,-0.25894 c -3.46398,-0.19975 -8.65589,0.94698 -13.67744,4.37979 a 38.866311,35.445205 0 0 0 -7.24434,6.53269 c -2.32825,2.5968 -4.60782,5.53392 -7.19566,8.49324 a 42.662895,38.907605 0 0 1 -9.34544,8.26389 33.731188,30.762088 0 0 1 -12.9311,4.77929 33.260671,30.332987 0 0 1 -13.94514,-0.4217 65.96159,60.155493 0 0 1 -12.21722,-4.13565 c -3.77224,-1.59063 -7.30112,-3.21085 -10.65964,-4.54994 a 56.616153,51.632663 0 0 0 -9.68615,-2.98152 35.734941,32.589466 0 0 0 -8.35573,-0.87299 25.042852,22.83852 0 0 0 -6.28708,0.77682 22.901189,20.885372 0 0 0 -3.74791,1.33909 l -0.92481,0.44389 a 1.6224718,1.4796579 0 0 1 -0.32449,0.14057 l 0.30015,-0.17016 0.90859,-0.48089 a 20.775751,18.94702 0 0 1 3.7398,-1.41307 24.937391,22.742342 0 0 1 6.32764,-0.8508 35.605143,32.471093 0 0 1 8.42874,0.82121 56.786512,51.788027 0 0 1 9.73483,2.95931 c 3.39096,1.33169 6.91984,2.95932 10.68397,4.52776 a 65.499186,59.73379 0 0 0 12.16854,4.08385 32.814492,29.926081 0 0 0 13.79101,0.41431 33.479705,30.532741 0 0 0 12.77697,-4.71271 42.289727,38.567284 0 0 0 9.28054,-8.17511 c 2.58784,-2.95932 4.86741,-5.87425 7.22811,-8.47844 a 39.085345,35.644959 0 0 1 7.30112,-6.54749 c 5.09456,-3.43281 10.35948,-4.55735 13.86402,-4.30581 a 16.735796,15.262671 0 0 1 2.32014,0.28854 c 0.64899,0.18496 1.20874,0.30333 1.62247,0.45869 l 0.96537,0.38471 z"
     style="fill:#ffffff;stroke-width:0.77471"
     id="path108" />
  <path
     d="m 348.42677,151.98434 c 0,0.037 -0.57598,0.10358 -1.58191,0.40691 a 15.770426,14.382275 0 0 0 -3.91827,1.91615 c -1.54135,0.98398 -3.24495,2.36006 -5.20003,3.78053 a 37.10593,33.839777 0 0 1 -6.96851,3.91369 38.314671,34.942122 0 0 1 -14.32643,3.37362 c -0.94914,0.074 -1.81717,0.0518 -2.57162,0.0666 -0.75445,0.0148 -1.40343,-0.0444 -1.93074,-0.0814 l -1.22496,-0.11098 a 1.3223145,1.2059212 0 0 1 -0.41373,-0.0666 1.5332358,1.3982767 0 0 1 0.42184,0 l 1.22497,0.037 H 313.86 c 0.75445,-0.037 1.62248,0 2.54728,-0.11837 a 40.050716,36.525356 0 0 0 14.1723,-3.455 38.841974,35.423011 0 0 0 6.91173,-3.84711 c 1.9713,-1.39088 3.68301,-2.75957 5.27303,-3.69915 a 14.602246,13.316921 0 0 1 4.05618,-1.83477 9.4995723,8.6633971 0 0 1 1.20063,-0.23675 1.3304269,1.2133195 0 0 1 0.40562,-0.0444 z"
     style="fill:#ffffff;stroke-width:0.77471"
     id="path110" />
  <path
     d="m 242.46313,169.12618 a 2.1984493,2.0049365 0 0 1 -0.43806,-0.0592 c -0.29205,-0.0592 -0.722,-0.11837 -1.26553,-0.25894 a 18.966695,17.297201 0 0 1 -4.34823,-1.7386 43.98521,40.113526 0 0 1 -5.67865,-3.78052 c -2.0362,-1.53885 -4.21031,-3.29224 -6.70081,-4.86068 a 22.966088,20.944558 0 0 0 -7.69862,-3.21826 23.761099,21.66959 0 0 0 -11.552,0.0444 c -1.07895,0.25155 -1.66304,0.4439 -1.67115,0.40691 a 1.5007864,1.3686836 0 0 1 0.40562,-0.17016 c 0.27582,-0.0962 0.68144,-0.24414 1.22496,-0.38471 a 21.092133,19.235553 0 0 1 4.66461,-0.73983 22.714605,20.715211 0 0 1 7.01719,0.52528 23.030987,21.003744 0 0 1 7.84465,3.24785 c 2.52295,1.59063 4.69706,3.35882 6.71704,4.90506 a 46.491929,42.399598 0 0 0 5.5813,3.82492 21.092133,19.235553 0 0 0 4.24276,1.82738 16.224718,14.796579 0 0 1 1.65492,0.4291 z"
     style="fill:#ffffff;stroke-width:0.77471"
     id="path112" />
  <path
     d="m 242.60104,99.190146 a 8.5585386,7.8051955 0 0 1 -1.35476,0.451295 16.281504,14.848367 0 0 1 -1.62247,0.436499 c -0.64088,0.14797 -1.36288,0.34772 -2.18223,0.48089 -0.81934,0.13317 -1.70359,0.31813 -2.67708,0.4291 -0.97348,0.11097 -2.00375,0.21455 -3.09892,0.30333 a 47.100356,42.954469 0 0 1 -7.13887,-0.0814 47.676333,43.479748 0 0 1 -7.03342,-1.13194 c -1.0546,-0.273736 -2.06865,-0.525278 -2.98535,-0.828608 -0.91669,-0.30333 -1.7766,-0.584465 -2.53916,-0.872998 -0.76257,-0.288533 -1.444,-0.591863 -2.04432,-0.843405 -0.60031,-0.251542 -1.09517,-0.495685 -1.50078,-0.702838 a 9.3859992,8.5598211 0 0 1 -1.23308,-0.673244 9.8889655,9.018515 0 0 1 1.30609,0.540075 c 0.41373,0.184957 0.92481,0.414304 1.52512,0.643651 0.60031,0.229347 1.28175,0.525279 2.06054,0.776821 0.77879,0.251542 1.62247,0.569668 2.53917,0.828608 0.91669,0.25894 1.91451,0.525279 2.96912,0.784219 a 46.240446,42.170251 0 0 0 14.05061,1.205919 c 1.08705,-0.0814 2.11732,-0.13317 3.08269,-0.26634 0.96537,-0.13317 1.84962,-0.24414 2.66086,-0.37731 0.81123,-0.13317 1.53323,-0.295931 2.17411,-0.421702 0.64088,-0.12577 1.19252,-0.25894 1.62247,-0.369914 a 10.18101,9.2848534 0 0 1 1.41966,-0.310728 z"
     style="fill:#ffffff;stroke-width:0.77471"
     id="path114" />
  <path
     d="m 343.81895,99.005189 a 1.7035954,1.5536408 0 0 1 -0.34072,-0.155365 l -0.94104,-0.495685 a 15.965122,14.559834 0 0 0 -1.5089,-0.739829 21.538313,19.642459 0 0 0 -2.05242,-0.880396 l -1.21686,-0.466093 c -0.42995,-0.155364 -0.88424,-0.273736 -1.35476,-0.421702 -0.92481,-0.310728 -1.95508,-0.525279 -3.03402,-0.784219 a 33.577053,30.621521 0 0 0 -14.34265,-0.110974 30.762065,28.054314 0 0 0 -3.05025,0.739829 c -0.47052,0.140567 -0.93292,0.251542 -1.36288,0.399507 l -1.22496,0.443898 a 22.325212,20.360093 0 0 0 -2.06865,0.850803 13.393505,12.214576 0 0 0 -1.51702,0.739829 l -0.95725,0.480889 c -0.21904,0.103576 -0.34072,0.155364 -0.34884,0.140567 a 1.4602246,1.3316921 0 0 1 0.30827,-0.207152 l 0.90859,-0.547473 a 12.922988,11.785475 0 0 1 1.50079,-0.784219 18.918021,17.252811 0 0 1 2.06053,-0.909989 l 1.22497,-0.473491 c 0.42996,-0.155364 0.90047,-0.273737 1.37099,-0.421702 a 28.961121,26.411894 0 0 1 3.07458,-0.776821 32.546784,29.681938 0 0 1 14.51301,0.118373 c 1.08706,0.266338 2.12544,0.495685 3.05836,0.82121 0.47052,0.155364 0.93292,0.281135 1.35477,0.451296 l 1.22496,0.488287 a 22.714605,20.715211 0 0 1 2.04432,0.939582 13.247482,12.081407 0 0 1 1.47645,0.813812 l 0.90858,0.56227 c 0.20281,0.09618 0.34072,0.170161 0.29205,0.184958 z"
     style="fill:#ffffff;stroke-width:0.77471"
     id="path116" />
  <path
     d="m 294.21998,48.748607 a 3.4883143,3.1812645 0 0 1 -0.58409,0.325525 l -1.68737,0.850803 c -1.50078,0.739829 -3.6749,1.768192 -6.40065,3.011104 -5.43528,2.448834 -13.06901,5.800259 -22.10618,7.886577 a 60.566872,55.23563 0 0 1 -12.97977,1.64242 46.556828,42.458784 0 0 1 -10.65153,-0.836007 36.976132,33.721404 0 0 1 -6.8955,-1.916157 c -0.81124,-0.281135 -1.37099,-0.577066 -1.77661,-0.739828 a 4.6727187,4.2614148 0 0 1 -0.60843,-0.288534 3.1394829,2.8631381 0 0 1 0.64088,0.221949 c 0.42184,0.140567 1.00593,0.414304 1.80906,0.673244 a 39.856019,36.347797 0 0 0 6.88739,1.790386 47.384288,43.21341 0 0 0 10.58663,0.739829 61.378107,55.975459 0 0 0 12.87431,-1.664615 c 8.98038,-2.071521 16.62222,-5.36376 22.08184,-7.753407 l 6.48989,-2.907528 1.67114,-0.784219 a 5.402831,4.9272609 0 0 1 0.64899,-0.251542 z"
     style="fill:#ffffff;stroke-width:0.77471"
     id="path118" />
  <path
     d="m 131.37249,177.65641 27.11962,1.08015 -1.25742,26.21214 -27.11961,-1.08015 -2.08488,43.55373 L 92.33582,246.0018 94.420696,202.44807 2.33731,198.77852 2.4103213,178.80314 100.56986,50.220867 137.4162,51.700525 Z m -93.292127,-3.69915 57.597749,2.29347 3.796584,-79.442833 -0.868023,-0.30333 -3.244943,5.659693 z"
     style="fill:#3d3ab2;stroke-width:0.77471"
     id="path120" />
  <g
     style="opacity:0.4"
     id="g124"
     transform="matrix(0.81123589,0,0,0.73982896,-26.867182,-39.11348)">
    <path
       d="m 195.06,293 33.43,1.46 -1.55,35.43 -33.43,-1.46 -2.57,58.87 -44,-1.92 2.57,-58.87 -113.51,-4.96 0.09,-27 121,-173.8 45.42,2 z m -115,-5 71,3.1 4.68,-107.38 -1.07,-0.41 -4,7.65 z"
       id="path122" />
  </g>
  <path
     d="m 154.03842,178.559 27.11962,1.08015 -1.25742,26.21214 -27.11961,-1.08015 -2.08488,43.55373 -35.69438,-1.42047 2.08488,-43.55373 -92.123951,-3.69915 0.07301,-19.97538 98.175771,-128.530487 36.85444,1.479658 z m -93.292126,-3.69915 57.638306,2.29347 3.79659,-79.442832 -0.86802,-0.30333 -3.24495,5.659692 z"
     style="fill:#3d3ab2;stroke-width:0.77471"
     id="path126" />
  <path
     d="m 25.530544,183.51585 a 4.4699098,4.0764576 0 0 1 -0.876135,0.4513 c -0.575977,0.26633 -1.419662,0.63625 -2.433707,1.08015 -2.084877,0.89519 -4.997213,2.08631 -8.250269,3.34402 -3.253056,1.25771 -6.2140672,2.32307 -8.3719547,3.07029 -1.0789437,0.36992 -1.9631908,0.65845 -2.5716178,0.85081 a 5.1107861,4.6609224 0 0 1 -0.9653707,0.26634 4.3806738,3.9950764 0 0 1 0.9085842,-0.40691 l 2.5148313,-0.96918 8.2908307,-3.18866 8.290831,-3.23305 2.522944,-0.97658 a 4.8674153,4.4389738 0 0 1 0.941033,-0.28853 z"
     style="fill:#3d3ab2;stroke-width:0.77471"
     id="path128" />
  <path
     d="m 38.737464,161.38017 a 10.083662,9.196074 0 0 1 -1.224966,0.58446 c -0.811236,0.35512 -1.963191,0.8582 -3.407191,1.47966 -2.896112,1.19852 -6.911729,2.80395 -11.357302,4.52775 -4.445573,1.72381 -8.558539,3.19607 -11.4871,4.24662 -1.4764495,0.53268 -2.6770786,0.94698 -3.5207639,1.22072 a 7.3984713,6.7472401 0 0 1 -1.3142022,0.38471 9.8970779,9.0259133 0 0 1 1.2574157,-0.52528 l 3.4639774,-1.33169 11.446538,-4.38719 11.422202,-4.43897 3.463977,-1.33909 a 7.1794376,6.5474863 0 0 1 1.257415,-0.4217 z"
     style="fill:#3d3ab2;stroke-width:0.77471"
     id="path130" />
  <path
     d="m 54.856722,141.60454 a 8.5017521,7.7534075 0 0 1 -1.281753,0.59186 c -0.811236,0.35512 -2.052427,0.8582 -3.561326,1.47966 -3.02591,1.20592 -7.219999,2.81135 -11.876493,4.53515 -4.656494,1.7238 -8.923595,3.22566 -11.998179,4.28361 -1.541348,0.52528 -2.798764,0.93959 -3.666786,1.21332 a 7.8852129,7.1911375 0 0 1 -1.370989,0.38471 11.024696,10.054276 0 0 1 1.314202,-0.52528 l 3.618112,-1.33169 11.941393,-4.38718 11.917055,-4.43898 3.618112,-1.33909 a 9.3211004,8.5006348 0 0 1 1.346652,-0.46609 z"
     style="fill:#3d3ab2;stroke-width:0.77471"
     id="path132" />
  <path
     d="m 119.42299,164.42087 a 4.6159322,4.2096268 0 0 1 -0.88425,0.43649 c -0.57598,0.25894 -1.41966,0.61406 -2.47427,1.04316 -2.09299,0.8656 -5.01344,2.01234 -8.26649,3.21826 -3.25306,1.20592 -6.2303,2.21949 -8.388183,2.95931 -1.087056,0.35512 -1.963191,0.63626 -2.571618,0.82122 a 5.3054827,4.8384814 0 0 1 -0.965371,0.24414 4.2346513,3.8619072 0 0 1 0.900472,-0.38471 l 2.531056,-0.93219 8.339504,-3.04809 8.30706,-3.10728 2.52294,-0.93959 a 4.5915951,4.1874319 0 0 1 0.94915,-0.31072 z"
     style="fill:#3d3ab2;stroke-width:0.77471"
     id="path134" />
  <path
     d="m 116.79458,205.06707 a 4.3887862,4.0024747 0 0 1 -0.8518,0.4365 c -0.55975,0.25154 -1.3791,0.61406 -2.39314,1.04316 -2.02809,0.8656 -4.86742,2.01233 -8.0069,3.21085 -3.13948,1.19853 -6.043707,2.21949 -8.112359,2.95932 -1.054607,0.35512 -1.906404,0.63625 -2.498606,0.81381 a 4.4699098,4.0764576 0 0 1 -0.941034,0.25154 4.340112,3.9580849 0 0 1 0.876135,-0.39211 l 2.433707,-0.93218 8.112357,-3.0407 8.04746,-3.10728 2.43371,-0.93218 a 4.5997075,4.1948302 0 0 1 0.90047,-0.31073 z"
     style="fill:#3d3ab2;stroke-width:0.77471"
     id="path136" />
  <path
     d="m 116.42141,219.31617 a 4.1697525,3.8027209 0 0 1 -0.81123,0.4291 c -0.55976,0.25894 -1.3791,0.61406 -2.43371,1.05056 -2.02809,0.8582 -4.86742,2.00494 -8.01501,3.21086 -3.1476,1.20592 -6.035596,2.21949 -8.11236,2.95932 -1.046494,0.35511 -1.898292,0.63625 -2.498606,0.82121 a 3.7154604,3.3884166 0 0 1 -0.932922,0.24414 4.9809884,4.5425498 0 0 1 0.876135,-0.38471 l 2.433708,-0.93219 8.112355,-3.04069 8.05558,-3.10729 2.4337,-0.93218 a 3.8695952,3.5289841 0 0 1 0.89236,-0.31813 z"
     style="fill:#3d3ab2;stroke-width:0.77471"
     id="path138" />
  <path
     d="m 116.04824,233.55788 a 4.7538423,4.3353977 0 0 1 -0.81123,0.4365 c -0.55975,0.25894 -1.3791,0.61406 -2.43371,1.04316 -2.0362,0.8656 -4.86741,2.01233 -8.01501,3.21086 -3.14759,1.19852 -6.035594,2.21948 -8.112358,2.95931 -1.046495,0.35512 -1.906405,0.63626 -2.498607,0.81381 a 4.656494,4.2466182 0 0 1 -0.932921,0.25155 4.2752131,3.8988986 0 0 1 0.876135,-0.39211 l 2.433707,-0.92479 8.112364,-3.04809 8.05557,-3.10729 2.43371,-0.93218 a 4.3644491,3.9802798 0 0 1 0.89235,-0.31073 z"
     style="fill:#3d3ab2;stroke-width:0.77471"
     id="path140" />
  <path
     d="m 119.84483,149.37274 a 5.2568086,4.7940917 0 0 1 -0.88425,0.4365 c -0.57598,0.25894 -1.41966,0.61406 -2.43371,1.04316 -2.09298,0.8656 -5.01343,2.01234 -8.26649,3.21826 -3.25306,1.20592 -6.23029,2.21948 -8.388179,2.95931 -1.087056,0.35512 -1.963191,0.63626 -2.571618,0.81382 a 5.0377749,4.5943378 0 0 1 -0.96537,0.25154 3.9588311,3.6103653 0 0 1 0.900471,-0.39211 l 2.531056,-0.93219 8.33951,-3.04069 8.30705,-3.10728 2.52294,-0.93219 a 4.5915951,4.1874319 0 0 1 0.90859,-0.31813 z"
     style="fill:#3d3ab2;stroke-width:0.77471"
     id="path142" />
  <path
     d="m 120.26667,134.32462 a 5.2568086,4.7940917 0 0 1 -0.88425,0.4365 c -0.57597,0.25154 -1.41966,0.61406 -2.47427,1.04316 -2.09298,0.8656 -5.01343,2.01234 -8.26649,3.21086 -3.25305,1.19852 -6.22218,2.21949 -8.38818,2.95931 -1.087054,0.35512 -1.963189,0.62886 -2.571616,0.81382 a 5.0377749,4.5943378 0 0 1 -0.965371,0.25154 3.9344941,3.5881705 0 0 1 0.908585,-0.39211 l 2.522942,-0.93219 8.33951,-3.04069 8.30705,-3.10728 2.52295,-0.93219 a 4.5915951,4.1874319 0 0 1 0.94914,-0.31073 z"
     style="fill:#3d3ab2;stroke-width:0.77471"
     id="path144" />
  <path
     d="m 120.68851,119.2765 a 4.6483816,4.2392199 0 0 1 -0.81123,0.41431 c -0.54353,0.24414 -1.34665,0.58446 -2.34447,0.99877 -2.00376,0.8286 -4.77818,1.93095 -7.8771,3.07029 -3.09893,1.13933 -5.93825,2.1233 -7.99879,2.79655 -1.03027,0.33292 -1.865842,0.59926 -2.433708,0.73983 a 4.3076626,3.9284918 0 0 1 -0.924809,0.23674 4.1697525,3.8027209 0 0 1 0.868023,-0.37731 l 2.433704,-0.88779 7.942,-2.89274 7.91767,-2.95931 2.4337,-0.8878 a 3.7397975,3.4106115 0 0 1 0.79501,-0.25154 z"
     style="fill:#3d3ab2;stroke-width:0.77471"
     id="path146" />
  <path
     d="m 122.55436,105.21235 a 23.623189,21.543819 0 0 1 -4.05618,1.57584 23.379818,21.321871 0 0 1 -4.21032,1.22072 23.720537,21.632599 0 0 1 4.05618,-1.58324 22.901189,20.885372 0 0 1 4.21032,-1.21332 z"
     style="fill:#3d3ab2;stroke-width:0.77471"
     id="path148" />
  <path
     d="m 70.943529,121.12607 a 10.343258,9.4328192 0 0 1 -1.27364,0.59187 c -0.811236,0.35512 -2.052427,0.8508 -3.569438,1.47966 -3.017798,1.20592 -7.211887,2.81135 -11.876493,4.53515 -4.664607,1.7238 -8.923595,3.23305 -11.990067,4.28361 -1.541348,0.52528 -2.798764,0.93958 -3.666786,1.21332 a 10.594741,9.6621662 0 0 1 -1.370989,0.39211 8.3800667,7.6424332 0 0 1 1.314202,-0.53268 l 3.618112,-1.3243 11.941393,-4.41677 11.917055,-4.43898 3.61,-1.33909 a 10.773213,9.8249286 0 0 1 1.346651,-0.4439 z"
     style="fill:#3d3ab2;stroke-width:0.77471"
     id="path150" />
  <path
     d="m 87.038449,100.64021 a 8.5017521,7.7534075 0 0 1 -1.281752,0.59186 c -0.811236,0.35512 -2.052427,0.85821 -3.561326,1.47966 -3.017797,1.19852 -7.219999,2.81135 -11.876493,4.52775 -4.656494,1.71641 -8.923595,3.23306 -11.990067,4.28361 -1.54946,0.53268 -2.798764,0.94699 -3.674898,1.22072 a 8.2097072,7.4870691 0 0 1 -1.362877,0.38471 9.7348307,8.8779475 0 0 1 1.30609,-0.52528 l 3.618112,-1.33169 11.941392,-4.38718 11.925168,-4.43898 3.61,-1.34649 a 9.7348307,8.8779475 0 0 1 1.346651,-0.45869 z"
     style="fill:#3d3ab2;stroke-width:0.77471"
     id="path152" />
  <path
     d="m 101.9084,80.161745 a 10.164786,9.2700569 0 0 1 -1.28175,0.591863 c -0.811235,0.355118 -2.052426,0.850803 -3.561325,1.479658 -3.017798,1.205921 -7.22,2.81135 -11.876494,4.535152 -4.656494,1.723801 -8.923594,3.233052 -11.990066,4.283609 -1.541348,0.525279 -2.798764,0.939583 -3.666786,1.21332 a 10.594741,9.6621662 0 0 1 -1.370989,0.392109 8.3800667,7.6424332 0 0 1 1.314202,-0.532677 l 3.618112,-1.324294 11.941393,-4.387185 11.917055,-4.438974 3.609998,-1.339091 a 8.1934825,7.4722725 0 0 1 1.34665,-0.47349 z"
     style="fill:#3d3ab2;stroke-width:0.77471"
     id="path154" />
  <path
     d="m 117.38678,60.467498 a 10.992246,10.024682 0 0 1 -1.28175,0.591863 c -0.81123,0.355118 -2.05243,0.850803 -3.56132,1.479658 -3.02591,1.205921 -7.22,2.81135 -11.8765,4.535152 -4.656492,1.723801 -8.923593,3.233052 -11.998177,4.283609 -1.541348,0.525279 -2.790651,0.939583 -3.666786,1.21332 a 9.7348307,8.8779475 0 0 1 -1.370988,0.392109 8.8749206,8.0937288 0 0 1 1.314202,-0.532677 l 3.618112,-1.324294 11.933277,-4.424177 11.91706,-4.438973 3.61811,-1.339091 a 9.7348307,8.8779475 0 0 1 1.35476,-0.436499 z"
     style="fill:#3d3ab2;stroke-width:0.77471"
     id="path156" />
  <path
     d="m 158.45154,90.556342 a 3.0826964,2.81135 0 0 1 -0.47051,0.488287 16.046246,14.633817 0 0 1 -1.46834,1.294701 25.772964,23.504366 0 0 1 -6.3033,3.699144 27.760492,25.316947 0 0 1 -10.83811,2.219487 25.383571,23.149248 0 0 1 -6.5629,-0.673244 33.260671,30.332987 0 0 1 -6.6278,-2.256478 c -4.36445,-1.938352 -8.24216,-4.224424 -12.03063,-5.815056 a 27.58202,25.154185 0 0 0 -10.62719,-2.530215 15.754201,14.367478 0 0 0 -7.244334,1.235514 12.566044,11.459951 0 0 0 -1.760382,0.917388 4.9891007,4.5499481 0 0 1 -0.600314,0.34772 4.9972131,4.5573464 0 0 1 0.55164,-0.406906 11.357302,10.357605 0 0 1 1.736045,-0.991371 15.567617,14.197318 0 0 1 7.301125,-1.376082 27.500897,25.080202 0 0 1 10.78132,2.522817 c 3.82904,1.590632 7.72297,3.869305 12.04686,5.792861 a 33.617615,30.658512 0 0 0 6.55478,2.219487 25.221324,23.001282 0 0 0 6.44933,0.680642 27.298088,24.895245 0 0 0 17.03595,-5.718878 c 0.68955,-0.503083 1.17629,-0.946981 1.51701,-1.235514 a 4.5753704,4.1726353 0 0 1 0.55975,-0.414304 z"
     style="fill:#ffffff;stroke-width:0.77471"
     id="path158" />
  <path
     d="m 147.15914,53.979198 a 7.5201567,6.8582145 0 0 1 -1.03027,0.547473 c -0.67332,0.332923 -1.67926,0.739829 -2.94478,1.25771 a 43.806738,39.950764 0 0 1 -4.54293,1.479658 46.045749,41.992692 0 0 1 -11.63312,1.731199 43.157749,39.358901 0 0 1 -4.86741,-0.08878 c -1.37099,-0.09618 -2.43371,-0.21455 -3.24495,-0.340321 a 6.8468309,6.2441564 0 0 1 -1.16818,-0.214551 6.2302916,5.6818864 0 0 1 1.19252,0.06658 c 0.75445,0.08138 1.85773,0.155364 3.24494,0.21455 1.38722,0.05919 2.99346,0.07398 4.79441,0 a 55.074805,50.226988 0 0 0 5.82467,-0.547473 56.161861,51.218359 0 0 0 5.67865,-1.16893 c 1.72793,-0.458694 3.24495,-0.932184 4.53481,-1.390878 1.28987,-0.458694 2.28769,-0.850804 2.98535,-1.139337 a 6.6034601,6.0222077 0 0 1 1.17629,-0.406906 z"
     style="fill:#ffffff;stroke-width:0.77471"
     id="path160" />
  <path
     d="m 89.561393,136.1446 a 6.0193703,5.4895309 0 0 1 -0.730112,-0.73983 l -1.914517,-2.08631 a 91.239701,83.208563 0 0 0 -6.798157,-6.47351 24.86438,22.675758 0 0 0 -4.258988,-2.95931 12.9311,11.792874 0 0 0 -4.05618,-1.43527 11.414089,10.409393 0 0 0 -4.015617,0 c 0,0 0.08924,-0.0444 0.267707,-0.0962 a 4.4617974,4.0690593 0 0 1 0.811236,-0.17016 9.085842,8.2860844 0 0 1 3.009686,0 12.590381,11.482145 0 0 1 4.194089,1.39828 23.639414,21.558616 0 0 1 4.356337,3.0111 70.98314,64.735034 0 0 1 6.733258,6.58448 c 0.811236,0.89519 1.41155,1.64242 1.817168,2.1603 a 4.9809884,4.5425498 0 0 1 0.58409,0.80641 z"
     style="fill:#ffffff;stroke-width:0.77471"
     id="path162" />
  <path
     d="m 154.27368,158.49484 c 0,0 -0.10546,0.0888 -0.31638,0.22194 -0.21092,0.13317 -0.52731,0.34772 -0.96537,0.56967 a 24.012582,21.898937 0 0 1 -3.82092,1.64982 24.823818,22.638766 0 0 1 -25.95955,-4.84588 22.763279,20.759601 0 0 1 -2.79065,-2.87793 c -0.30016,-0.36252 -0.49486,-0.66585 -0.64088,-0.8656 -0.14602,-0.19976 -0.21092,-0.31073 -0.1947,-0.31813 a 14.188516,12.939609 0 0 1 0.96537,1.09495 27.655031,25.220769 0 0 0 2.86367,2.76696 25.269998,23.045672 0 0 0 25.62694,4.78669 26.543638,24.207204 0 0 0 3.82092,-1.52405 14.51301,13.23554 0 0 1 1.41155,-0.65844 z"
     style="fill:#ffffff;stroke-width:0.77471"
     id="path164" />
  <path
     d="m 177.90498,205.3408 c 0,0 -0.0811,-0.11097 -0.22714,-0.34771 -0.14603,-0.23675 -0.37317,-0.57707 -0.64899,-1.02097 a 31.127121,28.387237 0 0 0 -2.77443,-3.75093 l -1.10328,-1.18373 -0.5922,-0.64365 -0.68955,-0.61406 -1.46023,-1.31689 -1.70359,-1.2873 a 38.355233,34.979113 0 0 0 -8.9236,-4.83109 36.602963,33.381083 0 0 0 -12.16854,-2.582 33.893435,30.910054 0 0 0 -14.13984,2.07152 c -4.74573,1.70161 -9.32921,4.26881 -14.1804,6.75464 a 67.235231,61.317024 0 0 1 -7.61751,3.4476 31.094672,28.357644 0 0 1 -8.49364,2.03453 27.403548,24.991422 0 0 1 -8.745119,-0.48089 39.125907,35.681951 0 0 1 -8.055573,-2.47842 84.368533,76.942212 0 0 1 -13.726111,-7.60545 c -4.16164,-2.70037 -8.112359,-5.31197 -12.014404,-7.39829 a 43.230761,39.425485 0 0 0 -11.543886,-4.49816 29.601998,26.996359 0 0 0 -10.310808,-0.62145 21.992605,20.056763 0 0 0 -7.487708,1.97534 18.918021,17.252811 0 0 0 -4.056179,2.55241 l -0.941034,0.79902 c -0.202809,0.18495 -0.316382,0.27373 -0.316382,0.27373 0,0 0.08924,-0.10357 0.292045,-0.30333 l 0.884247,-0.8656 a 18.561077,16.927287 0 0 1 4.05618,-2.62639 21.960156,20.02717 0 0 1 7.544494,-2.05672 29.650672,27.040748 0 0 1 10.408156,0.56966 43.904086,40.039543 0 0 1 11.649347,4.48337 c 3.950719,2.08632 7.893326,4.69051 12.063078,7.39829 a 84.165724,76.757255 0 0 0 13.669325,7.54625 38.436356,35.053096 0 0 0 7.966336,2.47843 27.143953,24.754677 0 0 0 8.623436,0.47349 30.826964,28.1135 0 0 0 8.36384,-1.99754 69.230871,63.137003 0 0 0 7.57695,-3.41801 c 4.86741,-2.47843 9.44278,-5.05303 14.22907,-6.76203 a 30.737728,28.032119 0 0 1 3.61812,-1.06536 c 0.60842,-0.14057 1.20874,-0.31073 1.80905,-0.4217 l 1.81717,-0.27374 a 34.704671,31.649883 0 0 1 7.05775,-0.29593 36.895008,33.647421 0 0 1 12.30645,2.64859 38.82575,35.408214 0 0 1 8.9236,4.91246 c 0.58409,0.4513 1.15195,0.8952 1.70359,1.3095 l 1.45211,1.33909 0.68144,0.62146 c 0.20281,0.22195 0.40562,0.4365 0.5922,0.65105 0.3894,0.4217 0.75445,0.82121 1.09517,1.20592 a 28.774537,26.241733 0 0 1 2.71764,3.80272 q 0.39751,0.68064 0.60843,1.04316 c 0.15413,0.22934 0.21092,0.35511 0.21092,0.35511 z"
     style="fill:#ffffff;stroke-width:0.77471"
     id="path166" />
  <path
     d="m 153.38943,236.24346 a 1.6224718,1.4796579 0 0 1 -0.41373,0.0962 l -1.20063,0.20715 a 18.763886,17.112244 0 0 1 -1.9064,0.25894 c -0.74634,0.0666 -1.62247,0.17756 -2.54728,0.19975 l -1.49268,0.0592 c -0.51107,0 -1.0546,0 -1.62247,0 -1.11139,0 -2.30391,-0.0962 -3.55321,-0.18496 a 49.055434,44.737457 0 0 1 -8.0069,-1.42047 49.704423,45.32932 0 0 1 -7.59317,-2.72257 c -1.10328,-0.54007 -2.166,-1.03576 -3.10703,-1.59063 -0.47052,-0.26634 -0.94103,-0.51048 -1.37099,-0.73983 l -1.21685,-0.77682 c -0.81124,-0.48089 -1.43589,-0.99137 -2.02809,-1.42047 a 17.84719,16.276237 0 0 1 -1.46834,-1.14674 c -0.34883,-0.31072 -0.64899,-0.56227 -0.88425,-0.73983 a 1.7360448,1.583234 0 0 1 -0.29204,-0.28853 1.8415055,1.6794117 0 0 1 0.34883,0.22935 l 0.94103,0.73983 c 0.39751,0.31073 0.89236,0.68804 1.50079,1.08755 0.60843,0.3995 1.25742,0.90259 2.05243,1.36868 l 1.22496,0.73983 c 0.42996,0.25894 0.90047,0.49568 1.37099,0.73983 0.94104,0.54007 2.00375,1.02096 3.10704,1.54624 a 46.345906,42.266428 0 0 0 15.46215,4.10605 c 1.24119,0.0962 2.43371,0.21455 3.52888,0.22195 0.55164,0 1.08705,0.0444 1.62247,0 h 1.47645 c 0.94103,0 1.79283,-0.0962 2.53917,-0.14057 0.74633,-0.0444 1.38721,-0.11837 1.9064,-0.19235 l 1.20874,-0.13317 a 1.4521122,1.3242938 0 0 1 0.41373,-0.10358 z"
     style="fill:#ffffff;stroke-width:0.77471"
     id="path168" />
  <path
     d="m 483.65979,177.95974 27.01415,-2.40445 2.79877,26.10857 -27.01416,2.41184 4.64838,43.38357 -35.53213,3.17386 -4.62404,-43.38357 -91.79946,8.18251 -3.00968,-19.77563 77.35134,-139.894254 36.70842,-3.277442 z m -92.95141,8.29348 57.41116,-5.11962 -8.48552,-79.1617 -0.90859,-0.18495 -2.32013,6.0222 z"
     style="fill:#3d3ab2;stroke-width:0.77471"
     id="path170" />
  <g
     style="opacity:0.4"
     id="g174"
     transform="matrix(0.81123589,0,0,0.73982896,-26.867182,-39.11348)">
    <path
       d="m 629.32,293.41 33.3,-3.25 3.45,35.29 -33.3,3.26 5.73,58.64 -43.8,4.29 -5.7,-58.64 -113.16,11.06 -3.71,-26.73 95.35,-189.09 45.25,-4.43 z m -114.58,11.21 70.77,-6.92 -10.46,-107 -1.12,-0.25 -2.86,8.14 z"
       id="path172" />
  </g>
  <path
     d="m 506.25271,175.9474 27.01415,-2.41184 2.80688,26.11596 -27.02227,2.41924 4.6565,43.39097 -35.54025,3.16647 -4.64838,-43.38357 -91.77512,8.16771 -2.99346,-19.76823 77.35135,-139.894259 36.70842,-3.277442 z m -92.9433,8.28608 57.41117,-5.09742 -8.48553,-79.161696 -0.9167,-0.192355 -2.31202,6.022211 z"
     style="fill:#3d3ab2;stroke-width:0.77471"
     id="path176" />
  <path
     d="m 379.77292,197.34325 a 4.8674153,4.4389738 0 0 1 -0.81124,0.55488 c -0.5273,0.34032 -1.30609,0.81381 -2.27146,1.39087 -1.93885,1.15414 -4.63215,2.70778 -7.65806,4.36499 -3.02591,1.65722 -5.79223,3.09989 -7.82032,4.11345 -1.00593,0.50309 -1.83339,0.90999 -2.4337,1.17633 a 4.9323142,4.4981601 0 0 1 -0.9167,0.38471 4.112966,3.7509328 0 0 1 0.81123,-0.51788 l 2.34448,-1.2799 7.75541,-4.20963 7.70674,-4.26141 2.34447,-1.28731 a 4.5591457,4.1578388 0 0 1 0.94915,-0.4291 z"
     style="fill:#3d3ab2;stroke-width:0.77471"
     id="path178" />
  <path
     d="m 389.42663,173.71312 a 8.8668083,8.0863305 0 0 1 -1.11951,0.73983 c -0.73011,0.45129 -1.80905,1.09494 -3.14759,1.87916 -2.67708,1.56104 -6.40877,3.69915 -10.54607,5.91863 -4.1373,2.21949 -7.95011,4.29841 -10.71643,5.71888 -1.3791,0.73983 -2.50672,1.27991 -3.29361,1.65722 a 9.6618194,8.8113629 0 0 1 -1.24119,0.55487 8.5504263,7.7977972 0 0 1 1.16006,-0.68804 l 3.24495,-1.76079 10.65152,-5.80766 10.61908,-5.85205 3.24494,-1.76819 a 8.6558869,7.893975 0 0 1 1.14385,-0.59186 z"
     style="fill:#3d3ab2;stroke-width:0.77471"
     id="path180" />
  <path
     d="m 402.3415,152.08792 a 9.2480891,8.4340501 0 0 1 -1.17629,0.73983 c -0.81124,0.45869 -1.89829,1.10974 -3.30173,1.90136 -2.80688,1.57583 -6.71703,3.69914 -11.06526,6.00741 -4.34822,2.30826 -8.31516,4.34279 -11.21128,5.82245 -1.444,0.73983 -2.62029,1.2947 -3.43964,1.67941 a 9.4914599,8.6559988 0 0 1 -1.29797,0.55487 9.5239093,8.685592 0 0 1 1.21685,-0.68804 l 3.37474,-1.78298 11.14638,-5.87425 11.12205,-5.91863 3.36662,-1.79038 a 9.5401341,8.7003886 0 0 1 1.26553,-0.65105 z"
     style="fill:#3d3ab2;stroke-width:0.77471"
     id="path182" />
  <path
     d="m 469.78765,166.39621 a 4.5915951,4.1874319 0 0 1 -0.81123,0.54007 c -0.5273,0.33293 -1.3142,0.79162 -2.27957,1.35389 -1.94697,1.12454 -4.6565,2.63379 -7.69052,4.24662 -3.03402,1.61283 -5.82467,3.0037 -7.86088,3.98028 -1.01404,0.49568 -1.8415,0.8804 -2.4337,1.13934 a 4.6889434,4.2762114 0 0 1 -0.9167,0.36991 4.6321569,4.2244234 0 0 1 0.81124,-0.50308 l 2.36069,-1.24292 7.77975,-4.08385 7.74731,-4.13565 2.36069,-1.25031 a 4.5348086,4.1356439 0 0 1 0.93292,-0.4143 z"
     style="fill:#3d3ab2;stroke-width:0.77471"
     id="path184" />
  <path
     d="m 473.45444,206.96843 a 4.1535278,3.7879243 0 0 1 -0.81124,0.54007 c -0.51107,0.32553 -1.26552,0.78422 -2.20656,1.34649 -1.87395,1.10975 -4.49424,2.6116 -7.43092,4.20963 -2.93667,1.59803 -5.63809,2.95932 -7.60939,3.95069 -0.9816,0.48828 -1.78472,0.87299 -2.34447,1.13193 a 4.0561794,3.6991448 0 0 1 -0.89236,0.36252 4.6402693,4.2318217 0 0 1 0.81123,-0.49568 l 2.27958,-1.23552 7.53638,-4.04686 7.49582,-4.11345 2.27957,-1.23552 a 4.1616401,3.7953226 0 0 1 0.89236,-0.4143 z"
     style="fill:#3d3ab2;stroke-width:0.77471"
     id="path186" />
  <path
     d="m 475.28783,221.12136 a 4.1535278,3.7879243 0 0 1 -0.81123,0.54007 c -0.51108,0.32553 -1.26553,0.78422 -2.20656,1.34649 -1.87396,1.10974 -4.49425,2.6116 -7.43092,4.20223 -2.93668,1.59063 -5.63809,2.95931 -7.6094,3.95808 -0.98159,0.48829 -1.78472,0.873 -2.34447,1.13194 a 4.0561794,3.6991448 0 0 1 -0.89236,0.36252 4.6402693,4.2318217 0 0 1 0.81124,-0.49569 l 2.27957,-1.23551 7.53638,-4.04687 7.49582,-4.11344 2.27957,-1.23552 a 4.1616401,3.7953226 0 0 1 0.89236,-0.4143 z"
     style="fill:#3d3ab2;stroke-width:0.77471"
     id="path188" />
  <path
     d="m 477.105,235.27428 a 4.1535278,3.7879243 0 0 1 -0.81123,0.54008 c -0.51108,0.32552 -1.26553,0.78422 -2.20657,1.33909 -1.87395,1.11714 -4.49424,2.61899 -7.43092,4.20963 -2.93667,1.59063 -5.63809,2.95931 -7.60939,3.95808 -0.98159,0.48829 -1.78472,0.873 -2.34447,1.13194 a 4.6646064,4.2540165 0 0 1 -0.89236,0.36252 4.6402693,4.2318217 0 0 1 0.81124,-0.49569 l 2.27957,-1.23551 7.53638,-4.04687 7.49582,-4.11345 2.27957,-1.23551 a 4.1616401,3.7953226 0 0 1 0.89236,-0.41431 z"
     style="fill:#3d3ab2;stroke-width:0.77471"
     id="path190" />
  <path
     d="m 467.88125,151.43687 a 4.9404266,4.5055584 0 0 1 -0.81124,0.54747 c -0.53541,0.32553 -1.3142,0.79162 -2.28768,1.35389 -1.94697,1.11714 -4.65649,2.63379 -7.69052,4.23922 -3.03402,1.60543 -5.82467,3.0037 -7.85276,3.98768 -1.02216,0.48828 -1.84962,0.88039 -2.43371,1.13933 a 4.6889434,4.2762114 0 0 1 -0.91669,0.36992 4.9647636,4.5277532 0 0 1 0.81123,-0.50309 l 2.35259,-1.24291 7.78786,-4.08386 7.7473,-4.14304 2.35259,-1.24291 a 4.972876,4.5351515 0 0 1 0.94103,-0.4217 z"
     style="fill:#3d3ab2;stroke-width:0.77471"
     id="path192" />
  <path
     d="m 465.97485,136.48492 a 4.4942468,4.0986524 0 0 1 -0.81124,0.54748 c -0.53542,0.32552 -1.3142,0.78422 -2.28769,1.34649 -1.93885,1.12454 -4.64838,2.64119 -7.69051,4.24661 -3.04214,1.60543 -5.81656,3.00371 -7.85276,3.98768 -1.01405,0.48829 -1.84151,0.8804 -2.43371,1.13934 a 3.9750559,3.6251619 0 0 1 -0.9167,0.36251 4.4050109,4.0172713 0 0 1 0.81124,-0.49568 l 2.35258,-1.25031 7.78787,-4.07646 7.7473,-4.14304 2.35258,-1.25031 a 5.1270108,4.675719 0 0 1 0.94104,-0.41431 z"
     style="fill:#3d3ab2;stroke-width:0.77471"
     id="path194" />
  <path
     d="m 464.07655,121.53298 a 4.1454154,3.780526 0 0 1 -0.76256,0.51788 c -0.51108,0.31813 -1.25741,0.73983 -2.18222,1.2947 -1.84151,1.07275 -4.42124,2.51542 -7.30113,4.04687 -2.87988,1.53144 -5.54885,2.86313 -7.4877,3.79532 l -2.31202,1.08015 a 4.3563367,3.9728815 0 0 1 -0.87614,0.34772 4.8106288,4.3871857 0 0 1 0.81124,-0.48089 l 2.23901,-1.19113 7.42281,-3.8841 7.37413,-3.95068 2.24712,-1.18373 a 4.2103143,3.8397123 0 0 1 0.82746,-0.39211 z"
     style="fill:#3d3ab2;stroke-width:0.77471"
     id="path196" />
  <path
     d="m 463.75206,107.37265 a 22.966088,20.944558 0 0 1 -3.78036,2.08632 24.337077,22.194869 0 0 1 -3.98317,1.7534 22.966088,20.944558 0 0 1 3.78036,-2.08632 24.028807,21.913734 0 0 1 3.98317,-1.7534 z"
     style="fill:#3d3ab2;stroke-width:0.77471"
     id="path198" />
  <path
     d="m 415.11036,129.74508 a 8.6883364,7.9235682 0 0 1 -1.16818,0.73983 c -0.81124,0.45869 -1.90641,1.10974 -3.30985,1.90136 -2.79876,1.57584 -6.70892,3.69915 -11.05714,6.00741 -4.34823,2.30827 -8.31517,4.3428 -11.21128,5.77807 -1.444,0.73983 -2.62841,1.2947 -3.44775,1.67941 a 10.375707,9.4624124 0 0 1 -1.28987,0.55487 8.8019094,8.0271442 0 0 1 1.21685,-0.68804 l 3.37475,-1.78299 11.14638,-5.87424 11.11393,-5.91863 3.37474,-1.79039 a 9.8565161,8.9889219 0 0 1 1.25742,-0.60666 z"
     style="fill:#3d3ab2;stroke-width:0.77471"
     id="path200" />
  <path
     d="m 427.88732,107.37265 a 9.2480891,8.4340501 0 0 1 -1.17629,0.73983 c -0.81124,0.4587 -1.89829,1.10975 -3.30173,1.90136 -2.80688,1.57584 -6.71703,3.69915 -11.05715,6.00741 -4.34011,2.30827 -8.32328,4.3428 -11.21939,5.77807 -1.444,0.73983 -2.62029,1.2947 -3.43964,1.67941 a 9.4914599,8.6559988 0 0 1 -1.29798,0.55487 9.5239093,8.685592 0 0 1 1.21686,-0.68804 l 3.37474,-1.78299 11.14638,-5.87424 11.12204,-5.91863 3.37475,-1.79039 a 9.2318644,8.4192536 0 0 1 1.25741,-0.60666 z"
     style="fill:#3d3ab2;stroke-width:0.77471"
     id="path202" />
  <path
     d="m 439.45554,85.214777 a 9.2480891,8.4340501 0 0 1 -1.17629,0.739829 c -0.81123,0.458694 -1.89829,1.109743 -3.30173,1.90136 -2.80687,1.575836 -6.71703,3.699145 -11.06526,6.007411 -4.34822,2.308267 -8.31516,4.342796 -11.21128,5.778064 -1.44399,0.739829 -2.62029,1.294699 -3.43964,1.679409 a 10.067437,9.1812774 0 0 1 -1.29797,0.55487 9.5239093,8.685592 0 0 1 1.21685,-0.68804 l 3.37474,-1.782984 11.14638,-5.874242 11.12205,-5.918631 3.36663,-1.790387 a 8.9722689,8.1825083 0 0 1 1.26552,-0.606659 z"
     style="fill:#3d3ab2;stroke-width:0.77471"
     id="path204" />
  <path
     d="m 451.76199,63.722745 a 9.2480891,8.4340501 0 0 1 -1.17629,0.739829 c -0.77067,0.458694 -1.89829,1.109744 -3.30173,1.901361 -2.80688,1.575836 -6.71703,3.699145 -11.06526,6.014809 -4.34822,2.315665 -8.31516,4.335398 -11.21128,5.778064 -1.444,0.739829 -2.62029,1.287303 -3.43964,1.672014 a 9.62937,8.7817698 0 0 1 -1.29797,0.56227 7.9987859,7.2947135 0 0 1 1.21685,-0.695439 l 3.37474,-1.77559 11.14638,-5.918631 11.12205,-5.918632 3.36663,-1.790386 a 9.5401341,8.7003886 0 0 1 1.26552,-0.569669 z"
     style="fill:#3d3ab2;stroke-width:0.77471"
     id="path206" />
  <path
     d="m 497.03707,88.255474 a 3.9344941,3.5881705 0 0 1 -0.3894,0.540075 15.770426,14.382275 0 0 1 -1.25741,1.479658 25.618829,23.363799 0 0 1 -5.67865,4.483363 27.646919,25.213371 0 0 1 -10.38382,3.625162 25.391683,23.156646 0 0 1 -6.59535,0.170161 33.341795,30.40697 0 0 1 -6.91173,-1.38348 c -4.62404,-1.353887 -8.81002,-3.122078 -12.80941,-4.217025 a 27.703706,25.265159 0 0 0 -10.90301,-1.117142 15.835325,14.441461 0 0 0 -6.98475,2.152902 13.628763,12.429127 0 0 0 -1.62247,1.131939 3.6667862,3.3440269 0 0 1 -0.53541,0.421702 4.0561794,3.6991448 0 0 1 0.47863,-0.473491 11.405977,10.401995 0 0 1 1.56568,-1.205921 15.551392,14.182521 0 0 1 7.04153,-2.29347 27.500897,25.080202 0 0 1 11.08148,1.006168 c 4.05618,1.087548 8.24216,2.840943 12.81753,4.19483 a 34.015121,31.021028 0 0 0 6.83061,1.376082 25.399796,23.164045 0 0 0 6.48988,-0.155364 27.671256,25.235566 0 0 0 10.27836,-3.499391 26.908694,24.540127 0 0 0 5.67865,-4.350194 18.836897,17.178828 0 0 0 1.30609,-1.420472 5.0458872,4.6017361 0 0 1 0.50297,-0.466092 z"
     style="fill:#ffffff;stroke-width:0.77471"
     id="path208" />
  <path
     d="m 480.21204,53.490911 a 6.554786,5.977818 0 0 1 -0.93293,0.673244 c -0.61653,0.421703 -1.54134,0.976575 -2.71764,1.620226 a 43.806738,39.950764 0 0 1 -4.2671,2.049326 50.994288,46.505648 0 0 1 -5.5164,1.930954 50.296625,45.869396 0 0 1 -5.74355,1.279904 46.402693,42.318217 0 0 1 -4.78629,0.532676 c -1.37099,0.08138 -2.48238,0.09618 -3.24495,0.07398 a 5.7922243,5.2823788 0 0 1 -1.19251,-0.06658 6.3357523,5.7780642 0 0 1 1.1844,-0.08138 c 0.76256,0 1.86584,-0.08878 3.24495,-0.199754 1.3791,-0.110975 2.96912,-0.310728 4.73761,-0.60666 a 57.597748,52.527856 0 0 0 5.67865,-1.294701 54.855771,50.027234 0 0 0 5.48396,-1.893962 c 1.62247,-0.673244 3.09081,-1.33909 4.27521,-1.960547 1.18441,-0.621456 2.13355,-1.131938 2.77443,-1.479657 a 6.9036174,6.2959444 0 0 1 1.02216,-0.577067 z"
     style="fill:#ffffff;stroke-width:0.77471"
     id="path210" />
  <path
     d="m 435.86177,142.226 a 6.1004939,5.5635138 0 0 1 -0.81124,-0.65105 l -2.22278,-1.81258 a 91.004442,82.994013 0 0 0 -7.72297,-5.54132 24.758919,22.57958 0 0 0 -4.68083,-2.41185 12.866201,11.733687 0 0 0 -4.23465,-0.89519 11.51955,10.505571 0 0 0 -3.98317,0.48829 c 0,0 0.0811,-0.0592 0.25148,-0.13317 a 5.2730333,4.8088882 0 0 1 0.76257,-0.26634 9.0533925,8.2564912 0 0 1 2.98534,-0.36252 12.639055,11.526535 0 0 1 4.36445,0.84341 23.615077,21.536421 0 0 1 4.77007,2.41924 71.388758,65.104948 0 0 1 7.69052,5.65969 c 0.92481,0.78422 1.62247,1.47966 2.13355,1.90876 a 4.770067,4.3501943 0 0 1 0.69766,0.75463 z"
     style="fill:#ffffff;stroke-width:0.77471"
     id="path212" />
  <path
     d="m 503.37282,156.0608 c 0,0 -0.0811,0.0962 -0.27582,0.25894 -0.1947,0.16276 -0.47052,0.4069 -0.86802,0.68064 a 22.852515,20.840982 0 0 1 -3.51265,2.12331 24.86438,22.675758 0 0 1 -26.42196,-1.47966 22.714605,20.715211 0 0 1 -3.19627,-2.49322 c -0.35694,-0.31813 -0.60031,-0.59186 -0.81123,-0.73983 a 1.3872134,1.2651075 0 0 1 -0.24337,-0.29593 c 0,0 0.40562,0.34032 1.12762,0.96178 a 26.86002,24.495737 0 0 0 3.24494,2.37485 25.253773,23.030876 0 0 0 26.10557,1.47965 27.022267,24.643703 0 0 0 3.55321,-1.99753 14.3751,13.109769 0 0 1 1.29798,-0.873 z"
     style="fill:#ffffff;stroke-width:0.77471"
     id="path214" />
  <path
     d="m 534.00509,199.39998 a 3.6505615,3.3292303 0 0 1 -0.30827,-0.28853 c -0.1947,-0.21456 -0.45429,-0.52528 -0.81124,-0.92479 a 31.857233,29.053083 0 0 0 -3.32607,-3.35882 l -1.28175,-1.03577 -0.68144,-0.55487 -0.81123,-0.52528 -1.62247,-1.10974 -1.89018,-1.05795 a 38.274109,34.90513 0 0 0 -9.55636,-3.63996 36.708424,33.47726 0 0 0 -12.4687,-1.02097 33.925885,30.939647 0 0 0 -13.67743,3.86931 c -4.43747,2.29347 -8.57477,5.42295 -12.97978,8.50803 a 68.882039,62.818877 0 0 1 -7.00908,4.38719 31.119009,28.379839 0 0 1 -8.11236,3.09988 27.736155,25.294752 0 0 1 -8.73701,0.64365 39.020446,35.585773 0 0 1 -8.36384,-1.47966 83.557297,76.202383 0 0 1 -14.75638,-5.76326 c -4.54292,-2.14551 -8.83436,-4.21703 -13.03656,-5.77807 a 43.685053,39.839789 0 0 0 -12.16854,-2.95931 29.618222,27.011155 0 0 0 -10.30269,0.73983 21.968268,20.034568 0 0 0 -7.10643,2.91492 19.591347,17.866869 0 0 0 -3.65056,3.0481 l -0.77068,0.94698 c -0.17847,0.21455 -0.27582,0.31812 -0.27582,0.31812 0,0 0.073,-0.11837 0.23526,-0.34032 l 0.74634,-0.96917 a 18.342043,16.727533 0 0 1 3.61811,-3.12208 21.643774,19.738637 0 0 1 7.14699,-3.00371 29.618222,27.011155 0 0 1 10.39193,-0.77682 43.806738,39.950764 0 0 1 12.22533,2.95932 c 4.23465,1.55364 8.54231,3.62516 13.08523,5.75587 a 84.368533,76.942212 0 0 0 14.69148,5.72627 38.939323,35.51179 0 0 0 8.27461,1.42787 27.103391,24.717686 0 0 0 8.60721,-0.63625 30.770177,28.061712 0 0 0 7.97445,-3.05549 67.243343,61.324422 0 0 0 6.96852,-4.35759 c 4.41312,-3.0703 8.57476,-6.20717 13.05278,-8.51544 a 30.908087,28.187483 0 0 1 3.42342,-1.51665 c 0.57598,-0.22194 1.13573,-0.45869 1.71982,-0.65105 l 1.75227,-0.50308 a 35.110289,32.019797 0 0 1 6.94418,-1.20592 37.024806,33.765794 0 0 1 12.59038,1.05056 38.274109,34.90513 0 0 1 9.60503,3.69914 l 1.89018,1.07275 1.62247,1.13934 0.81124,0.52528 0.68144,0.56967 1.27364,1.05055 a 30.559256,27.869357 0 0 1 3.24494,3.41801 c 0.32449,0.41431 0.58409,0.73983 0.76256,0.95438 z"
     style="fill:#ffffff;stroke-width:0.77471"
     id="path216" />
  <path
     d="m 514.48675,233.14358 a 2.1659998,1.9753433 0 0 1 -0.38939,0.14796 l -1.15196,0.36252 a 19.218178,17.526548 0 0 1 -1.84961,0.49568 c -0.73823,0.16277 -1.55758,0.38472 -2.49861,0.52528 l -1.46023,0.25155 c -0.51107,0.0814 -1.04649,0.12577 -1.62247,0.19235 -1.10328,0.14797 -2.29579,0.19975 -3.55321,0.27374 a 50.028917,45.625252 0 0 1 -8.11236,-0.37732 48.406446,44.145594 0 0 1 -7.93389,-1.7312 c -1.1844,-0.38471 -2.31202,-0.73982 -3.32606,-1.16892 -0.51108,-0.20716 -1.01405,-0.38472 -1.47645,-0.59187 l -1.32232,-0.61406 c -0.85991,-0.37731 -1.58191,-0.79901 -2.2309,-1.14673 a 18.12301,16.527779 0 0 1 -1.62247,-0.94698 l -0.99782,-0.64365 a 1.6873707,1.5388442 0 0 1 -0.3326,-0.24415 1.5413482,1.405675 0 0 1 0.38128,0.17756 l 1.03838,0.58447 c 0.43807,0.25894 0.98971,0.56967 1.62247,0.88779 0.63276,0.31813 1.3791,0.73983 2.23901,1.08755 l 1.33043,0.58447 c 0.4624,0.20715 0.96537,0.37731 1.47645,0.57706 1.01404,0.40691 2.13355,0.73983 3.30984,1.12454 a 50.410198,45.972972 0 0 0 7.942,1.67202 51.107861,46.609224 0 0 0 8.0718,0.4069 c 1.24119,-0.0666 2.4337,-0.0962 3.52076,-0.23674 0.54353,-0.0592 1.07894,-0.0962 1.62247,-0.17016 l 1.46023,-0.22195 c 0.93292,-0.11838 1.75227,-0.32553 2.49049,-0.4661 0.73823,-0.14056 1.35476,-0.29593 1.85773,-0.43649 l 1.17629,-0.28854 a 1.6224718,1.4796579 0 0 1 0.34072,-0.0666 z"
     style="fill:#ffffff;stroke-width:0.77471"
     id="path218" />
  <g
     id="freepik--Plants--inject-40"
     transform="matrix(0.81123589,0,0,0.73982896,-26.867182,-39.11348)">
    <path
       d="m 618.91,434 a 12.68,12.68 0 0 1 20.59,-3.57 16.46,16.46 0 0 1 -9.21,7.08 10,10 0 0 1 -11.38,-3.51"
       style="fill:#3d3ab2"
       id="path301" />
    <path
       d="m 611.81,435.64 a 12.85,12.85 0 0 1 2.87,-0.9 c 1.81,-0.44 4.33,-0.93 7.12,-1.39 2.79,-0.46 5.33,-0.81 7.18,-1 a 17.08,17.08 0 0 1 3,-0.23 17.8,17.8 0 0 1 -2.94,0.6 l -7.15,1.17 c -2.78,0.46 -5.3,0.9 -7.12,1.24 a 26.52,26.52 0 0 1 -2.96,0.51 z"
       style="fill:#263238"
       id="path303" />
    <path
       d="m 261.48,370.69 a 16.66,16.66 0 0 1 -3,27.69 c -3.67,-9.41 -5.08,-19.54 3,-27.69"
       style="fill:#3d3ab2"
       id="path305" />
    <path
       d="M 275.39,377.91 A 21.55,21.55 0 0 0 306.54,396 c -7,-11 -16.47,-20.27 -31.15,-18.11"
       style="fill:#3d3ab2"
       id="path307" />
    <path
       d="m 243.52,343.13 a 2.82,2.82 0 0 1 0.47,0.5 l 1.25,1.49 c 1.06,1.31 2.61,3.2 4.57,5.49 3.9,4.6 9.41,10.86 15.9,17.39 3.25,3.26 6.44,6.27 9.4,8.93 2.96,2.66 5.76,4.93 8.16,6.75 a 62.15,62.15 0 0 0 5.89,4 c 1.45,0.86 2.31,1.22 2.29,1.27 a 2.55,2.55 0 0 1 -0.64,-0.24 15.27,15.27 0 0 1 -1.75,-0.85 53.25,53.25 0 0 1 -6,-3.89 c -2.44,-1.8 -5.24,-4.07 -8.25,-6.69 -3.01,-2.62 -6.2,-5.66 -9.46,-8.92 -6.5,-6.54 -12,-12.85 -15.81,-17.52 -1.93,-2.33 -3.43,-4.26 -4.45,-5.6 l -1.18,-1.56 a 3.62,3.62 0 0 1 -0.39,-0.55 z"
       style="fill:#263238"
       id="path309" />
    <path
       d="m 260.71,384.91 c -0.09,0 0.24,-1.4 0.53,-3.67 a 39.12,39.12 0 0 0 -1.84,-17.62 c -0.75,-2.16 -1.36,-3.45 -1.28,-3.49 a 3.73,3.73 0 0 1 0.51,0.86 25.87,25.87 0 0 1 1.12,2.5 34.8,34.8 0 0 1 2.1,8.78 34.41,34.41 0 0 1 -0.25,9 24.68,24.68 0 0 1 -0.6,2.73 4.12,4.12 0 0 1 -0.29,0.91 z"
       style="fill:#263238"
       id="path311" />
    <path
       d="m 702,182.54 a 12.67,12.67 0 0 1 6.62,-19.81 16.42,16.42 0 0 1 1.87,11.45 10,10 0 0 1 -8.49,8.36"
       style="fill:#3d3ab2"
       id="path313" />
    <path
       d="m 700.1,189.57 a 12.44,12.44 0 0 1 0.57,-2.95 c 0.47,-1.8 1.23,-4.25 2.15,-6.93 0.92,-2.68 1.82,-5.08 2.5,-6.81 a 16.15,16.15 0 0 1 1.22,-2.75 18.11,18.11 0 0 1 -0.87,2.88 c -0.66,1.91 -1.47,4.25 -2.36,6.85 -0.89,2.6 -1.73,5.1 -2.29,6.86 a 29.24,29.24 0 0 1 -0.92,2.85 z"
       style="fill:#263238"
       id="path315" />
    <path
       d="m 658,256.94 a 24.5,24.5 0 0 1 26.21,-30.74 c 1.39,7.56 -1,15.32 -4.95,21.89 -4.71,7.75 -14.07,11 -21.26,8.85"
       style="fill:#3d3ab2"
       id="path317" />
    <path
       d="m 628.41,286.54 a 3.49,3.49 0 0 1 0.43,-0.54 l 1.29,-1.47 c 1.15,-1.26 2.83,-3.06 4.92,-5.26 4.2,-4.4 10.06,-10.41 16.58,-17 6.52,-6.59 12.45,-12.54 16.77,-16.81 l 5.14,-5.05 1.42,-1.35 c 0.32,-0.3 0.5,-0.46 0.52,-0.44 a 3.68,3.68 0 0 1 -0.45,0.52 l -1.35,1.42 -5,5.15 -16.68,16.92 -16.68,16.9 -5,5.14 -1.36,1.4 a 3.14,3.14 0 0 1 -0.55,0.47 z"
       style="fill:#263238"
       id="path319" />
    <g
       style="opacity:0.3"
       id="g323">
      <path
         d="m 658,256.94 a 24.5,24.5 0 0 1 26.21,-30.74 c 1.39,7.56 -1,15.32 -4.95,21.89 -4.71,7.75 -14.07,11 -21.26,8.85"
         id="path321" />
    </g>
    <path
       d="m 644.29,259.91 a 15,15 0 0 1 -3.13,-24.6 c 4,2.5 6.56,6.77 7.89,11.29 1.58,5.34 -0.8,11 -4.76,13.31"
       style="fill:#3d3ab2"
       id="path325" />
    <g
       style="opacity:0.3"
       id="g329">
      <path
         d="m 644.29,259.91 a 15,15 0 0 1 -3.13,-24.6 c 4,2.5 6.56,6.77 7.89,11.29 1.58,5.34 -0.8,11 -4.76,13.31"
         id="path327" />
    </g>
    <path
       d="m 645.85,268.43 a 3.9,3.9 0 0 1 -0.3,-0.92 c -0.17,-0.59 -0.36,-1.46 -0.57,-2.55 -0.42,-2.16 -0.86,-5.18 -1.26,-8.51 -0.4,-3.33 -0.68,-6.37 -0.85,-8.57 a 21.67,21.67 0 0 1 -0.14,-3.56 26.35,26.35 0 0 1 0.51,3.53 c 0.27,2.32 0.62,5.27 1,8.54 0.38,3.27 0.78,6.34 1.1,8.51 0.32,2.17 0.59,3.51 0.51,3.53 z"
       style="fill:#263238"
       id="path331" />
    <path
       d="m 457,375.81 a 23.67,23.67 0 0 1 39,-7.08 c -11.34,8.79 -24.57,14.79 -38.92,7.08"
       style="fill:#3d3ab2"
       id="path333" />
    <g
       style="opacity:0.3"
       id="g337">
      <path
         d="m 457,375.81 a 23.67,23.67 0 0 1 39,-7.08 c -11.34,8.79 -24.57,14.79 -38.92,7.08"
         id="path335" />
    </g>
    <path
       d="m 450.63,379.33 a 4.61,4.61 0 0 1 0.9,-0.7 c 0.6,-0.43 1.49,-1 2.63,-1.66 a 50,50 0 0 1 19.35,-6.39 c 1.3,-0.14 2.36,-0.21 3.09,-0.22 a 4.19,4.19 0 0 1 1.14,0 c 0,0.08 -1.61,0.18 -4.19,0.56 a 59.76,59.76 0 0 0 -9.89,2.32 59,59 0 0 0 -9.32,4 c -2.34,1.28 -3.66,2.16 -3.71,2.09 z"
       style="fill:#263238"
       id="path339" />
    <path
       d="m 193.43,245.51 a 18.28,18.28 0 0 1 26,16.05 c -11.05,-0.82 -21.74,-4.21 -26,-16.05"
       style="fill:#3d3ab2"
       id="path341" />
    <g
       style="opacity:0.3"
       id="g345">
      <path
         d="m 193.43,245.51 a 18.28,18.28 0 0 1 26,16.05 c -11.05,-0.82 -21.74,-4.21 -26,-16.05"
         id="path343" />
    </g>
    <path
       d="m 187.94,244.22 a 2.71,2.71 0 0 1 0.88,0 23.1,23.1 0 0 1 2.37,0.38 38.29,38.29 0 0 1 7.54,2.41 38.85,38.85 0 0 1 6.88,3.93 c 0.82,0.6 1.46,1.11 1.88,1.49 a 3.38,3.38 0 0 1 0.63,0.62 c -0.06,0.07 -1,-0.7 -2.72,-1.8 A 45.84,45.84 0 0 0 191.11,245 c -1.95,-0.49 -3.18,-0.7 -3.17,-0.78 z"
       style="fill:#263238"
       id="path347" />
    <path
       d="m 551.76,363.56 a 16.35,16.35 0 0 1 20.88,-17.64 c -3.77,9.17 -9.63,17.32 -20.88,17.64"
       style="fill:#3d3ab2"
       id="path349" />
    <path
       d="m 549.13,367.87 a 11.91,11.91 0 0 1 1.25,-2.66 33.64,33.64 0 0 1 9.41,-10.5 12,12 0 0 1 2.51,-1.53 27.35,27.35 0 0 1 -2.3,1.82 41.48,41.48 0 0 0 -9.32,10.39 25.49,25.49 0 0 1 -1.55,2.48 z"
       style="fill:#263238"
       id="path351" />
    <path
       d="m 630.45,311.61 a 16.35,16.35 0 0 1 17.19,-21.25 c -2,9.72 -6.2,18.82 -17.19,21.25"
       style="fill:#3d3ab2"
       id="path353" />
    <g
       style="opacity:0.3"
       id="g357">
      <path
         d="m 630.45,311.61 a 16.35,16.35 0 0 1 17.19,-21.25 c -2,9.72 -6.2,18.82 -17.19,21.25"
         id="path355" />
    </g>
    <path
       d="m 628.68,316.34 a 11.52,11.52 0 0 1 0.73,-2.84 32.9,32.9 0 0 1 3,-6.43 32.56,32.56 0 0 1 4.28,-5.65 12,12 0 0 1 2.17,-2 27.62,27.62 0 0 1 -1.9,2.22 43.68,43.68 0 0 0 -4.11,5.68 44.51,44.51 0 0 0 -3.09,6.28 25.56,25.56 0 0 1 -1.08,2.74 z"
       style="fill:#263238"
       id="path359" />
    <path
       d="m 37.28,240.1 a 16.35,16.35 0 0 1 25.56,-9.69 C 56.24,237.8 48,243.54 37.28,240.1"
       style="fill:#3d3ab2"
       id="path361" />
    <path
       d="m 33.37,243.29 a 12.4,12.4 0 0 1 2.06,-2.09 33.38,33.38 0 0 1 5.82,-4 32.68,32.68 0 0 1 6.55,-2.73 11.37,11.37 0 0 1 2.87,-0.61 27,27 0 0 1 -2.76,1 41.18,41.18 0 0 0 -12.24,6.7 24.42,24.42 0 0 1 -2.3,1.73 z"
       style="fill:#263238"
       id="path363" />
  </g>
</svg>
