<?xml version="1.0" encoding="UTF-8" standalone="no"?>
<svg
   viewBox="0 0 500 400"
   version="1.1"
   id="svg278"
   sodipodi:docname="404 Error - ar.svg"
   inkscape:version="1.1.1 (3bf5ae0d25, 2021-09-20)"
   width="500"
   height="400"
   xmlns:inkscape="http://www.inkscape.org/namespaces/inkscape"
   xmlns:sodipodi="http://sodipodi.sourceforge.net/DTD/sodipodi-0.dtd"
   xmlns="http://www.w3.org/2000/svg"
   xmlns:svg="http://www.w3.org/2000/svg">
  <defs
     id="defs282" />
  <sodipodi:namedview
     id="namedview280"
     pagecolor="#505050"
     bordercolor="#eeeeee"
     borderopacity="1"
     inkscape:pageshadow="0"
     inkscape:pageopacity="0"
     inkscape:pagecheckerboard="0"
     showgrid="false"
     showguides="false"
     inkscape:zoom="1.564"
     inkscape:cx="438.93862"
     inkscape:cy="252.55754"
     inkscape:window-width="1920"
     inkscape:window-height="986"
     inkscape:window-x="-11"
     inkscape:window-y="-11"
     inkscape:window-maximized="1"
     inkscape:current-layer="svg278" />
  <g
     id="g1080"
     transform="matrix(1.0425708,0,0,0.84139736,-10.666529,-11.881248)">
    <g
       id="freepik--Floor--inject-15">
      <ellipse
         id="freepik--floor--inject-15"
         cx="250.56"
         cy="365.12"
         rx="240.31"
         ry="124.36"
         style="fill:#f5f5f5" />
    </g>
    <g
       id="freepik--Clouds--inject-15">
      <g
         id="freepik--clouds--inject-15">
        <path
           d="m 106.08,45.13 -9.18,5.3 c 0,-0.41 0.08,-0.81 0.08,-1.21 v -2.66 c 0,-4.73 -3.33,-6.65 -7.42,-4.28 a 14.14,14.14 0 0 0 -4.42,4.25 c -0.68,-6 -5.34,-8.17 -11,-4.89 C 68,45.17 63,53.78 63,60.86 v 4 a 10.5,10.5 0 0 0 1,4.59 l -7.63,4.4 A 9.09,9.09 0 0 0 52.23,81 c 0,2.62 1.84,3.68 4.11,2.37 l 49.74,-28.71 a 9.11,9.11 0 0 0 4.11,-7.13 c 0,-2.64 -1.84,-3.71 -4.11,-2.4 z"
           style="fill:#ebebeb"
           id="path4" />
        <path
           d="m 150.24,65 -6.93,4 a 7.22,7.22 0 0 0 0.06,-0.92 v -2 c 0,-3.57 -2.5,-5 -5.6,-3.23 a 10.78,10.78 0 0 0 -3.33,3.21 c -0.51,-4.49 -4,-6.16 -8.31,-3.69 -4.63,2.67 -8.38,9.16 -8.38,14.51 v 3 a 8,8 0 0 0 0.71,3.48 l -5.75,3.32 a 6.86,6.86 0 0 0 -3.11,5.38 c 0,2 1.39,2.78 3.11,1.79 l 37.53,-21.67 a 6.86,6.86 0 0 0 3.11,-5.38 c 0,-1.97 -1.35,-2.8 -3.11,-1.8 z"
           style="fill:#ebebeb"
           id="path6" />
      </g>
    </g>
    <g
       id="freepik--Plant--inject-15">
      <g
         id="freepik--Plants--inject-15">
        <path
           d="m 416.43,402.36 c -0.39,-19.29 7.18,-36.72 13.66,-45.3 6.48,-8.58 17.35,-17 24.91,-14.6 7,2.2 6.53,11.37 -1.77,17.67 -8.3,6.3 -20.81,14.26 -24.23,24.87 l -8.38,19.48 z"
           style="fill:#afb23a"
           id="path10" />
        <path
           d="m 416.43,402.36 c -0.39,-19.29 7.18,-36.72 13.66,-45.3 6.48,-8.58 17.35,-17 24.91,-14.6 7,2.2 6.53,11.37 -1.77,17.67 -8.3,6.3 -20.81,14.26 -24.23,24.87 l -8.38,19.48 z"
           style="opacity:0.15"
           id="path12" />
        <path
           d="m 418.73,400.52 a 0.48,0.48 0 0 0 0.41,-0.4 c 1.8,-10.68 5.38,-23 11.46,-32.72 6.54,-10.44 16,-16.85 21.54,-19.06 a 0.47,0.47 0 0 0 0.26,-0.61 0.47,0.47 0 0 0 -0.62,-0.26 c -5.63,2.26 -15.37,8.91 -22.07,19.63 -6.11,9.76 -9.69,22.13 -11.5,32.87 a 0.47,0.47 0 0 0 0.39,0.54 z"
           style="fill:#ffffff"
           id="path14" />
        <path
           d="m 423.4,406.55 c 0.94,-3.66 5.22,-9.78 12.26,-14.93 7.79,-5.69 17.77,-8.48 20,-12.81 2.65,-5.2 -1.8,-9.92 -9.93,-8.69 -8.13,1.23 -23.36,12.95 -26.49,34 z"
           style="fill:#afb23a"
           id="path16" />
        <path
           d="m 421.72,402.78 a 0.47,0.47 0 0 0 0.4,-0.32 c 6.25,-19.09 20.49,-26.12 27.15,-27.17 a 0.47100955,0.47100955 0 1 0 -0.15,-0.93 c -7.36,1.16 -21.52,8.32 -27.9,27.8 a 0.48,0.48 0 0 0 0.3,0.6 0.47,0.47 0 0 0 0.2,0.02 z"
           style="fill:#ffffff"
           id="path18" />
      </g>
    </g>
    <g
       id="freepik--Device--inject-15">
      <g
         id="freepik--Plug--inject-15">
        <path
           d="m 144.38,434.11 a 1.53,1.53 0 0 1 -0.75,-0.2 l -20.31,-11.73 c -5.67,-3.27 -8.79,-7.78 -8.79,-12.7 0,-5.34 3.6,-10.35 10.13,-14.12 l 5.44,-3.15 c 12.35,-7.13 32.45,-7.13 44.8,0 l 21.69,12.53 c 11.53,6.65 30.28,6.65 41.81,0 l 74.49,-43 c 5.3,-3.06 8.22,-7 8.22,-11.21 0,-4.21 -2.92,-8.14 -8.22,-11.2 l -5.44,-3.14 c -11.53,-6.65 -29.68,-7 -40.46,-0.77 l -20.31,11.72 a 1.5008331,1.5008331 0 0 1 -1.5,-2.6 l 20.31,-11.72 c 11.61,-6.71 31.11,-6.36 43.46,0.77 l 5.44,3.15 c 6.27,3.61 9.72,8.51 9.72,13.79 0,5.28 -3.45,10.19 -9.72,13.8 l -74.49,43 c -12.36,7.14 -32.45,7.14 -44.81,0 L 173.4,394.81 c -11.52,-6.65 -30.27,-6.65 -41.8,0 l -5.44,3.19 c -5.48,3.17 -8.63,7.37 -8.63,11.53 0,3.8 2.59,7.39 7.29,10.1 l 20.31,11.73 a 1.5,1.5 0 0 1 -0.75,2.8 z"
           style="fill:#37474f"
           id="path22" />
        <path
           d="m 131.76,437.36 v 1.73 a 9.59,9.59 0 0 0 4.33,7.5 l 16,9.22 16.24,-9.38 v -14.07 l -15.78,-7.28 a 10.81,10.81 0 0 0 -8.87,0.4 l -7.59,4.38 a 9.58,9.58 0 0 0 -4.33,7.5 z"
           style="fill:#37474f"
           id="path24" />
        <path
           d="m 152.55,425.08 a 10.81,10.81 0 0 0 -8.87,0.4 l -7.59,4.38 c -2.39,1.38 -2.29,3.44 0.21,4.6 l 15.77,7.28 16.26,-9.38 z"
           style="fill:#455a64"
           id="path26" />
        <path
           d="m 150.54,438.35 a 4.78,4.78 0 0 0 -2.16,3.75 v 11.58 l 3.7,2.13 16.24,-9.38 v -14.07 l -4.12,-1.9 z"
           style="opacity:0.1"
           id="path28" />
        <path
           d="m 169.71,429.94 a 1.53,1.53 0 0 0 -1.52,0.15 l -16,9.23 a 4.78,4.78 0 0 0 -2.17,3.75 v 13.76 a 1.51,1.51 0 0 0 0.64,1.4 l 2,1.17 a 1.5,1.5 0 0 0 1.53,-0.15 l 16,-9.22 a 4.8,4.8 0 0 0 2.16,-3.75 v -13.77 a 1.54,1.54 0 0 0 -0.63,-1.4 z"
           style="fill:#37474f"
           id="path30" />
        <path
           d="m 154.24,440.49 16,-9.23 c 1.19,-0.69 2.16,-0.13 2.16,1.25 v 13.77 a 4.8,4.8 0 0 1 -2.16,3.75 l -16,9.22 c -1.2,0.69 -2.17,0.13 -2.17,-1.25 v -13.76 a 4.78,4.78 0 0 1 2.17,-3.75 z"
           style="fill:#455a64"
           id="path32" />
        <path
           d="m 170.79,450.89 -13.22,-7.63 -1.43,0.83 v 9.38 l 13.21,7.63 a 2.14,2.14 0 0 0 2.15,0.2 l 1.44,-0.83 a 2.1,2.1 0 0 0 0.88,-2 v -2.38 a 6.69,6.69 0 0 0 -3.03,-5.2 z m -2.43,2.51 a 4.47,4.47 0 0 1 2,3.51 2.38,2.38 0 0 1 -0.07,0.56 2.46,2.46 0 0 1 -0.52,-0.21 4.51,4.51 0 0 1 -2,-3.52 2.47,2.47 0 0 1 0.07,-0.57 2.13,2.13 0 0 1 0.52,0.23 z"
           style="fill:#afb23a"
           id="path34" />
        <path
           d="m 170.79,450.89 -13.22,-7.63 -1.43,0.83 13.21,7.63 a 6.69,6.69 0 0 1 3,5.25 v 2.38 a 2.09,2.09 0 0 1 -0.95,2 h 0.07 l 1.44,-0.84 a 2.09,2.09 0 0 0 0.88,-2 v -2.38 a 6.72,6.72 0 0 0 -3,-5.24 z"
           style="opacity:0.85;fill:#ffffff"
           id="path36" />
        <path
           d="m 173.82,456.14 v 2.38 a 2.09,2.09 0 0 1 -0.88,2 l -1.44,0.84 h -0.06 a 2.09,2.09 0 0 0 0.94,-2 V 457 a 6.21,6.21 0 0 0 -0.89,-3 l 1.44,-0.83 a 6.18,6.18 0 0 1 0.89,2.97 z"
           style="fill:#afb23a"
           id="path38" />
        <path
           d="m 173.82,456.14 v 2.38 a 2.09,2.09 0 0 1 -0.88,2 l -1.44,0.84 h -0.06 a 2.09,2.09 0 0 0 0.94,-2 V 457 a 6.21,6.21 0 0 0 -0.89,-3 l 1.44,-0.83 a 6.18,6.18 0 0 1 0.89,2.97 z"
           style="opacity:0.6;fill:#ffffff"
           id="path40" />
        <path
           d="m 173.82,456.14 v 2.38 a 2.09,2.09 0 0 1 -0.88,2 l -1.44,0.84 h -0.06 a 2.09,2.09 0 0 0 0.94,-2 V 457 a 6.21,6.21 0 0 0 -0.89,-3 l 1.44,-0.83 a 6.18,6.18 0 0 1 0.89,2.97 z"
           style="opacity:0.05"
           id="path42" />
        <path
           d="m 167.77,453.74 a 2.4,2.4 0 0 1 0.07,-0.57 v 0 c -0.87,-0.24 -1.51,0.31 -1.51,1.4 a 4.49,4.49 0 0 0 2,3.52 c 0.94,0.55 1.74,0.26 2,-0.62 a 1.72,1.72 0 0 1 -0.52,-0.21 4.49,4.49 0 0 1 -2.04,-3.52 z"
           style="opacity:0.6;fill:#ffffff"
           id="path44" />
        <path
           d="m 167.77,453.74 a 2.4,2.4 0 0 1 0.07,-0.57 v 0 c -0.87,-0.24 -1.51,0.31 -1.51,1.4 a 4.49,4.49 0 0 0 2,3.52 c 0.94,0.55 1.74,0.26 2,-0.62 a 1.72,1.72 0 0 1 -0.52,-0.21 4.49,4.49 0 0 1 -2.04,-3.52 z"
           style="opacity:0.1"
           id="path46" />
        <path
           d="m 169.35,451.72 -13.21,-7.63 v 9.38 l 13.21,7.63 c 1.68,1 3,0.18 3,-1.75 V 457 a 6.66,6.66 0 0 0 -3,-5.28 z m -1,6.37 a 4.51,4.51 0 0 1 -2,-3.52 c 0,-1.3 0.91,-1.82 2,-1.17 a 4.47,4.47 0 0 1 2,3.51 c 0.04,1.3 -0.87,1.82 -1.99,1.18 z"
           style="opacity:0.7;fill:#ffffff"
           id="path48" />
        <path
           d="m 181.54,444.68 -13.21,-7.63 -1.44,0.83 v 9.38 l 13.21,7.63 a 2.12,2.12 0 0 0 2.15,0.21 l 1.44,-0.84 a 2.09,2.09 0 0 0 0.88,-1.95 v -2.38 a 6.69,6.69 0 0 0 -3.03,-5.25 z m -2.43,2.51 a 4.47,4.47 0 0 1 2,3.52 2.23,2.23 0 0 1 -0.07,0.55 1.72,1.72 0 0 1 -0.52,-0.21 4.49,4.49 0 0 1 -2,-3.52 2.31,2.31 0 0 1 0.07,-0.56 2.07,2.07 0 0 1 0.52,0.22 z"
           style="fill:#afb23a"
           id="path50" />
        <path
           d="m 181.54,444.68 -13.22,-7.63 -1.43,0.83 13.21,7.63 a 6.69,6.69 0 0 1 3,5.25 v 2.38 a 2.09,2.09 0 0 1 -0.95,2 h 0.07 l 1.44,-0.84 a 2.09,2.09 0 0 0 0.88,-1.95 v -2.38 a 6.72,6.72 0 0 0 -3,-5.29 z"
           style="opacity:0.85;fill:#ffffff"
           id="path52" />
        <path
           d="m 184.57,449.93 v 2.38 a 2.09,2.09 0 0 1 -0.88,1.95 l -1.44,0.84 h -0.06 a 2.09,2.09 0 0 0 0.94,-2 v -2.38 a 6.21,6.21 0 0 0 -0.89,-3 l 1.44,-0.83 a 6.18,6.18 0 0 1 0.89,3.04 z"
           style="fill:#afb23a"
           id="path54" />
        <path
           d="m 184.57,449.93 v 2.38 a 2.09,2.09 0 0 1 -0.88,1.95 l -1.44,0.84 h -0.06 a 2.09,2.09 0 0 0 0.94,-2 v -2.38 a 6.21,6.21 0 0 0 -0.89,-3 l 1.44,-0.83 a 6.18,6.18 0 0 1 0.89,3.04 z"
           style="opacity:0.6;fill:#ffffff"
           id="path56" />
        <path
           d="m 184.57,449.93 v 2.38 a 2.09,2.09 0 0 1 -0.88,1.95 l -1.44,0.84 h -0.06 a 2.09,2.09 0 0 0 0.94,-2 v -2.38 a 6.21,6.21 0 0 0 -0.89,-3 l 1.44,-0.83 a 6.18,6.18 0 0 1 0.89,3.04 z"
           style="opacity:0.05"
           id="path58" />
        <path
           d="m 178.52,447.53 a 2.31,2.31 0 0 1 0.07,-0.56 v 0 c -0.86,-0.24 -1.51,0.3 -1.51,1.39 a 4.49,4.49 0 0 0 2,3.52 c 0.94,0.55 1.74,0.26 2,-0.62 a 1.72,1.72 0 0 1 -0.52,-0.21 4.49,4.49 0 0 1 -2.04,-3.52 z"
           style="opacity:0.6;fill:#ffffff"
           id="path60" />
        <path
           d="m 178.52,447.53 a 2.31,2.31 0 0 1 0.07,-0.56 v 0 c -0.86,-0.24 -1.51,0.3 -1.51,1.39 a 4.49,4.49 0 0 0 2,3.52 c 0.94,0.55 1.74,0.26 2,-0.62 a 1.72,1.72 0 0 1 -0.52,-0.21 4.49,4.49 0 0 1 -2.04,-3.52 z"
           style="opacity:0.1"
           id="path62" />
        <path
           d="m 180.11,445.51 -13.22,-7.63 v 9.38 l 13.21,7.63 c 1.68,1 3,0.19 3,-1.75 v -2.38 a 6.72,6.72 0 0 0 -2.99,-5.25 z m -1,6.37 a 4.49,4.49 0 0 1 -2,-3.52 c 0,-1.29 0.91,-1.82 2,-1.17 a 4.47,4.47 0 0 1 2,3.52 c 0.03,1.29 -0.88,1.82 -2,1.17 z"
           style="opacity:0.7;fill:#ffffff"
           id="path64" />
      </g>
      <g
         id="freepik--device--inject-15">
        <path
           d="m 227.05,392.14 37.6,-21.75 c 3.88,-2.23 5.82,-5.17 5.82,-8.1 0,-2.93 0,-5.23 0,-5.23 l -39,-22 a 8.29,8.29 0 0 1 -3.75,-6.49 v -46.36 l -65.68,38 v 46.37 a 8.25,8.25 0 0 0 3.74,6.48 L 199,392.14 c 7.73,4.47 20.3,4.47 28.05,0 z"
           style="fill:#afb23a"
           id="path67" />
        <g
           style="opacity:0.6"
           id="g71">
          <path
             d="m 227.05,392.14 37.6,-21.75 c 3.88,-2.23 5.82,-5.17 5.82,-8.1 0,-2.93 0,-5.23 0,-5.23 l -39,-22 a 8.29,8.29 0 0 1 -3.75,-6.49 v -46.36 l -65.68,38 v 46.37 a 8.25,8.25 0 0 0 3.74,6.48 L 199,392.14 c 7.73,4.47 20.3,4.47 28.05,0 z"
             id="path69" />
        </g>
        <path
           d="M 177.81,374.74 V 380 l -12,-6.94 a 8.3,8.3 0 0 1 -3.74,-6.48 V 320.17 L 174.55,313 c 0.25,3.17 0.54,6.46 0.8,9.66 l -8.78,5.08 v 36.22 a 8.19,8.19 0 0 0 3.74,6.48 z"
           style="opacity:0.3"
           id="path73" />
        <path
           d="m 166.57,363.92 a 8.25,8.25 0 0 0 3.74,6.48 L 199,386.91 c 7.75,4.47 20.32,4.48 28.08,0 l 37.62,-21.74 c 7.75,-4.47 7.75,-11.73 0,-16.21 L 236,332.45 a 8.28,8.28 0 0 1 -3.74,-6.49 v -36.23 l -65.68,38 z"
           style="fill:#afb23a"
           id="path75" />
        <path
           d="m 166.57,363.92 a 8.25,8.25 0 0 0 3.74,6.48 L 199,386.91 c 7.75,4.47 20.32,4.48 28.08,0 l 37.62,-21.74 c 7.75,-4.47 7.75,-11.73 0,-16.21 L 236,332.45 a 8.28,8.28 0 0 1 -3.74,-6.49 v -36.23 l -65.68,38 z"
           style="opacity:0.3"
           id="path77" />
        <path
           d="m 243.62,336.85 v 0 l -7.62,-4.4 a 8.28,8.28 0 0 1 -3.74,-6.49 v -36.23 l -65.68,38 v 36.23 a 8.25,8.25 0 0 0 3.74,6.48 l 7.5,4.33 z"
           style="opacity:0.5"
           id="path79" />
        <path
           d="m 270.48,357.06 v 5.23 c 0,2.94 -2,5.86 -5.82,8.11 l -37.61,21.73 a 28.17,28.17 0 0 1 -13.4,3.33 v -5.21 a 28.17,28.17 0 0 0 13.4,-3.33 l 37.61,-21.75 c 3.87,-2.23 5.82,-5.17 5.82,-8.11 z"
           style="fill:#afb23a"
           id="path81" />
        <path
           d="m 270.48,357.06 v 5.23 c 0,2.94 -2,5.86 -5.82,8.11 l -37.61,21.73 a 28.17,28.17 0 0 1 -13.4,3.33 v -5.21 a 28.17,28.17 0 0 0 13.4,-3.33 l 37.61,-21.75 c 3.87,-2.23 5.82,-5.17 5.82,-8.11 z"
           style="opacity:0.5"
           id="path83" />
        <path
           d="m 61.1,409 a 10,10 0 0 0 9.07,-0.17 l 254,-146.66 c 2.58,-1.49 4.67,-5.12 4.67,-4.1 V 26.72 c 0,-7 -2,-10.54 -4.39,-11.94 a 10,10 0 0 0 -9.06,0.17 L 61.4,161.61 a 10.32,10.32 0 0 0 -4.68,8.1 V 401 a 10,10 0 0 0 4.38,8 z"
           style="fill:#afb23a"
           id="path85" />
        <path
           d="m 70.17,408.78 254,-146.66 c 2.58,-1.49 4.68,-5.12 4.68,-4.11 V 26.71 c 0,-7 -2.1,-8.19 -4.68,-6.7 l -254,146.66 a 10.32,10.32 0 0 0 -4.68,8.1 v 231.3 c 0,2.99 2.1,4.2 4.68,2.71 z"
           style="fill:#afb23a"
           id="path87" />
        <path
           d="m 70.17,408.78 254,-146.66 c 2.58,-1.49 4.68,-5.12 4.68,-4.11 V 26.71 c 0,-7 -2.1,-8.19 -4.68,-6.7 l -254,146.66 a 10.32,10.32 0 0 0 -4.68,8.1 v 231.3 c 0,2.99 2.1,4.2 4.68,2.71 z"
           style="opacity:0.5"
           id="path89" />
        <path
           d="M 69.48,414.12 A 10.09,10.09 0 0 1 61.1,413.94 10,10 0 0 1 56.71,406 v -14.72 l 8.78,5.08 v 14.71 c 0,2.72 1.73,3.93 3.99,3.05 z"
           style="fill:#afb23a"
           id="path91" />
        <path
           d="M 69.48,414.12 A 10.09,10.09 0 0 1 61.1,413.94 10,10 0 0 1 56.71,406 v -14.72 l 8.78,5.08 v 14.71 c 0,2.72 1.73,3.93 3.99,3.05 z"
           style="opacity:0.5"
           id="path93" />
        <path
           d="m 65.49,396.36 v 14.7 c 0,3 2.1,4.2 4.68,2.7 l 254,-146.65 a 10.35,10.35 0 0 0 4.68,-8.11 v -14.74 z"
           style="fill:#afb23a"
           id="path95" />
        <path
           d="m 65.49,396.32 v 14.74 c 0,3 2.1,4.2 4.68,2.7 l 254,-146.65 a 10.35,10.35 0 0 0 4.68,-8.11 v -14.74 z"
           style="opacity:0.3"
           id="path97" />
        <path
           d="M 74.27,377.88 V 177.69 a 6.23,6.23 0 0 1 2.81,-4.87 L 317.28,34.14 c 1.55,-0.89 2.81,-0.17 2.81,1.62 V 236 a 6.21,6.21 0 0 1 -2.81,4.86 L 77.08,379.51 c -1.55,0.89 -2.81,0.16 -2.81,-1.63 z"
           style="fill:#afb23a"
           id="path99" />
        <path
           d="M 74.27,377.88 V 177.69 a 6.23,6.23 0 0 1 2.81,-4.87 L 317.28,34.14 c 1.55,-0.89 2.81,-0.17 2.81,1.62 V 236 a 6.21,6.21 0 0 1 -2.81,4.86 L 77.08,379.51 c -1.55,0.89 -2.81,0.16 -2.81,-1.63 z"
           style="fill:#263238"
           id="path101" />
        <path
           d="m 66.87,170.14 a 10,10 0 0 0 -1.38,4.63 v 221.59 l -8.78,-5.08 V 169.71 a 9.69,9.69 0 0 1 1.37,-4.62 z"
           style="opacity:0.7"
           id="path103" />
        <path
           d="m 328.83,21.94 c -0.33,-2.41 -2.28,-3.28 -4.64,-1.93 l -254,146.66 a 9.5,9.5 0 0 0 -3.31,3.48 l -8.78,-5.07 a 9.66,9.66 0 0 1 3.31,-3.48 L 315.42,15 a 10,10 0 0 1 9.07,-0.17 10.1,10.1 0 0 1 4.34,7.11 z"
           style="opacity:0.3"
           id="path105" />
      </g>
    </g>
    <g
       id="freepik--Window--inject-15">
      <g
         id="freepik--window--inject-15">
        <path
           d="m 98.4,390.08 a 4,4 0 0 1 -1.83,0.55 4.55,4.55 0 0 1 -2.68,-0.47 5,5 0 0 1 -2.18,-4 v -181.6 l 4.39,2.53 v 181.64 c 0,1.06 0.53,1.67 1.29,1.67 a 2.37,2.37 0 0 0 1.01,-0.32 z"
           style="fill:#f0f0f0"
           id="path109" />
        <path
           d="m 339.83,248 a 5.14,5.14 0 0 1 -2.33,4 L 98.4,390.08 c -1.28,0.74 -2.32,0.14 -2.32,-1.35 V 192 l 6.41,-3.7 c 1.28,-0.74 3.37,-12 4.66,-12.79 l 55.6,-32.1 c 1.29,-0.74 4.32,7.61 5.6,6.86 l 171.48,-99 z"
           style="fill:#fafafa"
           id="path111" />
        <path
           d="M 338.75,53.1 V 248 a 4.1,4.1 0 0 1 -1.79,3.1 L 97.86,389.15 a 1.13,1.13 0 0 1 -0.49,0.17 c -0.22,0 -0.22,-0.56 -0.22,-0.59 V 192.61 l 5.88,-3.4 c 0.93,-0.54 1.51,-2.35 2.82,-7 a 34.79,34.79 0 0 1 1.92,-5.82 l 55.1,-31.81 a 21.61,21.61 0 0 1 1.75,2.79 c 1.5,2.64 2.34,4 3.56,4 a 1.36,1.36 0 0 0 0.71,-0.2 L 338.75,53.1 m -175.47,91.23 v 0 m 176.55,-93.09 -171.48,99 a 0.34,0.34 0 0 1 -0.17,0.05 c -1.3,0 -4,-7 -5.26,-7 a 0.33,0.33 0 0 0 -0.17,0 l -55.6,32.1 c -1.29,0.75 -3.38,12 -4.66,12.79 L 96.08,192 v 196.73 c 0,1.06 0.52,1.67 1.29,1.67 a 2,2 0 0 0 1,-0.32 L 337.5,252 a 5.14,5.14 0 0 0 2.33,-4 z"
           style="fill:#e0e0e0"
           id="path113" />
        <path
           d="m 93.89,199.15 a 5,5 0 0 1 -2.19,-4 V 177 A 5.15,5.15 0 0 1 94,173 L 333.1,35 a 4.36,4.36 0 0 1 6.69,3.87 V 57 a 5.12,5.12 0 0 1 -2.33,4 L 98.4,199.07 a 5,5 0 0 1 -4.51,0.08 z"
           style="fill:#afb23a"
           id="path115" />
        <path
           d="m 339.8,38.41 c -0.16,-1.21 -1.14,-1.65 -2.3,-1 L 98.4,175.49 a 5.07,5.07 0 0 0 -1.65,1.75 l -4.37,-2.53 A 4.86,4.86 0 0 1 94,173 L 333.1,35 a 4.34,4.34 0 0 1 6.67,3.49 z"
           style="opacity:0.4;fill:#ffffff"
           id="path117" />
        <path
           d="m 96.75,177.24 a 4.72,4.72 0 0 0 -0.67,2.29 v 27.61 l -4.39,-2.53 V 177 a 2.62,2.62 0 0 1 0,-0.28 4.71,4.71 0 0 1 0.09,-0.58 5.57,5.57 0 0 1 0.58,-1.44 z"
           style="opacity:0.1"
           id="path119" />
        <path
           d="m 339.82,38.78 v 12.46 l -171.48,99 c -1.28,0.75 -2.32,0.14 -2.32,-1.34 v -4.72 c 0,-1.48 -1,-2.09 -2.34,-1.34 l -56.54,32.64 a 5.15,5.15 0 0 0 -2.33,4 v 4.71 a 5.17,5.17 0 0 1 -2.33,4 l -6.4,3.81 v -12.47 a 5.17,5.17 0 0 1 2.32,-4 l 239.1,-138 c 1.28,-0.84 2.32,-0.23 2.32,1.25 z"
           style="fill:#afb23a"
           id="path121" />
        <path
           d="m 328.9,46.59 c 1.62,-0.93 2.93,-0.17 2.93,1.7 a 6.49,6.49 0 0 1 -2.93,5.08 c -1.62,0.93 -2.94,0.17 -2.94,-1.7 a 6.5,6.5 0 0 1 2.94,-5.08 z"
           style="fill:#ffffff"
           id="path123" />
        <path
           d="m 318.34,52.68 c 1.62,-0.93 2.93,-0.18 2.93,1.69 a 6.47,6.47 0 0 1 -2.93,5.08 c -1.62,0.94 -2.93,0.18 -2.93,-1.69 a 6.49,6.49 0 0 1 2.93,-5.08 z"
           style="fill:#ffffff"
           id="path125" />
        <path
           d="m 307.78,58.77 c 1.62,-0.94 2.93,-0.18 2.93,1.69 a 6.49,6.49 0 0 1 -2.93,5.08 c -1.62,0.93 -2.93,0.18 -2.93,-1.69 a 6.47,6.47 0 0 1 2.93,-5.08 z"
           style="fill:#ffffff"
           id="path127" />
        <path
           d="M 339.83,51.24 V 66.39 L 96.08,207.14 V 192 l 4.79,-2.77 c 1.28,-0.74 1.71,-1.87 2.32,-4 l 1.63,-5.64 c 0.51,-2 1,-3.29 2.33,-4 l 55.6,-32.1 c 1.29,-0.74 2.3,-0.82 3.28,0.8 l 2,3.62 c 0.73,1.26 1.1,2 2.38,1.26 z"
           style="fill:#e6e6e6"
           id="path129" />
        <polygon
           points="96.08,207.14 91.69,204.61 91.69,189.47 96.08,191.98 "
           style="fill:#e0e0e0"
           id="polygon131" />
        <path
           d="m 106.77,193.08 -3.66,2.11 1.39,-2.68 a 0.68,0.68 0 0 0 0,-0.66 c -0.11,-0.13 -0.29,0 -0.42,0.2 l -2,3.81 v 0 c 0,0 0,0.09 -0.05,0.14 -0.05,0.05 0,0 0,0 a 1.23,1.23 0 0 0 0,0.19 0.72,0.72 0 0 0 0,0.17 c 0,0 0,0 0,0 a 0.56,0.56 0 0 0 0.05,0.08 v 0 l 2,1.52 a 0.16,0.16 0 0 0 0.2,0 0.55,0.55 0 0 0 0.22,-0.28 c 0.11,-0.25 0.09,-0.53 0,-0.62 l -1.39,-1.08 3.66,-2.11 a 0.77,0.77 0 0 0 0.29,-0.62 c 0,-0.14 -0.13,-0.25 -0.29,-0.17 z"
           style="opacity:0.5;fill:#455a64"
           id="path133" />
        <path
           d="m 109.82,191.31 3.66,-2.11 -1.4,-1.07 a 0.59,0.59 0 0 1 0,-0.63 c 0.1,-0.25 0.29,-0.37 0.41,-0.28 l 2,1.53 v 0 a 0.18,0.18 0 0 1 0.06,0.08 c 0,0 0,0 0,0 a 0.47,0.47 0 0 1 0,0.17 0.69,0.69 0 0 1 0,0.2 c 0,0 0,0 0,0 l -0.06,0.15 v 0 l -2,3.82 a 0.47,0.47 0 0 1 -0.19,0.22 0.16,0.16 0 0 1 -0.22,0 0.65,0.65 0 0 1 0,-0.65 l 1.4,-2.68 -3.66,2.11 c -0.16,0.09 -0.29,0 -0.29,-0.28 a 0.79,0.79 0 0 1 0.29,-0.58 z"
           style="opacity:0.5;fill:#455a64"
           id="path135" />
        <path
           d="m 121.82,180.78 c 0,-0.22 -0.21,-0.2 -0.31,0 l -0.5,1.23 c -0.86,-0.09 -1.89,0.74 -2.59,2.22 -0.91,1.92 -0.91,4.19 0,5.06 a 1.29,1.29 0 0 0 1.64,0.1 4.56,4.56 0 0 0 1.65,-2 0.65,0.65 0 0 0 0,-0.64 c -0.12,-0.11 -0.3,0 -0.42,0.24 -0.68,1.43 -1.78,2.07 -2.45,1.42 -0.67,-0.65 -0.68,-2.35 0,-3.78 0.48,-1 1.17,-1.62 1.77,-1.66 l -0.37,0.93 c -0.1,0.24 0,0.46 0.14,0.36 l 1.49,-1 a 0.43,0.43 0 0 0 0.17,-0.4 z"
           style="opacity:0.5;fill:#455a64"
           id="path137" />
        <path
           d="m 161.14,150.31 1.34,-2.82 a 0.9,0.9 0 0 0 0,-0.88 c -0.16,-0.15 -0.42,0 -0.57,0.33 l -1.34,2.82 -1.33,-1.28 c -0.16,-0.15 -0.41,0 -0.57,0.33 a 0.85,0.85 0 0 0 0,0.88 l 1.33,1.31 -1.33,2.82 a 0.85,0.85 0 0 0 0,0.88 0.21,0.21 0 0 0 0.28,0 0.75,0.75 0 0 0 0.29,-0.35 l 1.33,-2.82 1.34,1.28 a 0.21,0.21 0 0 0 0.28,0 0.75,0.75 0 0 0 0.29,-0.35 0.9,0.9 0 0 0 0,-0.88 z"
           style="opacity:0.5;fill:#455a64"
           id="path139" />
        <path
           d="m 126.68,184.25 v -4.72 a 5.14,5.14 0 0 1 2.33,-4 L 324.38,62.74 c 1.29,-0.75 2.33,-0.14 2.33,1.34 v 4.72 a 5.14,5.14 0 0 1 -2.33,4 L 129,185.59 c -1.28,0.75 -2.32,0.14 -2.32,-1.34 z"
           style="fill:#fafafa"
           id="path141" />
        <path
           d="m 321.21,73.2 a 0.65,0.65 0 0 1 -0.21,0 0.63,0.63 0 0 1 -0.35,-0.71 l 0.23,-1.91 -0.9,-0.65 a 0.63,0.63 0 0 1 -0.24,-0.52 1,1 0 0 1 0.38,-0.81 l 1.37,-1.06 a 0.32,0.32 0 0 0 0.06,-0.11 l 0.61,-2 a 0.85,0.85 0 0 1 0.69,-0.65 0.52,0.52 0 0 1 0.54,0.32 v 0 l 0.51,1.09 1.16,-0.44 a 0.52,0.52 0 0 1 0.61,0.14 0.83,0.83 0 0 1 0,0.94 l -1,1.86 a 0.45,0.45 0 0 0 0,0.11 l 0.24,1.68 a 1,1 0 0 1 -0.3,0.84 0.61,0.61 0 0 1 -0.54,0.21 L 323,71.36 321.79,72.9 a 0.69,0.69 0 0 1 -0.58,0.3 z m -0.66,-3.9 0.9,0.65 a 0.68,0.68 0 0 1 0.24,0.64 l -0.16,1.28 0.81,-1 a 0.71,0.71 0 0 1 0.62,-0.3 l 1.12,0.14 a 0.38,0.38 0 0 0 0,-0.13 l -0.24,-1.68 a 1.08,1.08 0 0 1 0.12,-0.6 L 324.83,66.67 324,67 a 0.55,0.55 0 0 1 -0.71,-0.28 l -0.4,-0.86 -0.55,1.79 A 1,1 0 0 1 322,68.16 l -1.37,1 a 0.29,0.29 0 0 0 -0.08,0.14 z m 0.42,1.3 z m 1.69,-5.2 z"
           style="fill:#e0e0e0"
           id="path143" />
        <g
           style="opacity:0.5"
           id="g151">
          <path
             d="m 329.46,62.16 a 0.8,0.8 0 0 1 -0.41,-1.5 l 6.56,-3.79 a 0.81,0.81 0 1 1 0.81,1.4 l -6.56,3.78 a 0.73,0.73 0 0 1 -0.4,0.11 z"
             style="fill:#455a64"
             id="path145" />
          <path
             d="m 329.46,66 a 0.8,0.8 0 0 1 -0.7,-0.4 0.82,0.82 0 0 1 0.29,-1.11 l 6.56,-3.78 a 0.81,0.81 0 0 1 1.11,0.29 0.8,0.8 0 0 1 -0.3,1.1 l -6.56,3.79 a 0.73,0.73 0 0 1 -0.4,0.11 z"
             style="fill:#455a64"
             id="path147" />
          <path
             d="m 329.46,69.74 a 0.81,0.81 0 0 1 -0.41,-1.51 l 6.56,-3.79 a 0.82,0.82 0 0 1 1.11,0.3 0.8,0.8 0 0 1 -0.3,1.1 l -6.56,3.79 a 0.83,0.83 0 0 1 -0.4,0.11 z"
             style="fill:#455a64"
             id="path149" />
        </g>
        <g
           id="freepik--Search--inject-15">
          <g
             style="opacity:0.5"
             id="g159">
            <path
               d="m 103.27,211.38 a 0.8,0.8 0 0 1 -0.41,-1.5 l 6.56,-3.79 a 0.81,0.81 0 0 1 0.81,1.4 l -6.56,3.78 a 0.76,0.76 0 0 1 -0.4,0.11 z"
               style="fill:#455a64"
               id="path153" />
            <path
               d="m 103.27,215.17 a 0.8,0.8 0 0 1 -0.7,-0.4 0.81,0.81 0 0 1 0.29,-1.11 l 6.56,-3.78 a 0.8,0.8 0 0 1 1.1,0.29 0.81,0.81 0 0 1 -0.29,1.11 l -6.56,3.78 a 0.76,0.76 0 0 1 -0.4,0.11 z"
               style="fill:#455a64"
               id="path155" />
            <path
               d="m 103.27,219 a 0.81,0.81 0 0 1 -0.41,-1.51 l 6.56,-3.78 a 0.79,0.79 0 0 1 1.1,0.29 0.8,0.8 0 0 1 -0.29,1.1 l -6.56,3.79 a 0.86,0.86 0 0 1 -0.4,0.11 z"
               style="fill:#455a64"
               id="path157" />
          </g>
          <path
             d="m 161.45,178 v 5.81 c 0,1.19 0.84,1.67 1.87,1.08 l 77.93,-45.06 v -10.14 l -77.92,45.06 a 4.14,4.14 0 0 0 -1.88,3.25 z"
             style="fill:#e6e6e6"
             id="path161" />
          <path
             d="m 251.07,124 c 1,-0.6 1.87,-0.11 1.87,1.08 v 5.81 a 4.15,4.15 0 0 1 -1.87,3.24 l -9.82,5.67 v -10.11 z"
             style="fill:#afb23a"
             id="path163" />
          <path
             d="m 250.34,132 -1.09,-0.35 a 6.11,6.11 0 0 0 0.17,-1.41 2.57,2.57 0 0 0 -1,-2.34 1.55,1.55 0 0 0 -1.59,0.08 5.6,5.6 0 0 0 -2.19,4.56 2.57,2.57 0 0 0 1,2.34 1.39,1.39 0 0 0 0.69,0.18 1.75,1.75 0 0 0 0.9,-0.26 4.58,4.58 0 0 0 1.77,-2.37 l 1.1,0.34 a 0.25,0.25 0 0 0 0.12,0 0.4,0.4 0 0 0 0.12,-0.79 z m -3.51,2.1 a 0.77,0.77 0 0 1 -0.79,0.07 1.9,1.9 0 0 1 -0.59,-1.63 4.92,4.92 0 0 1 1.78,-3.86 1.05,1.05 0 0 1 0.5,-0.15 0.51,0.51 0 0 1 0.29,0.08 1.9,1.9 0 0 1 0.59,1.63 4.92,4.92 0 0 1 -1.78,3.85 z"
             style="fill:#fafafa"
             id="path165" />
          <path
             d="M 129.06,194.53 117.81,201 a 4.1,4.1 0 0 0 -1.87,3.22 v 5.79 c 0,1.19 0.84,1.67 1.87,1.08 l 11.25,-6.51 a 4.11,4.11 0 0 0 1.86,-3.23 v -5.75 c 0,-1.18 -0.83,-1.67 -1.86,-1.07 z"
             style="fill:#afb23a"
             id="path167" />
          <path
             d="m 324.71,81.56 a 9.7,9.7 0 0 0 -4.38,7.59 c 0,2.8 2,3.93 4.38,2.54 a 9.71,9.71 0 0 0 4.39,-7.6 c 0,-2.8 -1.97,-3.93 -4.39,-2.53 z"
             style="fill:#afb23a"
             id="path169" />
          <path
             d="m 324.2,86 a 0.76,0.76 0 0 1 -0.39,-0.1 1,1 0 0 1 -0.42,-0.88 2.52,2.52 0 0 1 1.15,-2 v 0 a 0.87,0.87 0 0 1 1.4,0.81 2.54,2.54 0 0 1 -1.16,2 1.23,1.23 0 0 1 -0.58,0.17 z"
             style="fill:#ffffff"
             id="path171" />
          <path
             d="m 326.44,86.31 a 1.5,1.5 0 0 0 -1.54,0.12 l -0.64,0.37 a 4.32,4.32 0 0 0 -2,3.41 v 0.46 a 2.47,2.47 0 0 0 2.42,-0.26 7,7 0 0 0 2.42,-2.54 v -0.11 a 1.59,1.59 0 0 0 -0.66,-1.45 z"
             style="fill:#ffffff"
             id="path173" />
          <path
             d="m 309.2,95.12 v -1.55 c 0,-1.76 -1.07,-2.57 -2.39,-1.81 v 0 a 5.74,5.74 0 0 0 -2.4,4.58 v 1.39 a 5.52,5.52 0 0 1 -0.81,2.7 v 0 a 1.48,1.48 0 0 0 -0.2,0.7 v 0 c 0,0.45 0.27,0.65 0.6,0.46 l 5.61,-3.23 a 1.47,1.47 0 0 0 0.6,-1.16 v 0 a 0.59,0.59 0 0 0 -0.18,-0.47 v 0 a 1.63,1.63 0 0 1 -0.83,-1.61 z"
             style="fill:#afb23a"
             id="path175" />
          <path
             d="m 308,99.8 a 2.77,2.77 0 0 1 -1.15,2.2 c -0.64,0.36 -1.16,0 -1.16,-0.87 z"
             style="fill:#afb23a"
             id="path177" />
          <path
             d="m 288.52,102.48 a 2.57,2.57 0 0 1 1,-0.34 1.32,1.32 0 0 1 0.8,0.16 1.34,1.34 0 0 1 0.53,0.61 2.54,2.54 0 0 1 0.15,1.09 4.21,4.21 0 0 1 -0.11,1 6.17,6.17 0 0 1 -0.28,0.86 7.85,7.85 0 0 1 -0.37,0.77 l -0.4,0.72 c -0.12,0.23 -0.24,0.47 -0.34,0.7 a 3.19,3.19 0 0 0 -0.21,0.69 1.14,1.14 0 0 1 -0.08,0.33 0.47,0.47 0 0 1 -0.16,0.2 l -1.13,0.65 c -0.07,0 -0.13,0 -0.17,0 a 0.3,0.3 0 0 1 -0.08,-0.23 3.13,3.13 0 0 1 0.13,-0.91 6.61,6.61 0 0 1 0.3,-0.85 c 0.13,-0.27 0.26,-0.54 0.41,-0.79 0.15,-0.25 0.27,-0.5 0.4,-0.72 0.13,-0.22 0.22,-0.45 0.31,-0.66 a 1.68,1.68 0 0 0 0.12,-0.59 c 0,-0.28 -0.07,-0.46 -0.2,-0.53 -0.13,-0.07 -0.35,0 -0.63,0.12 a 1.57,1.57 0 0 0 -0.59,0.54 2.9,2.9 0 0 0 -0.27,0.57 l -0.14,0.5 a 0.54,0.54 0 0 1 -0.23,0.33 l -1.13,0.65 a 0.12,0.12 0 0 1 -0.14,0 0.27,0.27 0 0 1 -0.06,-0.2 4.91,4.91 0 0 1 0.18,-1.15 7.62,7.62 0 0 1 0.5,-1.29 6.26,6.26 0 0 1 0.8,-1.22 4.14,4.14 0 0 1 1.09,-1.01 z m 0.8,9.24 a 0.73,0.73 0 0 1 -0.07,0.31 0.48,0.48 0 0 1 -0.18,0.21 l -1.16,0.67 a 0.12,0.12 0 0 1 -0.17,0 0.3,0.3 0 0 1 -0.08,-0.23 v -1.43 a 0.71,0.71 0 0 1 0.08,-0.31 0.44,0.44 0 0 1 0.17,-0.22 l 1.16,-0.67 a 0.14,0.14 0 0 1 0.18,0 0.28,0.28 0 0 1 0.07,0.22 z"
             style="fill:#afb23a"
             id="path179" />
        </g>
      </g>
    </g>
    <g
       id="freepik--shadow--inject-15">
      <path
         d="m 161.56,282.63 a 3.52,3.52 0 0 1 -2.46,-1 4.84,4.84 0 0 1 -1.36,-3.64 v -7.4 L 138,282 a 3.82,3.82 0 0 1 -2,0.55 3.47,3.47 0 0 1 -2.45,-1 4.83,4.83 0 0 1 -1.37,-3.65 v -12.2 a 17.85,17.85 0 0 1 1.14,-6.41 L 155.67,203 a 13,13 0 0 1 1.58,-3 7.67,7.67 0 0 1 2.26,-1.93 l 11.28,-6.51 a 3.82,3.82 0 0 1 2,-0.55 3.5,3.5 0 0 1 2.45,1 4.84,4.84 0 0 1 1.37,3.64 v 39.83 l 2.67,-1.54 a 3.8,3.8 0 0 1 2,-0.55 3.54,3.54 0 0 1 2.45,1 4.92,4.92 0 0 1 1.27,3.71 v 12.19 a 8.27,8.27 0 0 1 -0.84,3.59 6.22,6.22 0 0 1 -2.43,2.84 l -5.17,3 V 270 a 8.35,8.35 0 0 1 -0.84,3.6 6.23,6.23 0 0 1 -2.43,2.84 l -9.78,5.65 a 4,4 0 0 1 -1.95,0.54 z m -6.88,-34.47 3.43,-2 v -6.65 z"
         style="fill:#e0e0e0"
         id="path184" />
      <path
         d="m 203.29,257.63 h -0.6 a 12.05,12.05 0 0 1 -8.35,-3.68 19.46,19.46 0 0 1 -4.59,-8.77 53.37,53.37 0 0 1 -1.61,-11.56 c -0.1,-3.09 -0.15,-6.49 -0.15,-10.12 0,-3.63 0,-7.17 0.15,-10.52 a 81.08,81.08 0 0 1 1.58,-13.21 58.16,58.16 0 0 1 4.14,-12.77 50.16,50.16 0 0 1 7,-11.2 38,38 0 0 1 10.31,-8.66 c 3.94,-2.28 7.34,-3.38 10.41,-3.38 h 0.6 a 12.14,12.14 0 0 1 8.35,3.68 19.57,19.57 0 0 1 4.59,8.77 53.55,53.55 0 0 1 1.61,11.56 c 0.1,3.31 0.15,6.79 0.15,10.36 0,3.57 0,7 -0.15,10.28 a 82.2,82.2 0 0 1 -1.58,13.21 58.88,58.88 0 0 1 -4.15,12.76 50.07,50.07 0 0 1 -7,11.2 38.2,38.2 0 0 1 -10.31,8.67 c -3.93,2.27 -7.34,3.38 -10.4,3.38 z M 215.82,189 a 4.69,4.69 0 0 0 -2.12,0.81 10.4,10.4 0 0 0 -3,2.57 13.88,13.88 0 0 0 -2,3.56 22.43,22.43 0 0 0 -1.2,4.48 36.54,36.54 0 0 0 -0.49,5.24 c -0.25,6.45 -0.25,12.88 0,19.16 a 29.78,29.78 0 0 0 0.45,4.64 5.77,5.77 0 0 0 0.88,2.38 0.94,0.94 0 0 0 0.72,0.44 v 0 a 4.57,4.57 0 0 0 2.18,-0.8 10.57,10.57 0 0 0 3,-2.58 14.37,14.37 0 0 0 2.07,-3.6 20.29,20.29 0 0 0 1.2,-4.43 43.14,43.14 0 0 0 0.45,-5.25 c 0.2,-6.55 0.2,-13 0,-19.17 a 34.47,34.47 0 0 0 -0.52,-4.59 6.49,6.49 0 0 0 -0.89,-2.46 0.81,0.81 0 0 0 -0.63,-0.4 z"
         style="fill:#e0e0e0"
         id="path186" />
      <path
         d="m 271.23,219.31 a 3.52,3.52 0 0 1 -2.46,-1 4.84,4.84 0 0 1 -1.36,-3.64 v -7.4 l -19.78,11.42 a 3.79,3.79 0 0 1 -1.94,0.55 3.48,3.48 0 0 1 -2.46,-1 4.83,4.83 0 0 1 -1.36,-3.64 V 202.37 A 17.62,17.62 0 0 1 243,196 l 22.34,-56.27 a 13,13 0 0 1 1.57,-3 7.8,7.8 0 0 1 2.26,-1.93 l 11.28,-6.51 a 3.85,3.85 0 0 1 2,-0.55 3.47,3.47 0 0 1 2.45,1 4.84,4.84 0 0 1 1.37,3.64 v 39.83 l 2.68,-1.54 a 3.76,3.76 0 0 1 1.94,-0.55 3.54,3.54 0 0 1 2.45,1 4.88,4.88 0 0 1 1.37,3.66 V 187 a 8.42,8.42 0 0 1 -0.83,3.6 6.28,6.28 0 0 1 -2.43,2.84 l -5.18,3 v 10.28 a 8.48,8.48 0 0 1 -0.83,3.6 6.24,6.24 0 0 1 -2.44,2.84 l -9.78,5.65 a 3.92,3.92 0 0 1 -1.99,0.5 z m -6.87,-34.47 3.43,-2 v -6.65 z"
         style="fill:#e0e0e0"
         id="path188" />
    </g>
    <g
       id="freepik--404--inject-15">
      <path
         d="m 190.48,241.3 a 1.1,1.1 0 0 0 -0.25,-0.19 l -7.59,-4.38 v -36 a 2.47,2.47 0 0 0 -0.6,-1.84 l -0.24,-0.18 -8.11,-4.71 a 1.13,1.13 0 0 0 -1.19,0.08 l -11.28,6.51 a 5.23,5.23 0 0 0 -1.53,1.29 9.91,9.91 0 0 0 -1.23,2.38 l -22.34,56.25 a 15.06,15.06 0 0 0 -1,5.5 v 12.19 a 2.44,2.44 0 0 0 0.6,1.84 1.1,1.1 0 0 0 0.25,0.19 l 8.11,4.69 a 1.11,1.11 0 0 0 1.18,-0.09 L 160.7,276 v 2.35 a 2.51,2.51 0 0 0 0.59,1.84 l 0.24,0.18 8.13,4.69 a 1.11,1.11 0 0 0 1.18,-0.08 l 9.78,-5.65 a 3.82,3.82 0 0 0 1.42,-1.74 5.83,5.83 0 0 0 0.6,-2.53 v -11.75 l 6.42,-3.71 a 3.72,3.72 0 0 0 1.42,-1.74 5.83,5.83 0 0 0 0.6,-2.53 v -12.19 a 2.47,2.47 0 0 0 -0.6,-1.84 z"
         style="fill:#afb23a"
         id="path191" />
      <path
         d="m 167.76,206.6 v 0.14 a 11.47,11.47 0 0 0 -1.14,2.25 l -22.33,56.25 a 12.76,12.76 0 0 0 -0.66,2.31 l -8.18,-4.72 a 14.23,14.23 0 0 1 0.65,-2.28 l 22.33,-56.25 a 10.46,10.46 0 0 1 1.24,-2.38 v 0 z"
         style="opacity:0.15"
         id="path193" />
      <path
         d="m 144,284.9 c -0.92,-0.53 -7.69,-4.44 -8,-4.62 a 1.46,1.46 0 0 1 -0.25,-0.2 2.44,2.44 0 0 1 -0.6,-1.84 v -12.18 a 16.53,16.53 0 0 1 0.32,-3.2 l 8.12,4.69 a 15.72,15.72 0 0 0 -0.31,3.2 v 12.19 a 2.47,2.47 0 0 0 0.59,1.83 z"
         style="opacity:0.3"
         id="path195" />
      <polygon
         points="169.2,231.52 169.2,252.68 162.36,248.73 "
         style="opacity:0.3"
         id="polygon197" />
      <polygon
         points="169.2,252.68 158.29,258.97 162.36,248.73 "
         style="opacity:0.4"
         id="polygon199" />
      <path
         d="m 169.42,284.86 0.14,0.12 -8,-4.62 a 0.88,0.88 0 0 1 -0.24,-0.19 2.45,2.45 0 0 1 -0.6,-1.84 V 276 l 8.12,-4.69 V 283 a 2.45,2.45 0 0 0 0.58,1.86 z"
         style="opacity:0.3"
         id="path201" />
      <path
         d="m 190.14,241.07 a 1.14,1.14 0 0 0 -1.07,0.13 l -6.43,3.71 v -8.17 z"
         style="opacity:0.15"
         id="path203" />
      <path
         d="m 181.75,198.7 a 1.14,1.14 0 0 0 -1.13,0.11 l -11.27,6.51 a 5.34,5.34 0 0 0 -1.53,1.28 l -8.12,-4.69 a 5.29,5.29 0 0 1 1.52,-1.28 l 11.28,-6.51 a 1.1,1.1 0 0 1 1.19,-0.07 z"
         style="opacity:0.4;fill:#ffffff"
         id="path205" />
      <path
         d="m 170.84,285 a 1.08,1.08 0 0 1 -1.42,-0.1 2.45,2.45 0 0 1 -0.6,-1.84 v -11.77 l -23.53,13.58 a 1.07,1.07 0 0 1 -1.42,-0.1 2.44,2.44 0 0 1 -0.6,-1.84 v -12.19 a 15.07,15.07 0 0 1 1,-5.5 L 166.58,209 a 10.94,10.94 0 0 1 1.23,-2.38 5.5,5.5 0 0 1 1.53,-1.29 l 11.28,-6.51 a 1.08,1.08 0 0 1 1.42,0.1 2.47,2.47 0 0 1 0.6,1.84 v 44.16 l 6.42,-3.71 a 1.1,1.1 0 0 1 1.42,0.1 2.47,2.47 0 0 1 0.6,1.84 v 12.19 a 5.83,5.83 0 0 1 -0.6,2.53 3.72,3.72 0 0 1 -1.42,1.74 l -6.42,3.71 V 275 a 5.83,5.83 0 0 1 -0.6,2.53 3.82,3.82 0 0 1 -1.42,1.74 z m -1.65,-32.29 v -21.2 L 158.29,259 Z"
         style="fill:#afb23a"
         id="path207" />
      <path
         d="m 242.84,192.9 a 50.6,50.6 0 0 0 -1.53,-11 17,17 0 0 0 -4,-7.66 9.41,9.41 0 0 0 -2,-1.6 c -1.35,-0.8 -7.39,-4.27 -8.13,-4.7 a 10,10 0 0 0 -4.64,-1.31 q -4,-0.21 -9.63,3 a 35.25,35.25 0 0 0 -9.64,8.09 47.36,47.36 0 0 0 -6.68,10.65 55.55,55.55 0 0 0 -4,12.23 78.4,78.4 0 0 0 -1.53,12.79 q -0.15,5 -0.15,10.43 c 0,3.61 0.05,6.95 0.15,10 a 50.42,50.42 0 0 0 1.53,11 17,17 0 0 0 4,7.67 9.56,9.56 0 0 0 2,1.59 c 1.36,0.8 7.48,4.33 8.26,4.77 a 10.06,10.06 0 0 0 4.53,1.25 c 2.68,0.14 5.9,-0.87 9.63,-3 a 35.6,35.6 0 0 0 9.64,-8.09 47.72,47.72 0 0 0 6.68,-10.65 55.55,55.55 0 0 0 4,-12.23 78.4,78.4 0 0 0 1.53,-12.79 q 0.15,-4.8 0.15,-10.2 0,-5.4 -0.17,-10.24 z m -29.51,40.87 A 32.16,32.16 0 0 1 213,230 q -0.37,-9.56 0,-19.32 a 40,40 0 0 1 0.52,-5.59 25,25 0 0 1 1.35,-5 16.14,16.14 0 0 1 2.39,-4.2 12.85,12.85 0 0 1 3.24,-2.88 c 0.17,1.14 0.29,2.38 0.36,3.73 q 0.3,9.38 0,19.32 a 42.74,42.74 0 0 1 -0.49,5.57 22.56,22.56 0 0 1 -1.34,5 16.94,16.94 0 0 1 -2.43,4.22 12.78,12.78 0 0 1 -3.27,2.92 z"
         style="fill:#afb23a"
         id="path209" />
      <path
         d="m 206.66,258.79 -8,-4.64 a 9.88,9.88 0 0 1 -2,-1.6 17,17 0 0 1 -4,-7.66 50.52,50.52 0 0 1 -1.53,-11 q -0.15,-4.63 -0.15,-10 0,-5.37 0.15,-10.44 a 78.4,78.4 0 0 1 1.53,-12.79 55,55 0 0 1 2.52,-8.75 l 8.11,4.7 a 56,56 0 0 0 -2.5,8.74 77.35,77.35 0 0 0 -1.54,12.79 q -0.15,5 -0.15,10.44 0,5.44 0.15,10 a 49.89,49.89 0 0 0 1.54,11 16.93,16.93 0 0 0 4,7.66 9.56,9.56 0 0 0 1.87,1.55 z"
         style="opacity:0.15"
         id="path211" />
      <path
         d="m 235,172.45 a 10.38,10.38 0 0 0 -4.34,-1.15 q -4,-0.2 -9.64,3 a 35.56,35.56 0 0 0 -9.63,8.1 47.69,47.69 0 0 0 -6.69,10.64 c -0.27,0.58 -0.52,1.17 -0.77,1.77 -0.25,0.6 -0.45,1.14 -0.67,1.72 v 0 l -8.11,-4.7 c 0.19,-0.51 0.39,-1 0.6,-1.52 0.27,-0.66 0.54,-1.31 0.84,-2 a 48.31,48.31 0 0 1 6.68,-10.65 35.75,35.75 0 0 1 9.64,-8.09 c 3.73,-2.16 7,-3.16 9.64,-3 a 10.07,10.07 0 0 1 4.63,1.31 c 0.7,0.45 6.04,3.52 7.82,4.57 z"
         style="opacity:0.4;fill:#ffffff"
         id="path213" />
      <path
         d="m 229,220.78 a 44.55,44.55 0 0 1 -0.49,5.57 22.42,22.42 0 0 1 -1.34,5 16.47,16.47 0 0 1 -0.93,1.94 l -8.12,-4.69 a 18.16,18.16 0 0 0 0.92,-1.94 23,23 0 0 0 1.35,-5 44.59,44.59 0 0 0 0.48,-5.57 q 0.3,-9.94 0,-19.32 c -0.07,-1.35 -0.19,-2.59 -0.35,-3.73 0,0 0.21,-0.15 0.48,-0.31 a 6.24,6.24 0 0 1 3.74,-1.12 3.33,3.33 0 0 1 2.39,1.44 8.77,8.77 0 0 1 1.31,3.44 38.72,38.72 0 0 1 0.56,5 q 0.32,9.35 0,19.29 z"
         style="opacity:0.3"
         id="path215" />
      <path
         d="m 226.27,233.26 a 16,16 0 0 1 -1.5,2.28 12.77,12.77 0 0 1 -3.74,3.19 6.29,6.29 0 0 1 -3.73,1.12 3.39,3.39 0 0 1 -2.43,-1.41 8.18,8.18 0 0 1 -1.34,-3.42 c -0.08,-0.4 -0.14,-0.82 -0.2,-1.25 a 12.61,12.61 0 0 0 3.31,-2.92 16.08,16.08 0 0 0 1.51,-2.28 z"
         style="opacity:0.4"
         id="path217" />
      <path
         d="m 221,174.33 q 5.61,-3.24 9.64,-3 a 9.66,9.66 0 0 1 6.68,2.92 17,17 0 0 1 4,7.66 50.6,50.6 0 0 1 1.53,11 q 0.15,4.86 0.15,10.27 0,5.41 -0.15,10.2 a 78.4,78.4 0 0 1 -1.53,12.79 55.55,55.55 0 0 1 -4,12.23 48.08,48.08 0 0 1 -6.65,10.6 35.6,35.6 0 0 1 -9.64,8.09 c -3.73,2.16 -6.95,3.17 -9.63,3 a 9.66,9.66 0 0 1 -6.69,-2.92 17,17 0 0 1 -4,-7.67 50.42,50.42 0 0 1 -1.53,-11 c -0.1,-3.09 -0.15,-6.43 -0.15,-10 0,-3.57 0.05,-7.08 0.15,-10.43 a 78.4,78.4 0 0 1 1.53,-12.79 55.55,55.55 0 0 1 4,-12.23 47.76,47.76 0 0 1 6.69,-10.65 35.2,35.2 0 0 1 9.6,-8.07 z m 8,46.45 q 0.3,-9.94 0,-19.32 a 37,37 0 0 0 -0.56,-5 8.78,8.78 0 0 0 -1.3,-3.44 3.26,3.26 0 0 0 -2.39,-1.44 6.39,6.39 0 0 0 -3.74,1.12 12.73,12.73 0 0 0 -3.73,3.19 16.14,16.14 0 0 0 -2.39,4.2 25,25 0 0 0 -1.35,5 40,40 0 0 0 -0.52,5.59 q -0.37,9.76 0,19.32 a 32.28,32.28 0 0 0 0.48,5 8.07,8.07 0 0 0 1.35,3.42 3.4,3.4 0 0 0 2.43,1.42 6.38,6.38 0 0 0 3.73,-1.12 13.06,13.06 0 0 0 3.74,-3.19 17.22,17.22 0 0 0 2.42,-4.22 22.58,22.58 0 0 0 1.35,-5 44.59,44.59 0 0 0 0.48,-5.53 z"
         style="fill:#afb23a"
         id="path219" />
      <path
         d="m 300.16,178 a 1.15,1.15 0 0 0 -0.26,-0.19 l -7.59,-4.38 v -36 a 2.49,2.49 0 0 0 -0.59,-1.84 1.25,1.25 0 0 0 -0.24,-0.18 l -8.12,-4.69 a 1.13,1.13 0 0 0 -1.19,0.08 l -11.28,6.51 a 5.19,5.19 0 0 0 -1.53,1.29 10.7,10.7 0 0 0 -1.23,2.38 l -22.33,56.25 a 15.06,15.06 0 0 0 -1,5.5 v 12.19 a 2.45,2.45 0 0 0 0.59,1.84 1.15,1.15 0 0 0 0.26,0.19 l 8.11,4.69 a 1.11,1.11 0 0 0 1.18,-0.09 l 15.4,-8.89 V 215 a 2.47,2.47 0 0 0 0.6,1.84 l 0.24,0.18 8.12,4.69 a 1.13,1.13 0 0 0 1.18,-0.08 L 290.3,216 a 3.89,3.89 0 0 0 1.42,-1.74 6,6 0 0 0 0.59,-2.53 V 200 l 6.43,-3.71 a 3.78,3.78 0 0 0 1.42,-1.74 6,6 0 0 0 0.59,-2.53 v -12.2 A 2.51,2.51 0 0 0 300.16,178 Z"
         style="fill:#afb23a"
         id="path221" />
      <path
         d="m 277.43,143.28 v 0.14 a 11.47,11.47 0 0 0 -1.14,2.25 l -22.33,56.25 a 12.76,12.76 0 0 0 -0.66,2.31 l -8.18,-4.72 a 14.23,14.23 0 0 1 0.65,-2.28 L 268.06,141 a 10.46,10.46 0 0 1 1.24,-2.38 v 0 z"
         style="opacity:0.15"
         id="path223" />
      <path
         d="m 253.69,221.58 c -0.92,-0.53 -7.69,-4.44 -8,-4.62 a 1.46,1.46 0 0 1 -0.25,-0.2 2.44,2.44 0 0 1 -0.6,-1.84 v -12.18 a 16.53,16.53 0 0 1 0.32,-3.2 l 8.12,4.69 a 15.72,15.72 0 0 0 -0.31,3.2 v 12.19 a 2.47,2.47 0 0 0 0.59,1.83 z"
         style="opacity:0.3"
         id="path225" />
      <polygon
         points="278.87,168.2 278.87,189.36 272.03,185.41 "
         style="opacity:0.3"
         id="polygon227" />
      <polygon
         points="278.87,189.36 267.96,195.65 272.03,185.41 "
         style="opacity:0.4"
         id="polygon229" />
      <path
         d="m 279.09,221.54 0.14,0.12 -8,-4.62 a 0.88,0.88 0 0 1 -0.24,-0.19 2.45,2.45 0 0 1 -0.6,-1.84 v -2.35 l 8.12,-4.69 v 11.73 a 2.45,2.45 0 0 0 0.58,1.84 z"
         style="opacity:0.3"
         id="path231" />
      <path
         d="m 299.81,177.75 a 1.14,1.14 0 0 0 -1.07,0.13 l -6.43,3.71 v -8.17 z"
         style="opacity:0.15"
         id="path233" />
      <path
         d="m 291.42,135.38 a 1.14,1.14 0 0 0 -1.13,0.11 L 279,142 a 5.34,5.34 0 0 0 -1.53,1.28 l -8.12,-4.69 a 5.29,5.29 0 0 1 1.52,-1.28 l 11.28,-6.51 a 1.1,1.1 0 0 1 1.19,-0.07 z"
         style="opacity:0.4;fill:#ffffff"
         id="path235" />
      <path
         d="m 280.51,221.64 a 1.08,1.08 0 0 1 -1.42,-0.1 2.47,2.47 0 0 1 -0.59,-1.84 V 208 L 255,221.55 a 1.07,1.07 0 0 1 -1.42,-0.1 2.44,2.44 0 0 1 -0.6,-1.84 v -12.19 a 15.06,15.06 0 0 1 1,-5.5 l 22.33,-56.25 a 10.24,10.24 0 0 1 1.24,-2.38 A 5.08,5.08 0 0 1 279,142 l 11.28,-6.51 a 1.09,1.09 0 0 1 1.42,0.1 2.49,2.49 0 0 1 0.59,1.84 v 44.16 l 6.43,-3.71 a 1.09,1.09 0 0 1 1.42,0.1 2.51,2.51 0 0 1 0.59,1.84 V 192 a 6,6 0 0 1 -0.59,2.53 3.78,3.78 0 0 1 -1.42,1.74 l -6.41,3.73 v 11.73 a 6,6 0 0 1 -0.59,2.53 3.89,3.89 0 0 1 -1.42,1.74 z m -1.64,-32.29 V 168.19 L 268,195.65 Z"
         style="fill:#afb23a"
         id="path237" />
    </g>
    <text
       xml:space="preserve"
       style="font-style:normal;font-weight:normal;font-size:48.5715px;line-height:1.25;font-family:sans-serif;fill:#455a64;fill-opacity:1;stroke:none;stroke-width:1.21429"
       x="153.02921"
       y="625.96295"
       id="text2144"
       transform="matrix(1.5075436,-0.85490276,-0.07118993,0.70370137,0,0)"><tspan
         sodipodi:role="line"
         id="tspan2142"
         x="153.02921"
         y="625.96295"
         style="font-style:normal;font-variant:normal;font-weight:bold;font-stretch:normal;font-family:sans-serif;-inkscape-font-specification:'sans-serif Bold';stroke-width:1.21429">خطأ</tspan></text>
    <text
       xml:space="preserve"
       style="font-style:normal;font-weight:normal;font-size:22.271px;line-height:1.25;font-family:sans-serif;fill:#e0e0e0;fill-opacity:1;stroke:none;stroke-width:1.04395"
       x="24.485632"
       y="437.00925"
       id="text7254"
       transform="matrix(1.0165154,-0.55457228,0.33309833,0.80202711,0,0)"><tspan
         sodipodi:role="line"
         id="tspan7252"
         x="24.485632"
         y="437.00925"
         style="font-size:22.271px;fill:#e0e0e0;stroke-width:1.04395">الصفحة غير موجودة</tspan></text>
  </g>
</svg>
