<?xml version="1.0" encoding="UTF-8" standalone="no"?>
<svg
   viewBox="0 0 550 300"
   version="1.1"
   id="svg366"
   sodipodi:docname="404.svg"
   inkscape:version="1.1.1 (3bf5ae0d25, 2021-09-20)"
   width="550"
   height="300"
   xmlns:inkscape="http://www.inkscape.org/namespaces/inkscape"
   xmlns:sodipodi="http://sodipodi.sourceforge.net/DTD/sodipodi-0.dtd"
   xmlns="http://www.w3.org/2000/svg"
   xmlns:svg="http://www.w3.org/2000/svg">
  <defs
     id="defs370" />
  <sodipodi:namedview
     id="namedview368"
     pagecolor="#505050"
     bordercolor="#eeeeee"
     borderopacity="1"
     inkscape:pageshadow="0"
     inkscape:pageopacity="0"
     inkscape:pagecheckerboard="0"
     showgrid="false"
     inkscape:zoom="1.564"
     inkscape:cx="835.99744"
     inkscape:cy="206.52174"
     inkscape:window-width="1920"
     inkscape:window-height="986"
     inkscape:window-x="-11"
     inkscape:window-y="-11"
     inkscape:window-maximized="1"
     inkscape:current-layer="svg366" />
  <g
     id="g1108"
     transform="matrix(0.8113501,0,0,0.74141537,-26.313449,-39.198575)">
    <g
       id="freepik--background-complete--inject-52">
      <path
         d="m 467,443.86 a 16.66,16.66 0 0 1 24.72,12.82 c -10.1,0 -20,-2.35 -24.72,-12.82"
         style="fill:#ebebeb"
         id="path2" />
      <path
         d="m 478.76,433.51 a 21.55,21.55 0 0 0 28.18,-22.46 c -12.83,2.52 -24.87,8 -28.18,22.46"
         style="fill:#ebebeb"
         id="path4" />
      <path
         d="m 434.79,450.6 a 3.91,3.91 0 0 1 0.63,-0.25 l 1.85,-0.62 c 1.6,-0.52 3.92,-1.28 6.77,-2.27 5.71,-2 13.54,-4.84 22,-8.51 4.21,-1.85 8.17,-3.73 11.73,-5.53 3.56,-1.8 6.67,-3.58 9.25,-5.15 a 62.35,62.35 0 0 0 5.87,-4 c 1.32,-1 2,-1.71 2,-1.67 a 3,3 0 0 1 -0.45,0.5 17.63,17.63 0 0 1 -1.43,1.33 53.27,53.27 0 0 1 -5.81,4.19 c -2.55,1.62 -5.68,3.4 -9.22,5.26 -3.54,1.86 -7.52,3.73 -11.75,5.59 -8.45,3.68 -16.32,6.5 -22.06,8.38 -2.87,0.95 -5.21,1.65 -6.83,2.11 l -1.87,0.53 a 2.71,2.71 0 0 1 -0.68,0.11 z"
         style="fill:#e0e0e0"
         id="path6" />
      <path
         d="m 480,449.74 c 0,0.08 -1.22,-0.74 -3.23,-1.83 a 40.35,40.35 0 0 0 -8.27,-3.32 39.52,39.52 0 0 0 -8.82,-1.35 c -2.28,-0.09 -3.71,0 -3.71,-0.08 a 4,4 0 0 1 1,-0.16 23.46,23.46 0 0 1 2.73,-0.13 34.47,34.47 0 0 1 17.26,4.72 23,23 0 0 1 2.28,1.51 3.41,3.41 0 0 1 0.76,0.64 z"
         style="fill:#e0e0e0"
         id="path8" />
      <path
         d="m 241.73,404.78 a 21,21 0 0 0 20.7,28.35 c -1.92,-12.58 -6.76,-24.54 -20.7,-28.35"
         style="fill:#ebebeb"
         id="path10" />
      <path
         d="m 239.76,398.6 c 0.08,0 0.42,1.38 1.15,3.57 a 53.5,53.5 0 0 0 3.55,8.28 54.61,54.61 0 0 0 4.93,7.54 c 1.43,1.82 2.4,2.88 2.34,2.94 a 3.93,3.93 0 0 1 -0.76,-0.67 c -0.47,-0.46 -1.11,-1.15 -1.86,-2 a 43.59,43.59 0 0 1 -8.55,-15.94 c -0.32,-1.12 -0.55,-2 -0.66,-2.68 a 3.25,3.25 0 0 1 -0.14,-1.04 z"
         style="fill:#e0e0e0"
         id="path12" />
      <path
         d="M 41.89,152.44 A 32.53,32.53 0 0 0 74,196.37 c -3,-19.5 -10.47,-38 -32.07,-43.93"
         style="fill:#ebebeb"
         id="path14" />
      <path
         d="m 38.83,142.88 a 8.3,8.3 0 0 1 0.47,1.49 c 0.26,1 0.67,2.36 1.22,4.07 A 80.62,80.62 0 0 0 46,161.3 79.8,79.8 0 0 0 53.68,173 c 1.12,1.4 2,2.52 2.71,3.27 a 10.87,10.87 0 0 1 1,1.21 8.47,8.47 0 0 1 -1.14,-1.07 c -0.71,-0.72 -1.69,-1.8 -2.84,-3.18 A 69.45,69.45 0 0 1 40.18,148.56 c -0.51,-1.72 -0.87,-3.14 -1.07,-4.12 a 11.2,11.2 0 0 1 -0.28,-1.56 z"
         style="fill:#e0e0e0"
         id="path16" />
      <path
         d="m 75.68,351.48 a 21,21 0 0 0 3.39,34.95 c 4.75,-11.81 6.67,-24.56 -3.39,-34.95"
         style="fill:#ebebeb"
         id="path18" />
      <path
         d="m 77.12,345.16 c 0.08,0 -0.33,1.41 -0.82,3.66 a 51.69,51.69 0 0 0 -0.75,17.94 c 0.3,2.29 0.6,3.7 0.51,3.72 a 4.34,4.34 0 0 1 -0.31,-1 c -0.17,-0.63 -0.37,-1.55 -0.57,-2.69 a 44,44 0 0 1 0.76,-18.08 c 0.29,-1.13 0.57,-2 0.79,-2.64 a 4.32,4.32 0 0 1 0.39,-0.91 z"
         style="fill:#e0e0e0"
         id="path20" />
      <path
         d="m 261.26,98.62 a 21,21 0 0 0 30.33,-17.68 c -12.72,0.61 -25.1,4.2 -30.33,17.68"
         style="fill:#ebebeb"
         id="path22" />
      <path
         d="m 254.91,100 c 0,-0.08 1.42,-0.28 3.67,-0.78 a 51.86,51.86 0 0 0 16.61,-6.81 c 2,-1.24 3.11,-2.09 3.16,-2 a 3.47,3.47 0 0 1 -0.74,0.69 c -0.5,0.42 -1.26,1 -2.22,1.64 a 43.77,43.77 0 0 1 -16.73,6.87 c -1.15,0.21 -2.08,0.33 -2.73,0.39 a 3.81,3.81 0 0 1 -1.02,0 z"
         style="fill:#e0e0e0"
         id="path24" />
      <path
         d="m 235.34,96.81 a 27.69,27.69 0 0 0 16.72,-43.17 c -12.6,11.09 -22.42,25 -16.72,43.17"
         style="fill:#ebebeb"
         id="path26" />
      <path
         d="m 229.89,103.39 a 6.94,6.94 0 0 1 0.84,-1 c 0.57,-0.63 1.38,-1.57 2.34,-2.75 a 67,67 0 0 0 11.53,-20.7 c 0.5,-1.44 0.87,-2.62 1.11,-3.44 a 6.57,6.57 0 0 1 0.43,-1.26 5.94,5.94 0 0 1 -0.24,1.31 c -0.17,0.84 -0.5,2 -1,3.5 a 58.67,58.67 0 0 1 -11.59,20.82 c -1,1.16 -1.86,2.07 -2.48,2.66 a 6.13,6.13 0 0 1 -0.94,0.86 z"
         style="fill:#e0e0e0"
         id="path28" />
      <path
         d="m 317.37,439.37 a 12.65,12.65 0 0 0 21,2.37 c -6.36,-4.28 -13.64,-7 -21,-2.37"
         style="fill:#ebebeb"
         id="path30" />
      <path
         d="m 313.83,437.73 a 58.44,58.44 0 0 0 7.2,2.64 56.24,56.24 0 0 0 7.58,1.14 7.37,7.37 0 0 1 -2.27,0.14 25.39,25.39 0 0 1 -10.58,-2.71 7.62,7.62 0 0 1 -1.93,-1.21 z"
         style="fill:#e0e0e0"
         id="path32" />
      <path
         d="m 410.07,80.33 a 12.64,12.64 0 0 0 21.07,-1.74 c -7.07,-3 -14.73,-4.23 -21.07,1.74"
         style="fill:#ebebeb"
         id="path34" />
      <path
         d="m 406.28,79.41 a 38.34,38.34 0 0 0 15.23,0.85 7.84,7.84 0 0 1 -2.2,0.57 25.34,25.34 0 0 1 -10.91,-0.61 7.53,7.53 0 0 1 -2.12,-0.81 z"
         style="fill:#e0e0e0"
         id="path36" />
      <path
         d="m 650.31,111.09 a 21,21 0 0 0 26.37,-23.15 c -12.36,3 -23.82,8.93 -26.37,23.15"
         style="fill:#ebebeb"
         id="path38" />
      <path
         d="m 644.33,113.61 c 0,-0.08 1.33,-0.55 3.45,-1.47 a 51.84,51.84 0 0 0 15,-9.86 c 1.69,-1.59 2.65,-2.65 2.72,-2.59 a 3.85,3.85 0 0 1 -0.6,0.81 c -0.41,0.51 -1,1.21 -1.86,2 a 43.83,43.83 0 0 1 -15.11,9.94 c -1.08,0.42 -2,0.73 -2.6,0.9 a 4.14,4.14 0 0 1 -1,0.27 z"
         style="fill:#e0e0e0"
         id="path40" />
      <path
         d="m 674,415.88 a 36.55,36.55 0 0 0 21.18,-57.29 C 678.75,373.48 666.09,392 674,415.88"
         style="fill:#ebebeb"
         id="path42" />
      <path
         d="m 666.91,424.68 a 12.27,12.27 0 0 1 1.12,-1.36 c 0.75,-0.84 1.8,-2.09 3.05,-3.66 1.25,-1.57 2.69,-3.5 4.18,-5.7 1.49,-2.2 3,-4.71 4.47,-7.41 1.47,-2.7 2.67,-5.36 3.7,-7.82 1.03,-2.46 1.84,-4.71 2.45,-6.63 0.61,-1.92 1.07,-3.48 1.36,-4.57 a 10.33,10.33 0 0 1 0.52,-1.68 12.13,12.13 0 0 1 -0.32,1.73 c -0.23,1.11 -0.64,2.69 -1.21,4.63 -0.57,1.94 -1.36,4.22 -2.35,6.71 -0.99,2.49 -2.24,5.15 -3.69,7.88 a 86.65,86.65 0 0 1 -4.53,7.43 c -1.53,2.2 -3,4.11 -4.29,5.66 -1.29,1.55 -2.4,2.77 -3.19,3.57 a 11.09,11.09 0 0 1 -1.27,1.22 z"
         style="fill:#e0e0e0"
         id="path44" />
    </g>
    <g
       id="freepik--Shape--inject-52">
      <path
         d="m 538.22,289.8 c -6.31,-35.25 -36.58,-66 -72.27,-68.94 -19.45,-1.58 -39,4.55 -58.37,2.21 a 68,68 0 0 1 -42.49,-22.4 c -16,-18.2 -21.41,-44.09 -38.35,-61.41 -23.34,-23.89 -64.07,-24.26 -92.47,-6.69 -28.4,17.57 -45.57,49.28 -53.43,81.73 l -0.31,9.87 c -1.71,33.66 7.15,72.83 26.68,102.83 19.79,30.4 32.8,43 68.86,64.81 30.62,18.56 90.58,26.72 126.38,27.58 35.8,0.86 72.57,-9.8 99.5,-33.42 26.93,-23.62 42.59,-60.92 36.27,-96.17 z"
         style="fill:#afb23a"
         id="path47" />
      <g
         style="opacity:0.8"
         id="g51">
        <path
           d="m 538.22,289.8 c -6.31,-35.25 -36.58,-66 -72.27,-68.94 -19.45,-1.58 -39,4.55 -58.37,2.21 a 68,68 0 0 1 -42.49,-22.4 c -16,-18.2 -21.41,-44.09 -38.35,-61.41 -23.34,-23.89 -64.07,-24.26 -92.47,-6.69 -28.4,17.57 -45.57,49.28 -53.43,81.73 l -0.31,9.87 c -1.71,33.66 7.15,72.83 26.68,102.83 19.79,30.4 32.8,43 68.86,64.81 30.62,18.56 90.58,26.72 126.38,27.58 35.8,0.86 72.57,-9.8 99.5,-33.42 26.93,-23.62 42.59,-60.92 36.27,-96.17 z"
           style="fill:#ffffff"
           id="path49" />
      </g>
      <circle
         cx="556.21997"
         cy="413.16"
         r="17.25"
         transform="rotate(-81.74,556.24149,413.1548)"
         style="fill:#afb23a"
         id="circle53" />
      <circle
         cx="556.21997"
         cy="413.16"
         r="17.25"
         transform="rotate(-81.74,556.24149,413.1548)"
         style="opacity:0.8;fill:#ffffff"
         id="circle55" />
    </g>
    <path
       d="m 435.16,280.45 q 0.49,51.66 -22.52,79 -23.01,27.34 -63,27.7 -40.2,0.39 -63.91,-26.48 -23.71,-26.87 -24.22,-78.52 l -0.58,-60.56 q -0.5,-51.46 22.52,-79 23.02,-27.54 63.21,-27.88 40,-0.39 63.73,26.67 23.73,27.06 24.21,78.51 z M 390.33,213.53 Q 390,181 379,165.49 q -11,-15.51 -32,-15.32 -20.93,0.2 -31.59,15.93 -10.66,15.73 -10.41,48.25 l 0.7,73.59 q 0.31,32.7 11.47,48.31 11.16,15.61 32.07,15.41 20.91,-0.2 31.49,-15.93 Q 391.31,320 391,287.12 Z"
       style="fill:#afb23a"
       id="path58" />
    <g
       style="opacity:0.4"
       id="g62">
      <path
         d="m 435.16,280.45 q 0.49,51.66 -22.52,79 -23.01,27.34 -63,27.7 -40.2,0.39 -63.91,-26.48 -23.71,-26.87 -24.22,-78.52 l -0.58,-60.56 q -0.5,-51.46 22.52,-79 23.02,-27.54 63.21,-27.88 40,-0.39 63.73,26.67 23.73,27.06 24.21,78.51 z M 390.33,213.53 Q 390,181 379,165.49 q -11,-15.51 -32,-15.32 -20.93,0.2 -31.59,15.93 -10.66,15.73 -10.41,48.25 l 0.7,73.59 q 0.31,32.7 11.47,48.31 11.16,15.61 32.07,15.41 20.91,-0.2 31.49,-15.93 Q 391.31,320 391,287.12 Z"
         id="path60" />
    </g>
    <path
       d="m 460.62,280.21 q 0.5,51.65 -22.52,79 -23.02,27.35 -63,27.7 -40.2,0.39 -63.91,-26.49 Q 287.48,333.54 287,281.88 l -0.58,-60.56 q -0.5,-51.46 22.52,-79 23.02,-27.54 63.21,-27.89 40,-0.37 63.73,26.67 23.73,27.04 24.12,78.55 z m -44.83,-66.92 q -0.32,-32.52 -11.38,-48 -11.06,-15.48 -32,-15.32 -20.93,0.21 -31.59,15.93 -10.66,15.72 -10.36,48.26 l 0.71,73.58 q 0.32,32.71 11.47,48.32 11.15,15.61 32.07,15.41 20.91,-0.21 31.49,-15.93 10.58,-15.72 10.26,-48.62 z"
       style="fill:#afb23a"
       id="path64" />
    <path
       d="m 286.55,224.92 c 0.05,0.13 -5.86,2.48 -13.2,5.24 -7.34,2.76 -13.35,4.84 -13.35,4.75 0,-0.09 5.86,-2.48 13.2,-5.24 7.34,-2.76 13.3,-4.89 13.35,-4.75 z"
       style="fill:#afb23a"
       id="path66" />
    <path
       d="m 288,248.85 c 0.05,0.13 -5.86,2.48 -13.21,5.24 -7.35,2.76 -13.33,4.88 -13.38,4.75 -0.05,-0.13 5.86,-2.48 13.2,-5.24 7.34,-2.76 13.39,-4.89 13.39,-4.75 z"
       style="fill:#afb23a"
       id="path68" />
    <path
       d="m 289.49,272.78 c 0.05,0.13 -5.86,2.48 -13.21,5.24 -7.35,2.76 -13.28,4.88 -13.38,4.75 -0.1,-0.13 5.86,-2.48 13.2,-5.24 7.34,-2.76 13.34,-4.89 13.39,-4.75 z"
       style="fill:#afb23a"
       id="path70" />
    <path
       d="m 291,296.71 c 0.05,0.13 -5.86,2.48 -13.21,5.24 -7.35,2.76 -13.34,4.88 -13.39,4.75 -0.05,-0.13 5.87,-2.48 13.21,-5.24 7.34,-2.76 13.3,-4.89 13.39,-4.75 z"
       style="fill:#afb23a"
       id="path72" />
    <path
       d="m 292.43,320.64 a 4.43,4.43 0 0 1 -0.92,0.45 c -0.6,0.26 -1.48,0.62 -2.56,1.05 -2.18,0.87 -5.19,2 -8.53,3.29 -3.34,1.29 -6.38,2.36 -8.59,3.14 -1.1,0.39 -2,0.7 -2.62,0.9 a 3.61,3.61 0 0 1 -1,0.26 4.1,4.1 0 0 1 0.92,-0.45 c 0.6,-0.26 1.47,-0.62 2.56,-1 2.17,-0.87 5.19,-2 8.53,-3.29 3.34,-1.29 6.38,-2.37 8.59,-3.14 1.1,-0.39 2,-0.7 2.62,-0.9 a 3.44,3.44 0 0 1 1,-0.31 z"
       style="fill:#afb23a"
       id="path74" />
    <path
       d="m 299.26,342.53 a 21.43,21.43 0 0 1 -3,1.33 c -1.9,0.76 -4.53,1.78 -7.44,2.88 -2.91,1.1 -5.57,2.06 -7.49,2.73 a 20.88,20.88 0 0 1 -3.16,1 20.58,20.58 0 0 1 3,-1.33 c 1.89,-0.77 4.52,-1.79 7.44,-2.88 2.92,-1.09 5.56,-2.06 7.49,-2.73 a 19.63,19.63 0 0 1 3.16,-1 z"
       style="fill:#afb23a"
       id="path76" />
    <path
       d="m 313.89,362.61 a 17.39,17.39 0 0 1 -2.69,1.21 c -1.69,0.68 -4,1.59 -6.62,2.57 -2.62,0.98 -5,1.83 -6.68,2.42 a 17.32,17.32 0 0 1 -2.82,0.87 16.29,16.29 0 0 1 2.69,-1.21 c 1.68,-0.68 4,-1.59 6.62,-2.57 2.62,-0.98 5,-1.83 6.68,-2.43 a 16.55,16.55 0 0 1 2.82,-0.86 z"
       style="fill:#afb23a"
       id="path78" />
    <path
       d="m 338.2,375.78 a 18.09,18.09 0 0 1 -2.69,1.2 c -1.69,0.69 -4,1.6 -6.62,2.57 -2.62,0.97 -5,1.83 -6.68,2.43 a 16.55,16.55 0 0 1 -2.82,0.86 17.39,17.39 0 0 1 2.69,-1.21 c 1.69,-0.68 4,-1.59 6.62,-2.57 2.62,-0.98 5,-1.83 6.68,-2.42 a 15.47,15.47 0 0 1 2.82,-0.86 z"
       style="fill:#afb23a"
       id="path80" />
    <path
       d="m 411.52,324.71 c 0.06,0.13 -7.53,3.67 -16.95,7.91 -9.42,4.24 -17.11,7.56 -17.17,7.43 -0.06,-0.13 7.53,-3.67 17,-7.91 9.47,-4.24 17.06,-7.56 17.12,-7.43 z"
       style="fill:#afb23a"
       id="path82" />
    <path
       d="m 416.5,304.21 c 0.06,0.13 -6.21,3.07 -14,6.57 -7.79,3.5 -14.15,6.24 -14.21,6.11 -0.06,-0.13 6.2,-3.08 14,-6.58 7.8,-3.5 14.15,-6.23 14.21,-6.1 z"
       style="fill:#afb23a"
       id="path84" />
    <path
       d="m 418.79,281.18 c 0.06,0.13 -6.21,3.07 -14,6.57 -7.79,3.5 -14.15,6.24 -14.21,6.11 -0.06,-0.13 6.2,-3.08 14,-6.58 7.8,-3.5 14.15,-6.28 14.21,-6.1 z"
       style="fill:#afb23a"
       id="path86" />
    <path
       d="m 421.08,258.14 c 0.06,0.13 -6.2,3.08 -14,6.58 -7.8,3.5 -14.15,6.23 -14.21,6.1 -0.06,-0.13 6.21,-3.07 14,-6.57 7.79,-3.5 14.13,-6.25 14.21,-6.11 z"
       style="fill:#afb23a"
       id="path88" />
    <path
       d="m 423.38,235.11 c 0.05,0.13 -6.21,3.08 -14,6.58 -7.79,3.5 -14.15,6.23 -14.21,6.1 -0.06,-0.13 6.21,-3.07 14,-6.58 7.79,-3.51 14.15,-6.21 14.21,-6.1 z"
       style="fill:#afb23a"
       id="path90" />
    <path
       d="m 418.79,214.6 c 0.06,0.13 -6.21,3.08 -14,6.58 -7.79,3.5 -14.15,6.23 -14.21,6.1 -0.06,-0.13 6.2,-3.08 14,-6.58 7.8,-3.5 14.15,-6.23 14.21,-6.1 z"
       style="fill:#afb23a"
       id="path92" />
    <path
       d="m 418.79,192.52 c 0.06,0.13 -6.21,3.08 -14,6.58 -7.79,3.5 -14.15,6.23 -14.21,6.1 -0.06,-0.13 6.2,-3.08 14,-6.58 7.8,-3.5 14.15,-6.23 14.21,-6.1 z"
       style="fill:#afb23a"
       id="path94" />
    <path
       d="m 416.5,171.73 c 0.06,0.13 -6.21,3.07 -14,6.57 -7.79,3.5 -14.15,6.24 -14.21,6.11 -0.06,-0.13 6.2,-3.08 14,-6.58 7.8,-3.5 14.15,-6.23 14.21,-6.1 z"
       style="fill:#afb23a"
       id="path96" />
    <path
       d="m 396.75,157.24 a 85.43,85.43 0 0 1 -8.47,4.1 85.54,85.54 0 0 1 -8.69,3.62 81.6,81.6 0 0 1 8.47,-4.1 85.54,85.54 0 0 1 8.69,-3.62 z"
       style="fill:#afb23a"
       id="path98" />
    <path
       d="m 386.19,148.37 a 88.25,88.25 0 0 1 -8.47,4.09 85.54,85.54 0 0 1 -8.69,3.62 85.45,85.45 0 0 1 8.47,-4.08 85.54,85.54 0 0 1 8.69,-3.63 z"
       style="fill:#afb23a"
       id="path100" />
    <path
       d="m 287.68,195.91 c 0.05,0.13 -5.86,2.48 -13.2,5.24 -7.34,2.76 -13.34,4.89 -13.39,4.75 -0.05,-0.14 5.86,-2.48 13.21,-5.24 7.35,-2.76 13.33,-4.88 13.38,-4.75 z"
       style="fill:#afb23a"
       id="path102" />
    <path
       d="m 295,166.07 c 0.06,0.13 -6.36,2.66 -14.31,5.66 -7.95,3 -14.46,5.3 -14.51,5.17 -0.05,-0.13 6.36,-2.67 14.32,-5.66 7.96,-2.99 14.5,-5.31 14.5,-5.17 z"
       style="fill:#afb23a"
       id="path104" />
    <path
       d="m 314.27,136.53 c 0.05,0.14 -8.08,3.31 -18.16,7.1 -10.08,3.79 -18.29,6.75 -18.34,6.62 -0.05,-0.13 8.08,-3.32 18.16,-7.11 10.08,-3.79 18.29,-6.74 18.34,-6.61 z"
       style="fill:#afb23a"
       id="path106" />
    <path
       d="m 456.31,325 -0.42,-0.14 -1.2,-0.47 c -0.53,-0.19 -1.22,-0.34 -2,-0.56 a 20.6,20.6 0 0 0 -2.83,-0.35 c -4.27,-0.27 -10.67,1.28 -16.86,5.92 a 47.91,47.91 0 0 0 -8.93,8.83 c -2.87,3.51 -5.68,7.48 -8.87,11.48 a 52.59,52.59 0 0 1 -11.52,11.17 41.58,41.58 0 0 1 -15.94,6.46 41,41 0 0 1 -17.19,-0.57 81.31,81.31 0 0 1 -15.06,-5.59 c -4.65,-2.15 -9,-4.34 -13.14,-6.15 a 69.79,69.79 0 0 0 -11.94,-4.03 44.05,44.05 0 0 0 -10.3,-1.18 30.87,30.87 0 0 0 -7.75,1.05 28.23,28.23 0 0 0 -4.62,1.81 l -1.14,0.6 a 2,2 0 0 1 -0.4,0.19 l 0.37,-0.23 1.12,-0.65 a 25.61,25.61 0 0 1 4.61,-1.91 30.74,30.74 0 0 1 7.8,-1.15 43.89,43.89 0 0 1 10.39,1.11 70,70 0 0 1 12,4 c 4.18,1.8 8.53,4 13.17,6.12 a 80.74,80.74 0 0 0 15,5.52 40.45,40.45 0 0 0 17,0.56 41.27,41.27 0 0 0 15.75,-6.37 52.13,52.13 0 0 0 11.44,-11.05 c 3.19,-4 6,-7.94 8.91,-11.46 a 48.18,48.18 0 0 1 9,-8.85 c 6.28,-4.64 12.77,-6.16 17.09,-5.82 a 20.63,20.63 0 0 1 2.86,0.39 c 0.8,0.25 1.49,0.41 2,0.62 l 1.19,0.52 z"
       style="fill:#ffffff"
       id="path108" />
    <path
       d="m 462.62,258.3 c 0,0.05 -0.71,0.14 -1.95,0.55 a 19.44,19.44 0 0 0 -4.83,2.59 c -1.9,1.33 -4,3.19 -6.41,5.11 a 45.74,45.74 0 0 1 -8.59,5.29 47.23,47.23 0 0 1 -17.66,4.56 c -1.17,0.1 -2.24,0.07 -3.17,0.09 -0.93,0.02 -1.73,-0.06 -2.38,-0.11 l -1.51,-0.15 a 1.63,1.63 0 0 1 -0.51,-0.09 1.89,1.89 0 0 1 0.52,0 l 1.51,0.05 h 2.37 c 0.93,-0.05 2,0 3.14,-0.16 a 49.37,49.37 0 0 0 17.47,-4.67 47.88,47.88 0 0 0 8.52,-5.2 c 2.43,-1.88 4.54,-3.73 6.5,-5 a 18,18 0 0 1 5,-2.48 11.71,11.71 0 0 1 1.48,-0.32 1.64,1.64 0 0 1 0.5,-0.06 z"
       style="fill:#ffffff"
       id="path110" />
    <path
       d="m 332,281.47 a 2.71,2.71 0 0 1 -0.54,-0.08 c -0.36,-0.08 -0.89,-0.16 -1.56,-0.35 a 23.38,23.38 0 0 1 -5.36,-2.35 54.22,54.22 0 0 1 -7,-5.11 c -2.51,-2.08 -5.19,-4.45 -8.26,-6.57 a 28.31,28.31 0 0 0 -9.49,-4.35 29.29,29.29 0 0 0 -14.24,0.06 c -1.33,0.34 -2.05,0.6 -2.06,0.55 a 1.85,1.85 0 0 1 0.5,-0.23 c 0.34,-0.13 0.84,-0.33 1.51,-0.52 a 26,26 0 0 1 5.75,-1 28,28 0 0 1 8.65,0.71 28.39,28.39 0 0 1 9.67,4.39 c 3.11,2.15 5.79,4.54 8.28,6.63 a 57.31,57.31 0 0 0 6.88,5.17 26,26 0 0 0 5.23,2.47 20,20 0 0 1 2.04,0.58 z"
       style="fill:#ffffff"
       id="path112" />
    <path
       d="m 332.17,186.94 a 10.55,10.55 0 0 1 -1.67,0.61 20.07,20.07 0 0 1 -2,0.59 c -0.79,0.2 -1.68,0.47 -2.69,0.65 -1.01,0.18 -2.1,0.43 -3.3,0.58 -1.2,0.15 -2.47,0.29 -3.82,0.41 a 58.06,58.06 0 0 1 -8.8,-0.11 58.77,58.77 0 0 1 -8.67,-1.53 c -1.3,-0.37 -2.55,-0.71 -3.68,-1.12 -1.13,-0.41 -2.19,-0.79 -3.13,-1.18 -0.94,-0.39 -1.78,-0.8 -2.52,-1.14 -0.74,-0.34 -1.35,-0.67 -1.85,-0.95 a 11.57,11.57 0 0 1 -1.52,-0.91 12.19,12.19 0 0 1 1.61,0.73 c 0.51,0.25 1.14,0.56 1.88,0.87 0.74,0.31 1.58,0.71 2.54,1.05 0.96,0.34 2,0.77 3.13,1.12 1.13,0.35 2.36,0.71 3.66,1.06 a 57,57 0 0 0 17.32,1.63 c 1.34,-0.11 2.61,-0.18 3.8,-0.36 1.19,-0.18 2.28,-0.33 3.28,-0.51 1,-0.18 1.89,-0.4 2.68,-0.57 0.79,-0.17 1.47,-0.35 2,-0.5 a 12.55,12.55 0 0 1 1.75,-0.42 z"
       style="fill:#ffffff"
       id="path114" />
    <path
       d="m 456.94,186.69 a 2.1,2.1 0 0 1 -0.42,-0.21 l -1.16,-0.67 a 19.68,19.68 0 0 0 -1.86,-1 26.55,26.55 0 0 0 -2.53,-1.19 l -1.5,-0.63 c -0.53,-0.21 -1.09,-0.37 -1.67,-0.57 -1.14,-0.42 -2.41,-0.71 -3.74,-1.06 a 41.39,41.39 0 0 0 -17.68,-0.15 37.92,37.92 0 0 0 -3.76,1 c -0.58,0.19 -1.15,0.34 -1.68,0.54 l -1.51,0.6 a 27.52,27.52 0 0 0 -2.55,1.15 16.51,16.51 0 0 0 -1.87,1 l -1.18,0.65 c -0.27,0.14 -0.42,0.21 -0.43,0.19 a 1.8,1.8 0 0 1 0.38,-0.28 l 1.12,-0.74 a 15.93,15.93 0 0 1 1.85,-1.06 23.32,23.32 0 0 1 2.54,-1.23 l 1.51,-0.64 c 0.53,-0.21 1.11,-0.37 1.69,-0.57 a 35.7,35.7 0 0 1 3.79,-1.05 40.12,40.12 0 0 1 17.89,0.16 c 1.34,0.36 2.62,0.67 3.77,1.11 0.58,0.21 1.15,0.38 1.67,0.61 l 1.51,0.66 a 28,28 0 0 1 2.52,1.27 16.33,16.33 0 0 1 1.82,1.1 l 1.12,0.76 c 0.25,0.13 0.42,0.23 0.36,0.25 z"
       style="fill:#ffffff"
       id="path116" />
    <path
       d="m 395.8,118.76 a 4.3,4.3 0 0 1 -0.72,0.44 l -2.08,1.15 c -1.85,1 -4.53,2.39 -7.89,4.07 -6.7,3.31 -16.11,7.84 -27.25,10.66 a 74.66,74.66 0 0 1 -16,2.22 57.39,57.39 0 0 1 -13.13,-1.13 45.58,45.58 0 0 1 -8.5,-2.59 c -1,-0.38 -1.69,-0.78 -2.19,-1 a 5.76,5.76 0 0 1 -0.75,-0.39 3.87,3.87 0 0 1 0.79,0.3 c 0.52,0.19 1.24,0.56 2.23,0.91 a 49.13,49.13 0 0 0 8.49,2.42 58.41,58.41 0 0 0 13.05,1 75.66,75.66 0 0 0 15.87,-2.25 c 11.07,-2.8 20.49,-7.25 27.22,-10.48 l 8,-3.93 2.06,-1.06 a 6.66,6.66 0 0 1 0.8,-0.34 z"
       style="fill:#ffffff"
       id="path118" />
    <path
       d="m 195.06,293 33.43,1.46 -1.55,35.43 -33.43,-1.46 -2.57,58.87 -44,-1.92 2.57,-58.87 -113.51,-4.96 0.09,-27 121,-173.8 45.42,2 z m -115,-5 71,3.1 4.68,-107.38 -1.07,-0.41 -4,7.65 z"
       style="fill:#afb23a"
       id="path120" />
    <g
       style="opacity:0.4"
       id="g124">
      <path
         d="m 195.06,293 33.43,1.46 -1.55,35.43 -33.43,-1.46 -2.57,58.87 -44,-1.92 2.57,-58.87 -113.51,-4.96 0.09,-27 121,-173.8 45.42,2 z m -115,-5 71,3.1 4.68,-107.38 -1.07,-0.41 -4,7.65 z"
         id="path122" />
    </g>
    <path
       d="m 223,294.22 33.43,1.46 -1.55,35.43 -33.43,-1.46 -2.57,58.87 -44,-1.92 2.57,-58.87 -113.56,-5 0.09,-27 L 185,122 l 45.43,2 z m -115,-5 71.05,3.1 4.68,-107.38 -1.07,-0.41 -4,7.65 z"
       style="fill:#afb23a"
       id="path126" />
    <path
       d="m 64.59,300.92 a 5.51,5.51 0 0 1 -1.08,0.61 c -0.71,0.36 -1.75,0.86 -3,1.46 -2.57,1.21 -6.16,2.82 -10.17,4.52 -4.01,1.7 -7.66,3.14 -10.32,4.15 -1.33,0.5 -2.42,0.89 -3.17,1.15 a 6.3,6.3 0 0 1 -1.19,0.36 5.4,5.4 0 0 1 1.12,-0.55 l 3.1,-1.31 10.22,-4.31 10.22,-4.37 3.11,-1.32 a 6,6 0 0 1 1.16,-0.39 z"
       style="fill:#afb23a"
       id="path128" />
    <path
       d="m 80.87,271 a 12.43,12.43 0 0 1 -1.51,0.79 c -1,0.48 -2.42,1.16 -4.2,2 -3.57,1.62 -8.52,3.79 -14,6.12 -5.48,2.33 -10.55,4.32 -14.16,5.74 -1.82,0.72 -3.3,1.28 -4.34,1.65 a 9.12,9.12 0 0 1 -1.62,0.52 12.2,12.2 0 0 1 1.55,-0.71 l 4.27,-1.8 14.11,-5.93 14.08,-6 4.27,-1.81 A 8.85,8.85 0 0 1 80.87,271 Z"
       style="fill:#afb23a"
       id="path130" />
    <path
       d="m 100.74,244.27 a 10.48,10.48 0 0 1 -1.58,0.8 c -1,0.48 -2.53,1.16 -4.39,2 -3.73,1.63 -8.9,3.8 -14.64,6.13 -5.74,2.33 -11,4.36 -14.79,5.79 -1.9,0.71 -3.45,1.27 -4.52,1.64 a 9.72,9.72 0 0 1 -1.69,0.52 13.59,13.59 0 0 1 1.62,-0.71 l 4.46,-1.8 14.72,-5.93 14.69,-6 4.46,-1.81 a 11.49,11.49 0 0 1 1.66,-0.63 z"
       style="fill:#afb23a"
       id="path132" />
    <path
       d="m 180.33,275.11 a 5.69,5.69 0 0 1 -1.09,0.59 c -0.71,0.35 -1.75,0.83 -3.05,1.41 -2.58,1.17 -6.18,2.72 -10.19,4.35 -4.01,1.63 -7.68,3 -10.34,4 -1.34,0.48 -2.42,0.86 -3.17,1.11 a 6.54,6.54 0 0 1 -1.19,0.33 5.22,5.22 0 0 1 1.11,-0.52 l 3.12,-1.26 10.28,-4.12 10.24,-4.2 3.11,-1.27 a 5.66,5.66 0 0 1 1.17,-0.42 z"
       style="fill:#afb23a"
       id="path134" />
    <path
       d="m 177.09,330.05 a 5.41,5.41 0 0 1 -1.05,0.59 c -0.69,0.34 -1.7,0.83 -2.95,1.41 -2.5,1.17 -6,2.72 -9.87,4.34 -3.87,1.62 -7.45,3 -10,4 -1.3,0.48 -2.35,0.86 -3.08,1.1 a 5.51,5.51 0 0 1 -1.16,0.34 5.35,5.35 0 0 1 1.08,-0.53 l 3,-1.26 10,-4.11 9.92,-4.2 3,-1.26 a 5.67,5.67 0 0 1 1.11,-0.42 z"
       style="fill:#afb23a"
       id="path136" />
    <path
       d="m 176.63,349.31 a 5.14,5.14 0 0 1 -1,0.58 c -0.69,0.35 -1.7,0.83 -3,1.42 -2.5,1.16 -6,2.71 -9.88,4.34 -3.88,1.63 -7.44,3 -10,4 -1.29,0.48 -2.34,0.86 -3.08,1.11 a 4.58,4.58 0 0 1 -1.15,0.33 6.14,6.14 0 0 1 1.08,-0.52 l 3,-1.26 10,-4.11 9.93,-4.2 3,-1.26 a 4.77,4.77 0 0 1 1.1,-0.43 z"
       style="fill:#afb23a"
       id="path138" />
    <path
       d="m 176.17,368.56 a 5.86,5.86 0 0 1 -1,0.59 c -0.69,0.35 -1.7,0.83 -3,1.41 -2.51,1.17 -6,2.72 -9.88,4.34 -3.88,1.62 -7.44,3 -10,4 -1.29,0.48 -2.35,0.86 -3.08,1.1 a 5.74,5.74 0 0 1 -1.15,0.34 5.27,5.27 0 0 1 1.08,-0.53 l 3,-1.25 10,-4.12 9.93,-4.2 3,-1.26 a 5.38,5.38 0 0 1 1.1,-0.42 z"
       style="fill:#afb23a"
       id="path140" />
    <path
       d="m 180.85,254.77 a 6.48,6.48 0 0 1 -1.09,0.59 c -0.71,0.35 -1.75,0.83 -3,1.41 -2.58,1.17 -6.18,2.72 -10.19,4.35 -4.01,1.63 -7.68,3 -10.34,4 -1.34,0.48 -2.42,0.86 -3.17,1.1 a 6.21,6.21 0 0 1 -1.19,0.34 4.88,4.88 0 0 1 1.11,-0.53 l 3.12,-1.26 10.28,-4.11 10.24,-4.2 3.11,-1.26 a 5.66,5.66 0 0 1 1.12,-0.43 z"
       style="fill:#afb23a"
       id="path142" />
    <path
       d="m 181.37,234.43 a 6.48,6.48 0 0 1 -1.09,0.59 c -0.71,0.34 -1.75,0.83 -3.05,1.41 -2.58,1.17 -6.18,2.72 -10.19,4.34 -4.01,1.62 -7.67,3 -10.34,4 -1.34,0.48 -2.42,0.85 -3.17,1.1 a 6.21,6.21 0 0 1 -1.19,0.34 4.85,4.85 0 0 1 1.12,-0.53 l 3.11,-1.26 10.28,-4.11 10.24,-4.2 3.11,-1.26 a 5.66,5.66 0 0 1 1.17,-0.42 z"
       style="fill:#afb23a"
       id="path144" />
    <path
       d="m 181.89,214.09 a 5.73,5.73 0 0 1 -1,0.56 c -0.67,0.33 -1.66,0.79 -2.89,1.35 -2.47,1.12 -5.89,2.61 -9.71,4.15 -3.82,1.54 -7.32,2.87 -9.86,3.78 -1.27,0.45 -2.3,0.81 -3,1 a 5.31,5.31 0 0 1 -1.14,0.32 5.14,5.14 0 0 1 1.07,-0.51 l 3,-1.2 9.79,-3.91 9.76,-4 3,-1.2 a 4.61,4.61 0 0 1 0.98,-0.34 z"
       style="fill:#afb23a"
       id="path146" />
    <path
       d="m 184.19,195.08 a 29.12,29.12 0 0 1 -5,2.13 28.82,28.82 0 0 1 -5.19,1.65 29.24,29.24 0 0 1 5,-2.14 28.23,28.23 0 0 1 5.19,-1.64 z"
       style="fill:#afb23a"
       id="path148" />
    <path
       d="m 120.57,216.59 a 12.75,12.75 0 0 1 -1.57,0.8 c -1,0.48 -2.53,1.15 -4.4,2 -3.72,1.63 -8.89,3.8 -14.64,6.13 -5.75,2.33 -11,4.37 -14.78,5.79 -1.9,0.71 -3.45,1.27 -4.52,1.64 a 13.06,13.06 0 0 1 -1.69,0.53 10.33,10.33 0 0 1 1.62,-0.72 l 4.46,-1.79 14.72,-5.97 14.69,-6 4.45,-1.81 a 13.28,13.28 0 0 1 1.66,-0.6 z"
       style="fill:#afb23a"
       id="path150" />
    <path
       d="m 140.41,188.9 a 10.48,10.48 0 0 1 -1.58,0.8 c -1,0.48 -2.53,1.16 -4.39,2 -3.72,1.62 -8.9,3.8 -14.64,6.12 -5.74,2.32 -11,4.37 -14.78,5.79 -1.91,0.72 -3.45,1.28 -4.53,1.65 a 10.12,10.12 0 0 1 -1.68,0.52 12,12 0 0 1 1.61,-0.71 l 4.46,-1.8 14.72,-5.93 14.7,-6 4.45,-1.82 a 12,12 0 0 1 1.66,-0.62 z"
       style="fill:#afb23a"
       id="path152" />
    <path
       d="m 158.74,161.22 a 12.53,12.53 0 0 1 -1.58,0.8 c -1,0.48 -2.53,1.15 -4.39,2 -3.72,1.63 -8.9,3.8 -14.64,6.13 -5.74,2.33 -11,4.37 -14.78,5.79 -1.9,0.71 -3.45,1.27 -4.52,1.64 a 13.06,13.06 0 0 1 -1.69,0.53 10.33,10.33 0 0 1 1.62,-0.72 l 4.46,-1.79 14.72,-5.93 14.69,-6 4.45,-1.81 a 10.1,10.1 0 0 1 1.66,-0.64 z"
       style="fill:#afb23a"
       id="path154" />
    <path
       d="m 177.82,134.6 a 13.55,13.55 0 0 1 -1.58,0.8 c -1,0.48 -2.53,1.15 -4.39,2 -3.73,1.63 -8.9,3.8 -14.64,6.13 -5.74,2.33 -11,4.37 -14.79,5.79 -1.9,0.71 -3.44,1.27 -4.52,1.64 a 12,12 0 0 1 -1.69,0.53 10.94,10.94 0 0 1 1.62,-0.72 l 4.46,-1.79 14.71,-5.98 14.69,-6 4.46,-1.81 a 12,12 0 0 1 1.67,-0.59 z"
       style="fill:#afb23a"
       id="path156" />
    <path
       d="m 228.44,175.27 a 3.8,3.8 0 0 1 -0.58,0.66 19.78,19.78 0 0 1 -1.81,1.75 31.77,31.77 0 0 1 -7.77,5 34.22,34.22 0 0 1 -13.36,3 31.29,31.29 0 0 1 -8.09,-0.91 41,41 0 0 1 -8.17,-3.05 c -5.38,-2.62 -10.16,-5.71 -14.83,-7.86 a 34,34 0 0 0 -13.1,-3.42 19.42,19.42 0 0 0 -8.93,1.67 15.49,15.49 0 0 0 -2.17,1.24 6.15,6.15 0 0 1 -0.74,0.47 6.16,6.16 0 0 1 0.68,-0.55 14,14 0 0 1 2.14,-1.34 19.19,19.19 0 0 1 9,-1.86 33.9,33.9 0 0 1 13.29,3.41 c 4.72,2.15 9.52,5.23 14.85,7.83 a 41.44,41.44 0 0 0 8.08,3 31.09,31.09 0 0 0 7.95,0.92 33.65,33.65 0 0 0 21,-7.73 c 0.85,-0.68 1.45,-1.28 1.87,-1.67 a 5.64,5.64 0 0 1 0.69,-0.56 z"
       style="fill:#ffffff"
       id="path158" />
    <path
       d="m 214.52,125.83 a 9.27,9.27 0 0 1 -1.27,0.74 c -0.83,0.45 -2.07,1 -3.63,1.7 a 54,54 0 0 1 -5.6,2 56.76,56.76 0 0 1 -14.34,2.34 53.2,53.2 0 0 1 -6,-0.12 c -1.69,-0.13 -3,-0.29 -4,-0.46 a 8.44,8.44 0 0 1 -1.44,-0.29 7.68,7.68 0 0 1 1.47,0.09 c 0.93,0.11 2.29,0.21 4,0.29 1.71,0.08 3.69,0.1 5.91,0 a 67.89,67.89 0 0 0 7.18,-0.74 69.23,69.23 0 0 0 7,-1.58 c 2.13,-0.62 4,-1.26 5.59,-1.88 1.59,-0.62 2.82,-1.15 3.68,-1.54 a 8.14,8.14 0 0 1 1.45,-0.55 z"
       style="fill:#ffffff"
       id="path160" />
    <path
       d="m 143.52,236.89 a 7.42,7.42 0 0 1 -0.9,-1 l -2.36,-2.82 a 112.47,112.47 0 0 0 -8.38,-8.75 30.65,30.65 0 0 0 -5.25,-4 15.94,15.94 0 0 0 -5,-1.94 14.07,14.07 0 0 0 -4.95,0 c 0,0 0.11,-0.06 0.33,-0.13 a 5.5,5.5 0 0 1 1,-0.23 11.2,11.2 0 0 1 3.71,0 15.52,15.52 0 0 1 5.17,1.89 29.14,29.14 0 0 1 5.37,4.07 87.5,87.5 0 0 1 8.3,8.9 c 1,1.21 1.74,2.22 2.24,2.92 a 6.14,6.14 0 0 1 0.72,1.09 z"
       style="fill:#ffffff"
       id="path162" />
    <path
       d="m 223.29,267.1 c 0,0 -0.13,0.12 -0.39,0.3 -0.26,0.18 -0.65,0.47 -1.19,0.77 a 29.6,29.6 0 0 1 -4.71,2.23 30.6,30.6 0 0 1 -32,-6.55 28.06,28.06 0 0 1 -3.44,-3.89 c -0.37,-0.49 -0.61,-0.9 -0.79,-1.17 -0.18,-0.27 -0.26,-0.42 -0.24,-0.43 a 17.49,17.49 0 0 1 1.19,1.48 34.09,34.09 0 0 0 3.53,3.74 31.15,31.15 0 0 0 31.59,6.47 32.72,32.72 0 0 0 4.71,-2.06 17.89,17.89 0 0 1 1.74,-0.89 z"
       style="fill:#ffffff"
       id="path164" />
    <path
       d="m 252.42,330.42 c 0,0 -0.1,-0.15 -0.28,-0.47 -0.18,-0.32 -0.46,-0.78 -0.8,-1.38 a 38.37,38.37 0 0 0 -3.42,-5.07 l -1.36,-1.6 -0.73,-0.87 -0.85,-0.83 -1.8,-1.78 -2.1,-1.74 a 47.28,47.28 0 0 0 -11,-6.53 45.12,45.12 0 0 0 -15,-3.49 41.78,41.78 0 0 0 -17.43,2.8 c -5.85,2.3 -11.5,5.77 -17.48,9.13 a 82.88,82.88 0 0 1 -9.39,4.66 38.33,38.33 0 0 1 -10.47,2.75 33.78,33.78 0 0 1 -10.78,-0.65 48.23,48.23 0 0 1 -9.93,-3.35 104,104 0 0 1 -16.92,-10.28 c -5.13,-3.65 -10,-7.18 -14.81,-10 a 53.29,53.29 0 0 0 -14.23,-6.08 36.49,36.49 0 0 0 -12.71,-0.84 27.11,27.11 0 0 0 -9.23,2.67 23.32,23.32 0 0 0 -5,3.45 L 65.54,302 c -0.25,0.25 -0.39,0.37 -0.39,0.37 0,0 0.11,-0.14 0.36,-0.41 l 1.09,-1.17 a 22.88,22.88 0 0 1 5,-3.55 27.07,27.07 0 0 1 9.3,-2.78 36.55,36.55 0 0 1 12.83,0.77 54.12,54.12 0 0 1 14.36,6.06 c 4.87,2.82 9.73,6.34 14.87,10 a 103.75,103.75 0 0 0 16.85,10.2 47.38,47.38 0 0 0 9.82,3.35 33.46,33.46 0 0 0 10.63,0.64 38,38 0 0 0 10.31,-2.7 85.34,85.34 0 0 0 9.34,-4.62 c 6,-3.35 11.64,-6.83 17.54,-9.14 a 37.89,37.89 0 0 1 4.46,-1.44 c 0.75,-0.19 1.49,-0.42 2.23,-0.57 l 2.24,-0.37 a 42.78,42.78 0 0 1 8.7,-0.4 45.48,45.48 0 0 1 15.17,3.58 47.86,47.86 0 0 1 11,6.64 c 0.72,0.61 1.42,1.21 2.1,1.77 l 1.79,1.81 0.84,0.84 c 0.25,0.3 0.5,0.59 0.73,0.88 0.48,0.57 0.93,1.11 1.35,1.63 a 35.47,35.47 0 0 1 3.35,5.14 q 0.49,0.92 0.75,1.41 c 0.19,0.31 0.26,0.48 0.26,0.48 z"
       style="fill:#ffffff"
       id="path166" />
    <path
       d="m 222.2,372.19 a 2,2 0 0 1 -0.51,0.13 l -1.48,0.28 a 23.13,23.13 0 0 1 -2.35,0.35 c -0.92,0.09 -2,0.24 -3.14,0.27 l -1.84,0.08 c -0.63,0 -1.3,0 -2,0 -1.37,0 -2.84,-0.13 -4.38,-0.25 a 60.47,60.47 0 0 1 -9.87,-1.92 61.27,61.27 0 0 1 -9.36,-3.68 c -1.36,-0.73 -2.67,-1.4 -3.83,-2.15 -0.58,-0.36 -1.16,-0.69 -1.69,-1 l -1.5,-1.05 c -1,-0.65 -1.77,-1.34 -2.5,-1.92 a 22,22 0 0 1 -1.81,-1.55 c -0.43,-0.42 -0.8,-0.76 -1.09,-1 a 2.14,2.14 0 0 1 -0.36,-0.39 2.27,2.27 0 0 1 0.43,0.31 l 1.16,1 c 0.49,0.42 1.1,0.93 1.85,1.47 0.75,0.54 1.55,1.22 2.53,1.85 l 1.51,1 c 0.53,0.35 1.11,0.67 1.69,1 1.16,0.73 2.47,1.38 3.83,2.09 a 57.13,57.13 0 0 0 19.06,5.55 c 1.53,0.13 3,0.29 4.35,0.3 0.68,0 1.34,0.06 2,0 h 1.82 c 1.16,0 2.21,-0.13 3.13,-0.19 0.92,-0.06 1.71,-0.16 2.35,-0.26 l 1.49,-0.18 a 1.79,1.79 0 0 1 0.51,-0.14 z"
       style="fill:#ffffff"
       id="path168" />
    <path
       d="m 629.32,293.41 33.3,-3.25 3.45,35.29 -33.3,3.26 5.73,58.64 -43.8,4.29 -5.7,-58.64 -113.16,11.06 -3.71,-26.73 95.35,-189.09 45.25,-4.43 z m -114.58,11.21 70.77,-6.92 -10.46,-107 -1.12,-0.25 -2.86,8.14 z"
       style="fill:#afb23a"
       id="path170" />
    <g
       style="opacity:0.4"
       id="g174">
      <path
         d="m 629.32,293.41 33.3,-3.25 3.45,35.29 -33.3,3.26 5.73,58.64 -43.8,4.29 -5.7,-58.64 -113.16,11.06 -3.71,-26.73 95.35,-189.09 45.25,-4.43 z m -114.58,11.21 70.77,-6.92 -10.46,-107 -1.12,-0.25 -2.86,8.14 z"
         id="path172" />
    </g>
    <path
       d="m 657.17,290.69 33.3,-3.26 3.46,35.3 -33.31,3.27 5.74,58.65 -43.81,4.28 -5.73,-58.64 -113.13,11.04 -3.69,-26.72 95.35,-189.09 45.25,-4.43 z m -114.57,11.2 70.77,-6.89 -10.46,-107 -1.13,-0.26 -2.85,8.14 z"
       style="fill:#afb23a"
       id="path176" />
    <path
       d="m 501.26,319.61 a 6,6 0 0 1 -1,0.75 c -0.65,0.46 -1.61,1.1 -2.8,1.88 -2.39,1.56 -5.71,3.66 -9.44,5.9 -3.73,2.24 -7.14,4.19 -9.64,5.56 -1.24,0.68 -2.26,1.23 -3,1.59 a 6.08,6.08 0 0 1 -1.13,0.52 5.07,5.07 0 0 1 1,-0.7 l 2.89,-1.73 9.56,-5.69 9.5,-5.76 2.89,-1.74 a 5.62,5.62 0 0 1 1.17,-0.58 z"
       style="fill:#afb23a"
       id="path178" />
    <path
       d="m 513.16,287.67 a 10.93,10.93 0 0 1 -1.38,1 c -0.9,0.61 -2.23,1.48 -3.88,2.54 -3.3,2.11 -7.9,5 -13,8 -5.1,3 -9.8,5.81 -13.21,7.73 -1.7,1 -3.09,1.73 -4.06,2.24 a 11.91,11.91 0 0 1 -1.53,0.75 10.54,10.54 0 0 1 1.43,-0.93 l 4,-2.38 13.13,-7.85 13.09,-7.91 4,-2.39 a 10.67,10.67 0 0 1 1.41,-0.8 z"
       style="fill:#afb23a"
       id="path180" />
    <path
       d="m 529.08,258.44 a 11.4,11.4 0 0 1 -1.45,1 c -1,0.62 -2.34,1.5 -4.07,2.57 -3.46,2.13 -8.28,5 -13.64,8.12 -5.36,3.12 -10.25,5.87 -13.82,7.87 -1.78,1 -3.23,1.75 -4.24,2.27 a 11.7,11.7 0 0 1 -1.6,0.75 11.74,11.74 0 0 1 1.5,-0.93 l 4.16,-2.41 13.74,-7.94 13.71,-8 4.15,-2.42 a 11.76,11.76 0 0 1 1.56,-0.88 z"
       style="fill:#afb23a"
       id="path182" />
    <path
       d="m 612.22,277.78 a 5.66,5.66 0 0 1 -1,0.73 c -0.65,0.45 -1.62,1.07 -2.81,1.83 -2.4,1.52 -5.74,3.56 -9.48,5.74 -3.74,2.18 -7.18,4.06 -9.69,5.38 -1.25,0.67 -2.27,1.19 -3,1.54 a 5.78,5.78 0 0 1 -1.13,0.5 5.71,5.71 0 0 1 1,-0.68 l 2.91,-1.68 9.59,-5.52 9.55,-5.59 2.91,-1.69 a 5.59,5.59 0 0 1 1.15,-0.56 z"
       style="fill:#afb23a"
       id="path184" />
    <path
       d="m 616.74,332.62 a 5.12,5.12 0 0 1 -1,0.73 c -0.63,0.44 -1.56,1.06 -2.72,1.82 -2.31,1.5 -5.54,3.53 -9.16,5.69 -3.62,2.16 -6.95,4 -9.38,5.34 -1.21,0.66 -2.2,1.18 -2.89,1.53 a 5,5 0 0 1 -1.1,0.49 5.72,5.72 0 0 1 1,-0.67 l 2.81,-1.67 9.29,-5.47 9.24,-5.56 2.81,-1.67 a 5.13,5.13 0 0 1 1.1,-0.56 z"
       style="fill:#afb23a"
       id="path186" />
    <path
       d="m 619,351.75 a 5.12,5.12 0 0 1 -1,0.73 c -0.63,0.44 -1.56,1.06 -2.72,1.82 -2.31,1.5 -5.54,3.53 -9.16,5.68 -3.62,2.15 -6.95,4 -9.38,5.35 -1.21,0.66 -2.2,1.18 -2.89,1.53 a 5,5 0 0 1 -1.1,0.49 5.72,5.72 0 0 1 1,-0.67 l 2.81,-1.67 9.29,-5.47 9.24,-5.56 2.81,-1.67 a 5.13,5.13 0 0 1 1.1,-0.56 z"
       style="fill:#afb23a"
       id="path188" />
    <path
       d="m 621.24,370.88 a 5.12,5.12 0 0 1 -1,0.73 c -0.63,0.44 -1.56,1.06 -2.72,1.81 -2.31,1.51 -5.54,3.54 -9.16,5.69 -3.62,2.15 -6.95,4 -9.38,5.35 -1.21,0.66 -2.2,1.18 -2.89,1.53 a 5.75,5.75 0 0 1 -1.1,0.49 5.72,5.72 0 0 1 1,-0.67 l 2.81,-1.67 9.29,-5.47 9.24,-5.56 2.81,-1.67 a 5.13,5.13 0 0 1 1.1,-0.56 z"
       style="fill:#afb23a"
       id="path190" />
    <path
       d="m 609.87,257.56 a 6.09,6.09 0 0 1 -1,0.74 c -0.66,0.44 -1.62,1.07 -2.82,1.83 -2.4,1.51 -5.74,3.56 -9.48,5.73 -3.74,2.17 -7.18,4.06 -9.68,5.39 -1.26,0.66 -2.28,1.19 -3,1.54 a 5.78,5.78 0 0 1 -1.13,0.5 6.12,6.12 0 0 1 1,-0.68 l 2.9,-1.68 9.6,-5.52 9.55,-5.6 2.9,-1.68 a 6.13,6.13 0 0 1 1.16,-0.57 z"
       style="fill:#afb23a"
       id="path192" />
    <path
       d="m 607.52,237.35 a 5.54,5.54 0 0 1 -1,0.74 c -0.66,0.44 -1.62,1.06 -2.82,1.82 -2.39,1.52 -5.73,3.57 -9.48,5.74 -3.75,2.17 -7.17,4.06 -9.68,5.39 -1.25,0.66 -2.27,1.19 -3,1.54 a 4.9,4.9 0 0 1 -1.13,0.49 5.43,5.43 0 0 1 1,-0.67 l 2.9,-1.69 9.6,-5.51 9.55,-5.6 2.9,-1.69 a 6.32,6.32 0 0 1 1.16,-0.56 z"
       style="fill:#afb23a"
       id="path194" />
    <path
       d="m 605.18,217.14 a 5.11,5.11 0 0 1 -0.94,0.7 c -0.63,0.43 -1.55,1 -2.69,1.75 -2.27,1.45 -5.45,3.4 -9,5.47 -3.55,2.07 -6.84,3.87 -9.23,5.13 l -2.85,1.46 a 5.37,5.37 0 0 1 -1.08,0.47 5.93,5.93 0 0 1 1,-0.65 l 2.76,-1.61 9.15,-5.25 9.09,-5.34 2.77,-1.6 a 5.19,5.19 0 0 1 1.02,-0.53 z"
       style="fill:#afb23a"
       id="path196" />
    <path
       d="m 604.78,198 a 28.31,28.31 0 0 1 -4.66,2.82 30,30 0 0 1 -4.91,2.37 28.31,28.31 0 0 1 4.66,-2.82 29.62,29.62 0 0 1 4.91,-2.37 z"
       style="fill:#afb23a"
       id="path198" />
    <path
       d="m 544.82,228.24 a 10.71,10.71 0 0 1 -1.44,1 c -1,0.62 -2.35,1.5 -4.08,2.57 -3.45,2.13 -8.27,5 -13.63,8.12 -5.36,3.12 -10.25,5.87 -13.82,7.81 -1.78,1 -3.24,1.75 -4.25,2.27 a 12.79,12.79 0 0 1 -1.59,0.75 10.85,10.85 0 0 1 1.5,-0.93 l 4.16,-2.41 13.74,-7.94 13.7,-8 4.16,-2.42 a 12.15,12.15 0 0 1 1.55,-0.82 z"
       style="fill:#afb23a"
       id="path200" />
    <path
       d="m 560.57,198 a 11.4,11.4 0 0 1 -1.45,1 c -1,0.62 -2.34,1.5 -4.07,2.57 -3.46,2.13 -8.28,5 -13.63,8.12 -5.35,3.12 -10.26,5.87 -13.83,7.81 -1.78,1 -3.23,1.75 -4.24,2.27 a 11.7,11.7 0 0 1 -1.6,0.75 11.74,11.74 0 0 1 1.5,-0.93 l 4.16,-2.41 13.74,-7.94 13.71,-8 4.16,-2.42 a 11.38,11.38 0 0 1 1.55,-0.82 z"
       style="fill:#afb23a"
       id="path202" />
    <path
       d="m 574.83,168.05 a 11.4,11.4 0 0 1 -1.45,1 c -1,0.62 -2.34,1.5 -4.07,2.57 -3.46,2.13 -8.28,5 -13.64,8.12 -5.36,3.12 -10.25,5.87 -13.82,7.81 -1.78,1 -3.23,1.75 -4.24,2.27 a 12.41,12.41 0 0 1 -1.6,0.75 11.74,11.74 0 0 1 1.5,-0.93 l 4.16,-2.41 13.74,-7.94 13.71,-8 4.15,-2.42 a 11.06,11.06 0 0 1 1.56,-0.82 z"
       style="fill:#afb23a"
       id="path204" />
    <path
       d="m 590,139 a 11.4,11.4 0 0 1 -1.45,1 c -0.95,0.62 -2.34,1.5 -4.07,2.57 -3.46,2.13 -8.28,5 -13.64,8.13 -5.36,3.13 -10.25,5.86 -13.82,7.81 -1.78,1 -3.23,1.74 -4.24,2.26 a 11.87,11.87 0 0 1 -1.6,0.76 9.86,9.86 0 0 1 1.5,-0.94 l 4.16,-2.4 13.74,-8 13.71,-8 4.15,-2.42 A 11.76,11.76 0 0 1 590,139 Z"
       style="fill:#afb23a"
       id="path206" />
    <path
       d="m 645.81,172.16 a 4.85,4.85 0 0 1 -0.48,0.73 19.44,19.44 0 0 1 -1.55,2 31.58,31.58 0 0 1 -7,6.06 34.08,34.08 0 0 1 -12.8,4.9 31.3,31.3 0 0 1 -8.13,0.23 41.1,41.1 0 0 1 -8.52,-1.87 c -5.7,-1.83 -10.86,-4.22 -15.79,-5.7 A 34.15,34.15 0 0 0 578.1,177 a 19.52,19.52 0 0 0 -8.61,2.91 16.8,16.8 0 0 0 -2,1.53 4.52,4.52 0 0 1 -0.66,0.57 5,5 0 0 1 0.59,-0.64 14.06,14.06 0 0 1 1.93,-1.63 19.17,19.17 0 0 1 8.68,-3.1 33.9,33.9 0 0 1 13.66,1.36 c 5,1.47 10.16,3.84 15.8,5.67 a 41.93,41.93 0 0 0 8.42,1.86 31.31,31.31 0 0 0 8,-0.21 34.11,34.11 0 0 0 12.67,-4.73 33.17,33.17 0 0 0 7,-5.88 23.22,23.22 0 0 0 1.61,-1.92 6.22,6.22 0 0 1 0.62,-0.63 z"
       style="fill:#ffffff"
       id="path208" />
    <path
       d="m 625.07,125.17 a 8.08,8.08 0 0 1 -1.15,0.91 c -0.76,0.57 -1.9,1.32 -3.35,2.19 a 54,54 0 0 1 -5.26,2.77 62.86,62.86 0 0 1 -6.8,2.61 62,62 0 0 1 -7.08,1.73 57.2,57.2 0 0 1 -5.9,0.72 c -1.69,0.11 -3.06,0.13 -4,0.1 a 7.14,7.14 0 0 1 -1.47,-0.09 7.81,7.81 0 0 1 1.46,-0.11 c 0.94,0 2.3,-0.12 4,-0.27 1.7,-0.15 3.66,-0.42 5.84,-0.82 a 71,71 0 0 0 7,-1.75 67.62,67.62 0 0 0 6.76,-2.56 c 2,-0.91 3.81,-1.81 5.27,-2.65 1.46,-0.84 2.63,-1.53 3.42,-2 a 8.51,8.51 0 0 1 1.26,-0.78 z"
       style="fill:#ffffff"
       id="path210" />
    <path
       d="m 570.4,245.11 a 7.52,7.52 0 0 1 -1,-0.88 l -2.74,-2.45 a 112.18,112.18 0 0 0 -9.52,-7.49 30.52,30.52 0 0 0 -5.77,-3.26 15.86,15.86 0 0 0 -5.22,-1.21 14.2,14.2 0 0 0 -4.91,0.66 c 0,0 0.1,-0.08 0.31,-0.18 a 6.5,6.5 0 0 1 0.94,-0.36 11.16,11.16 0 0 1 3.68,-0.49 15.58,15.58 0 0 1 5.38,1.14 29.11,29.11 0 0 1 5.88,3.27 88,88 0 0 1 9.48,7.65 c 1.14,1.06 2,2 2.63,2.58 a 5.88,5.88 0 0 1 0.86,1.02 z"
       style="fill:#ffffff"
       id="path212" />
    <path
       d="m 653.62,263.81 c 0,0 -0.1,0.13 -0.34,0.35 -0.24,0.22 -0.58,0.55 -1.07,0.92 a 28.17,28.17 0 0 1 -4.33,2.87 30.65,30.65 0 0 1 -32.57,-2 28,28 0 0 1 -3.94,-3.37 c -0.44,-0.43 -0.74,-0.8 -1,-1 a 1.71,1.71 0 0 1 -0.3,-0.4 c 0,0 0.5,0.46 1.39,1.3 a 33.11,33.11 0 0 0 4,3.21 31.13,31.13 0 0 0 32.18,2 33.31,33.31 0 0 0 4.38,-2.7 17.72,17.72 0 0 1 1.6,-1.18 z"
       style="fill:#ffffff"
       id="path214" />
    <path
       d="M 691.38,322.39 A 4.5,4.5 0 0 1 691,322 c -0.24,-0.29 -0.56,-0.71 -1,-1.25 a 39.27,39.27 0 0 0 -4.1,-4.54 l -1.58,-1.4 -0.84,-0.75 -1,-0.71 -2,-1.5 -2.33,-1.43 a 47.18,47.18 0 0 0 -11.78,-4.92 45.25,45.25 0 0 0 -15.37,-1.38 41.82,41.82 0 0 0 -16.86,5.23 c -5.47,3.1 -10.57,7.33 -16,11.5 a 84.91,84.91 0 0 1 -8.64,5.93 38.36,38.36 0 0 1 -10,4.19 34.19,34.19 0 0 1 -10.77,0.87 48.1,48.1 0 0 1 -10.31,-2 103,103 0 0 1 -18.19,-7.79 c -5.6,-2.9 -10.89,-5.7 -16.07,-7.81 a 53.85,53.85 0 0 0 -15,-4 36.51,36.51 0 0 0 -12.7,1 27.08,27.08 0 0 0 -8.76,3.94 24.15,24.15 0 0 0 -4.5,4.12 l -0.95,1.28 c -0.22,0.29 -0.34,0.43 -0.34,0.43 0,0 0.09,-0.16 0.29,-0.46 l 0.92,-1.31 a 22.61,22.61 0 0 1 4.46,-4.22 26.68,26.68 0 0 1 8.81,-4.06 36.51,36.51 0 0 1 12.81,-1.05 54,54 0 0 1 15.07,4 c 5.22,2.1 10.53,4.9 16.13,7.78 a 104,104 0 0 0 18.11,7.74 48,48 0 0 0 10.2,1.93 33.41,33.41 0 0 0 10.61,-0.86 37.93,37.93 0 0 0 9.83,-4.13 82.89,82.89 0 0 0 8.59,-5.89 c 5.44,-4.15 10.57,-8.39 16.09,-11.51 a 38.1,38.1 0 0 1 4.22,-2.05 c 0.71,-0.3 1.4,-0.62 2.12,-0.88 l 2.16,-0.68 a 43.28,43.28 0 0 1 8.56,-1.63 45.64,45.64 0 0 1 15.52,1.42 47.18,47.18 0 0 1 11.84,5 l 2.33,1.45 2,1.54 1,0.71 0.84,0.77 1.57,1.42 a 37.67,37.67 0 0 1 4,4.62 c 0.4,0.56 0.72,1 0.94,1.29 z"
       style="fill:#ffffff"
       id="path216" />
    <path
       d="m 667.32,368 a 2.67,2.67 0 0 1 -0.48,0.2 l -1.42,0.49 a 23.69,23.69 0 0 1 -2.28,0.67 c -0.91,0.22 -1.92,0.52 -3.08,0.71 l -1.8,0.34 c -0.63,0.11 -1.29,0.17 -2,0.26 -1.36,0.2 -2.83,0.27 -4.38,0.37 a 61.67,61.67 0 0 1 -10,-0.51 59.67,59.67 0 0 1 -9.78,-2.34 c -1.46,-0.52 -2.85,-1 -4.1,-1.58 -0.63,-0.28 -1.25,-0.52 -1.82,-0.8 l -1.63,-0.83 c -1.06,-0.51 -1.95,-1.08 -2.75,-1.55 a 22.34,22.34 0 0 1 -2,-1.28 l -1.23,-0.87 a 2.08,2.08 0 0 1 -0.41,-0.33 1.9,1.9 0 0 1 0.47,0.24 l 1.28,0.79 c 0.54,0.35 1.22,0.77 2,1.2 0.78,0.43 1.7,1 2.76,1.47 l 1.64,0.79 c 0.57,0.28 1.19,0.51 1.82,0.78 1.25,0.55 2.63,1 4.08,1.52 a 62.14,62.14 0 0 0 9.79,2.26 63,63 0 0 0 9.95,0.55 c 1.53,-0.09 3,-0.13 4.34,-0.32 0.67,-0.08 1.33,-0.13 2,-0.23 l 1.8,-0.3 c 1.15,-0.16 2.16,-0.44 3.07,-0.63 0.91,-0.19 1.67,-0.4 2.29,-0.59 l 1.45,-0.39 a 2,2 0 0 1 0.42,-0.09 z"
       style="fill:#ffffff"
       id="path218" />
    <path
       d="m 401.86,327.07 a 3.86,3.86 0 0 1 -0.88,0.55 c -0.58,0.33 -1.43,0.79 -2.49,1.35 -2.11,1.12 -5.05,2.64 -8.31,4.28 -3.26,1.64 -6.22,3.1 -8.38,4.14 l -2.56,1.2 a 4,4 0 0 1 -1,0.37 4.36,4.36 0 0 1 0.89,-0.56 c 0.58,-0.32 1.43,-0.78 2.49,-1.34 2.11,-1.12 5.05,-2.63 8.31,-4.28 3.26,-1.65 6.22,-3.1 8.37,-4.13 1.08,-0.52 2,-0.93 2.57,-1.21 a 3.65,3.65 0 0 1 0.99,-0.37 z"
       style="fill:#eb996e"
       id="path284" />
    <g
       id="freepik--Plants--inject-52">
      <path
         d="m 618.91,434 a 12.68,12.68 0 0 1 20.59,-3.57 16.46,16.46 0 0 1 -9.21,7.08 10,10 0 0 1 -11.38,-3.51"
         style="fill:#afb23a"
         id="path301" />
      <path
         d="m 611.81,435.64 a 12.85,12.85 0 0 1 2.87,-0.9 c 1.81,-0.44 4.33,-0.93 7.12,-1.39 2.79,-0.46 5.33,-0.81 7.18,-1 a 17.08,17.08 0 0 1 3,-0.23 17.8,17.8 0 0 1 -2.94,0.6 l -7.15,1.17 c -2.78,0.46 -5.3,0.9 -7.12,1.24 a 26.52,26.52 0 0 1 -2.96,0.51 z"
         style="fill:#263238"
         id="path303" />
      <path
         d="m 261.48,370.69 a 16.66,16.66 0 0 1 -3,27.69 c -3.67,-9.41 -5.08,-19.54 3,-27.69"
         style="fill:#afb23a"
         id="path305" />
      <path
         d="M 275.39,377.91 A 21.55,21.55 0 0 0 306.54,396 c -7,-11 -16.47,-20.27 -31.15,-18.11"
         style="fill:#afb23a"
         id="path307" />
      <path
         d="m 243.52,343.13 a 2.82,2.82 0 0 1 0.47,0.5 l 1.25,1.49 c 1.06,1.31 2.61,3.2 4.57,5.49 3.9,4.6 9.41,10.86 15.9,17.39 3.25,3.26 6.44,6.27 9.4,8.93 2.96,2.66 5.76,4.93 8.16,6.75 a 62.15,62.15 0 0 0 5.89,4 c 1.45,0.86 2.31,1.22 2.29,1.27 a 2.55,2.55 0 0 1 -0.64,-0.24 15.27,15.27 0 0 1 -1.75,-0.85 53.25,53.25 0 0 1 -6,-3.89 c -2.44,-1.8 -5.24,-4.07 -8.25,-6.69 -3.01,-2.62 -6.2,-5.66 -9.46,-8.92 -6.5,-6.54 -12,-12.85 -15.81,-17.52 -1.93,-2.33 -3.43,-4.26 -4.45,-5.6 l -1.18,-1.56 a 3.62,3.62 0 0 1 -0.39,-0.55 z"
         style="fill:#263238"
         id="path309" />
      <path
         d="m 260.71,384.91 c -0.09,0 0.24,-1.4 0.53,-3.67 a 39.12,39.12 0 0 0 -1.84,-17.62 c -0.75,-2.16 -1.36,-3.45 -1.28,-3.49 a 3.73,3.73 0 0 1 0.51,0.86 25.87,25.87 0 0 1 1.12,2.5 34.8,34.8 0 0 1 2.1,8.78 34.41,34.41 0 0 1 -0.25,9 24.68,24.68 0 0 1 -0.6,2.73 4.12,4.12 0 0 1 -0.29,0.91 z"
         style="fill:#263238"
         id="path311" />
      <path
         d="m 702,182.54 a 12.67,12.67 0 0 1 6.62,-19.81 16.42,16.42 0 0 1 1.87,11.45 10,10 0 0 1 -8.49,8.36"
         style="fill:#afb23a"
         id="path313" />
      <path
         d="m 700.1,189.57 a 12.44,12.44 0 0 1 0.57,-2.95 c 0.47,-1.8 1.23,-4.25 2.15,-6.93 0.92,-2.68 1.82,-5.08 2.5,-6.81 a 16.15,16.15 0 0 1 1.22,-2.75 18.11,18.11 0 0 1 -0.87,2.88 c -0.66,1.91 -1.47,4.25 -2.36,6.85 -0.89,2.6 -1.73,5.1 -2.29,6.86 a 29.24,29.24 0 0 1 -0.92,2.85 z"
         style="fill:#263238"
         id="path315" />
      <path
         d="m 658,256.94 a 24.5,24.5 0 0 1 26.21,-30.74 c 1.39,7.56 -1,15.32 -4.95,21.89 -4.71,7.75 -14.07,11 -21.26,8.85"
         style="fill:#afb23a"
         id="path317" />
      <path
         d="m 628.41,286.54 a 3.49,3.49 0 0 1 0.43,-0.54 l 1.29,-1.47 c 1.15,-1.26 2.83,-3.06 4.92,-5.26 4.2,-4.4 10.06,-10.41 16.58,-17 6.52,-6.59 12.45,-12.54 16.77,-16.81 l 5.14,-5.05 1.42,-1.35 c 0.32,-0.3 0.5,-0.46 0.52,-0.44 a 3.68,3.68 0 0 1 -0.45,0.52 l -1.35,1.42 -5,5.15 -16.68,16.92 -16.68,16.9 -5,5.14 -1.36,1.4 a 3.14,3.14 0 0 1 -0.55,0.47 z"
         style="fill:#263238"
         id="path319" />
      <g
         style="opacity:0.3"
         id="g323">
        <path
           d="m 658,256.94 a 24.5,24.5 0 0 1 26.21,-30.74 c 1.39,7.56 -1,15.32 -4.95,21.89 -4.71,7.75 -14.07,11 -21.26,8.85"
           id="path321" />
      </g>
      <path
         d="m 644.29,259.91 a 15,15 0 0 1 -3.13,-24.6 c 4,2.5 6.56,6.77 7.89,11.29 1.58,5.34 -0.8,11 -4.76,13.31"
         style="fill:#afb23a"
         id="path325" />
      <g
         style="opacity:0.3"
         id="g329">
        <path
           d="m 644.29,259.91 a 15,15 0 0 1 -3.13,-24.6 c 4,2.5 6.56,6.77 7.89,11.29 1.58,5.34 -0.8,11 -4.76,13.31"
           id="path327" />
      </g>
      <path
         d="m 645.85,268.43 a 3.9,3.9 0 0 1 -0.3,-0.92 c -0.17,-0.59 -0.36,-1.46 -0.57,-2.55 -0.42,-2.16 -0.86,-5.18 -1.26,-8.51 -0.4,-3.33 -0.68,-6.37 -0.85,-8.57 a 21.67,21.67 0 0 1 -0.14,-3.56 26.35,26.35 0 0 1 0.51,3.53 c 0.27,2.32 0.62,5.27 1,8.54 0.38,3.27 0.78,6.34 1.1,8.51 0.32,2.17 0.59,3.51 0.51,3.53 z"
         style="fill:#263238"
         id="path331" />
      <path
         d="m 457,375.81 a 23.67,23.67 0 0 1 39,-7.08 c -11.34,8.79 -24.57,14.79 -38.92,7.08"
         style="fill:#afb23a"
         id="path333" />
      <g
         style="opacity:0.3"
         id="g337">
        <path
           d="m 457,375.81 a 23.67,23.67 0 0 1 39,-7.08 c -11.34,8.79 -24.57,14.79 -38.92,7.08"
           id="path335" />
      </g>
      <path
         d="m 450.63,379.33 a 4.61,4.61 0 0 1 0.9,-0.7 c 0.6,-0.43 1.49,-1 2.63,-1.66 a 50,50 0 0 1 19.35,-6.39 c 1.3,-0.14 2.36,-0.21 3.09,-0.22 a 4.19,4.19 0 0 1 1.14,0 c 0,0.08 -1.61,0.18 -4.19,0.56 a 59.76,59.76 0 0 0 -9.89,2.32 59,59 0 0 0 -9.32,4 c -2.34,1.28 -3.66,2.16 -3.71,2.09 z"
         style="fill:#263238"
         id="path339" />
      <path
         d="m 193.43,245.51 a 18.28,18.28 0 0 1 26,16.05 c -11.05,-0.82 -21.74,-4.21 -26,-16.05"
         style="fill:#afb23a"
         id="path341" />
      <g
         style="opacity:0.3"
         id="g345">
        <path
           d="m 193.43,245.51 a 18.28,18.28 0 0 1 26,16.05 c -11.05,-0.82 -21.74,-4.21 -26,-16.05"
           id="path343" />
      </g>
      <path
         d="m 187.94,244.22 a 2.71,2.71 0 0 1 0.88,0 23.1,23.1 0 0 1 2.37,0.38 38.29,38.29 0 0 1 7.54,2.41 38.85,38.85 0 0 1 6.88,3.93 c 0.82,0.6 1.46,1.11 1.88,1.49 a 3.38,3.38 0 0 1 0.63,0.62 c -0.06,0.07 -1,-0.7 -2.72,-1.8 A 45.84,45.84 0 0 0 191.11,245 c -1.95,-0.49 -3.18,-0.7 -3.17,-0.78 z"
         style="fill:#263238"
         id="path347" />
      <path
         d="m 551.76,363.56 a 16.35,16.35 0 0 1 20.88,-17.64 c -3.77,9.17 -9.63,17.32 -20.88,17.64"
         style="fill:#afb23a"
         id="path349" />
      <path
         d="m 549.13,367.87 a 11.91,11.91 0 0 1 1.25,-2.66 33.64,33.64 0 0 1 9.41,-10.5 12,12 0 0 1 2.51,-1.53 27.35,27.35 0 0 1 -2.3,1.82 41.48,41.48 0 0 0 -9.32,10.39 25.49,25.49 0 0 1 -1.55,2.48 z"
         style="fill:#263238"
         id="path351" />
      <path
         d="m 630.45,311.61 a 16.35,16.35 0 0 1 17.19,-21.25 c -2,9.72 -6.2,18.82 -17.19,21.25"
         style="fill:#afb23a"
         id="path353" />
      <g
         style="opacity:0.3"
         id="g357">
        <path
           d="m 630.45,311.61 a 16.35,16.35 0 0 1 17.19,-21.25 c -2,9.72 -6.2,18.82 -17.19,21.25"
           id="path355" />
      </g>
      <path
         d="m 628.68,316.34 a 11.52,11.52 0 0 1 0.73,-2.84 32.9,32.9 0 0 1 3,-6.43 32.56,32.56 0 0 1 4.28,-5.65 12,12 0 0 1 2.17,-2 27.62,27.62 0 0 1 -1.9,2.22 43.68,43.68 0 0 0 -4.11,5.68 44.51,44.51 0 0 0 -3.09,6.28 25.56,25.56 0 0 1 -1.08,2.74 z"
         style="fill:#263238"
         id="path359" />
      <path
         d="m 37.28,240.1 a 16.35,16.35 0 0 1 25.56,-9.69 C 56.24,237.8 48,243.54 37.28,240.1"
         style="fill:#afb23a"
         id="path361" />
      <path
         d="m 33.37,243.29 a 12.4,12.4 0 0 1 2.06,-2.09 33.38,33.38 0 0 1 5.82,-4 32.68,32.68 0 0 1 6.55,-2.73 11.37,11.37 0 0 1 2.87,-0.61 27,27 0 0 1 -2.76,1 41.18,41.18 0 0 0 -12.24,6.7 24.42,24.42 0 0 1 -2.3,1.73 z"
         style="fill:#263238"
         id="path363" />
    </g>
  </g>
</svg>
