<?xml version="1.0" encoding="UTF-8" standalone="no"?>
<svg
   viewBox="0 0 500 600"
   version="1.1"
   id="svg78"
   sodipodi:docname="Get in touch-rafiki.svg"
   inkscape:version="1.1.1 (3bf5ae0d25, 2021-09-20)"
   width="500"
   height="600"
   xmlns:inkscape="http://www.inkscape.org/namespaces/inkscape"
   xmlns:sodipodi="http://sodipodi.sourceforge.net/DTD/sodipodi-0.dtd"
   xmlns="http://www.w3.org/2000/svg"
   xmlns:svg="http://www.w3.org/2000/svg">
  <defs
     id="defs82" />
  <sodipodi:namedview
     id="namedview80"
     pagecolor="#505050"
     bordercolor="#eeeeee"
     borderopacity="1"
     inkscape:pageshadow="0"
     inkscape:pageopacity="0"
     inkscape:pagecheckerboard="0"
     showgrid="false"
     units="in"
     inkscape:zoom="1.564"
     inkscape:cx="210.67775"
     inkscape:cy="429.02813"
     inkscape:window-width="1920"
     inkscape:window-height="986"
     inkscape:window-x="-11"
     inkscape:window-y="-11"
     inkscape:window-maximized="1"
     inkscape:current-layer="svg78" />
  <g
     id="freepik--background-simple--inject-2"
     transform="matrix(1.2538976,0,0,2.0566417,-61.614913,-237.1284)">
    <path
       d="m 146.84,240.67 c 25.09,-33.08 12.3,-110.65 59.25,-123.74 42.75,-11.9 53.86,54 83.76,61.66 37.2,9.53 110.41,-61.93 152.28,-16.19 40.57,44.31 -103,160.08 -157.36,182.17 -86.29,35.08 -240.95,22.48 -235.88,-41.84 3.4,-43.18 76.33,-33.56 97.95,-62.06 z"
       style="fill:#afb23a"
       id="path2" />
    <path
       d="m 146.84,240.67 c 25.09,-33.08 12.3,-110.65 59.25,-123.74 42.75,-11.9 53.86,54 83.76,61.66 37.2,9.53 110.41,-61.93 152.28,-16.19 40.57,44.31 -103,160.08 -157.36,182.17 -86.29,35.08 -240.95,22.48 -235.88,-41.84 3.4,-43.18 76.33,-33.56 97.95,-62.06 z"
       style="opacity:0.9;fill:#ffffff"
       id="path4" />
  </g>
  <g
     id="freepik--Device--inject-2"
     transform="matrix(1.5544906,0,0,2.0659244,-136.95349,-238.42389)">
    <path
       d="m 287.81,405.43 h -94.39 a 10.66,10.66 0 0 1 -10.79,-11.82 l 20.74,-237 a 13.16,13.16 0 0 1 12.86,-11.83 h 94.39 a 10.66,10.66 0 0 1 10.79,11.83 l -20.74,237 a 13.16,13.16 0 0 1 -12.86,11.82 z"
       style="opacity:0.3;fill:#afb23a"
       id="path9" />
    <path
       d="m 310.62,144.74 h -94.39 a 13.16,13.16 0 0 0 -12.86,11.83 l -20.74,237 a 10.66,10.66 0 0 0 10.79,11.82 h 94.39 a 13.16,13.16 0 0 0 12.86,-11.82 l 20.74,-237 a 10.66,10.66 0 0 0 -10.79,-11.83 z m -15.2,248.87 a 7.32,7.32 0 0 1 -7.15,6.57 h -94.39 a 5.93,5.93 0 0 1 -6,-6.57 l 20.74,-237 a 7.32,7.32 0 0 1 7.15,-6.58 h 94.39 a 5.93,5.93 0 0 1 6,6.58 z"
       style="fill:#afb23a"
       id="path11" />
    <path
       d="m 310.62,144.74 h -94.39 a 13.16,13.16 0 0 0 -12.86,11.83 l -20.74,237 a 10.66,10.66 0 0 0 10.79,11.82 h 94.39 a 13.16,13.16 0 0 0 12.86,-11.82 l 20.74,-237 a 10.66,10.66 0 0 0 -10.79,-11.83 z m -15.2,248.87 a 7.32,7.32 0 0 1 -7.15,6.57 h -94.39 a 5.93,5.93 0 0 1 -6,-6.57 l 20.74,-237 a 7.32,7.32 0 0 1 7.15,-6.58 h 94.39 a 5.93,5.93 0 0 1 6,6.58 z"
       style="opacity:0.6;fill:#ffffff"
       id="path13" />
    <path
       d="m 254.79,390.79 h -26 a 1.62,1.62 0 0 0 -1.58,1.46 1.31,1.31 0 0 0 1.33,1.45 h 26 a 1.62,1.62 0 0 0 1.59,-1.45 1.32,1.32 0 0 0 -1.34,-1.46 z"
       style="fill:#ffffff"
       id="path15" />
    <path
       d="m 254.15,255 h -27.52 a 6.22,6.22 0 0 1 -6.3,-6.9 l 2.41,-27.53 a 7.68,7.68 0 0 1 7.5,-6.9 h 27.53 a 6.23,6.23 0 0 1 6.3,6.9 l -2.41,27.53 a 7.68,7.68 0 0 1 -7.51,6.9 z"
       style="opacity:0.1"
       id="path17" />
    <path
       d="m 251.15,252 h -27.52 a 6.22,6.22 0 0 1 -6.3,-6.9 l 2.41,-27.53 a 7.68,7.68 0 0 1 7.5,-6.9 h 27.53 a 6.23,6.23 0 0 1 6.3,6.9 l -2.41,27.53 a 7.68,7.68 0 0 1 -7.51,6.9 z"
       style="fill:#afb23a"
       id="path19" />
    <path
       d="m 243.82,228.82 c 0.47,-5.34 -4,-9.66 -10.1,-9.66 -6.1,0 -11.32,4.32 -11.78,9.66 -0.37,4.21 2.38,7.79 6.53,9.1 a 5.92,5.92 0 0 1 -2.62,2.59 3.68,3.68 0 0 0 0.63,0.31 5.07,5.07 0 0 0 6,-2.37 c 5.84,-0.2 10.89,-4.45 11.34,-9.63 z"
       style="fill:#ffffff"
       id="path21" />
    <path
       d="m 256.49,233.44 c 0.39,-4.4 -3.34,-8 -8.33,-8 a 10.58,10.58 0 0 0 -2.6,0.33 10.42,10.42 0 0 1 0.19,3 12.44,12.44 0 0 1 -6,9.29 8.46,8.46 0 0 0 6.38,3.27 3.26,3.26 0 0 0 4.22,1.89 4.83,4.83 0 0 0 0.52,-0.23 3.58,3.58 0 0 1 -1.61,-1.94 c 3.87,-0.9 6.91,-3.96 7.23,-7.61 z"
       style="fill:#ffffff"
       id="path23" />
    <path
       d="m 241.53,340.2 h -20.47 a 4.63,4.63 0 0 1 -4.69,-5.13 l 1.79,-20.47 a 5.72,5.72 0 0 1 5.59,-5.14 h 20.47 a 4.63,4.63 0 0 1 4.69,5.14 l -1.79,20.47 a 5.71,5.71 0 0 1 -5.59,5.13 z"
       style="opacity:0.1"
       id="path25" />
    <path
       d="M 271.57,300.36 H 246 a 5.78,5.78 0 0 1 -5.85,-6.42 l 2.23,-25.59 a 7.15,7.15 0 0 1 7,-6.42 h 25.6 a 5.79,5.79 0 0 1 5.85,6.42 l -2.23,25.59 a 7.15,7.15 0 0 1 -7.03,6.42 z"
       style="opacity:0.1"
       id="path27" />
    <path
       d="M 268.57,297.36 H 243 a 5.78,5.78 0 0 1 -5.85,-6.42 l 2.23,-25.59 a 7.15,7.15 0 0 1 7,-6.42 h 25.6 a 5.79,5.79 0 0 1 5.85,6.42 l -2.23,25.59 a 7.15,7.15 0 0 1 -7.03,6.42 z"
       style="fill:#afb23a"
       id="path29" />
    <path
       d="m 238.53,337.2 h -20.47 a 4.63,4.63 0 0 1 -4.69,-5.13 l 1.79,-20.47 a 5.72,5.72 0 0 1 5.59,-5.14 h 20.47 a 4.63,4.63 0 0 1 4.69,5.14 l -1.79,20.47 a 5.71,5.71 0 0 1 -5.59,5.13 z"
       style="fill:#afb23a"
       id="path31" />
    <path
       d="M 270.25,267.59 H 246.5 a 3,3 0 0 0 -3,2.73 L 242.17,286 a 2.46,2.46 0 0 0 2.49,2.72 h 23.74 a 3,3 0 0 0 3,-2.72 l 1.37,-15.66 a 2.46,2.46 0 0 0 -2.52,-2.75 z m -18.19,10.54 -7.95,7.31 1.28,-14.62 z m -5.22,-8.65 h 22.73 l -11.49,10.57 a 1.12,1.12 0 0 1 -1.59,0 z m 6.44,10 1.75,1.92 a 2.76,2.76 0 0 0 2.06,0.88 3.27,3.27 0 0 0 2.21,-0.88 l 2.09,-1.92 6.7,7.34 H 245.3 Z m 9.56,-1.34 8,-7.31 -1.28,14.62 z"
       style="fill:#ffffff"
       id="path33" />
    <polygon
       points="227.89,320.11 231.53,325.25 237.3,310.93 220.25,316.32 226.25,318.76 232.85,314.24 "
       style="fill:#ffffff"
       id="polygon35" />
    <polygon
       points="225.84,320.12 228.54,323.42 225.66,323.42 "
       style="fill:#ffffff"
       id="polygon37" />
    <path
       d="m 223.45,324.43 -0.63,-0.4 a 7.58,7.58 0 0 1 0.61,-0.85 l 0.57,0.49 a 6.86,6.86 0 0 0 -0.55,0.76 z"
       style="fill:#ffffff"
       id="path39" />
    <path
       d="m 223.15,329.36 a 2.72,2.72 0 0 1 -1.29,-1.6 l 0.72,-0.2 a 2,2 0 0 0 1,1.15 z m -0.63,-2.58 -0.75,-0.06 a 5.36,5.36 0 0 1 0.57,-1.87 l 0.68,0.34 a 4.52,4.52 0 0 0 -0.5,1.59 z"
       style="fill:#ffffff"
       id="path41" />
    <path
       d="m 238.27,332 -0.74,-0.13 a 2.74,2.74 0 0 0 0.05,-0.55 1.3,1.3 0 0 0 -0.27,-0.89 l 0.58,-0.48 a 2.12,2.12 0 0 1 0.44,1.37 4.27,4.27 0 0 1 -0.06,0.68 z m -10.63,-1.73 h -0.78 v -0.75 a 17.86,17.86 0 0 0 1.79,0 v 0.75 z m 2,-0.08 v -0.75 c 0.61,0 1.22,-0.1 1.81,-0.16 l 0.07,0.75 z m -3.71,0 h -0.31 a 8.68,8.68 0 0 1 -1.55,-0.35 l 0.24,-0.71 a 7.35,7.35 0 0 0 1.41,0.32 h 0.29 z m 10.8,-0.15 a 5,5 0 0 0 -1.66,-0.24 V 329 a 5.6,5.6 0 0 1 1.93,0.29 z m -4.35,-0.09 -0.07,-0.75 c 0.64,-0.06 1.26,-0.11 1.83,-0.14 v 0.75 c -0.53,0 -1.14,0.05 -1.77,0.11 z"
       style="fill:#ffffff"
       id="path43" />
    <path
       d="m 237.65,333.9 -0.69,-0.3 c 0.14,-0.32 0.26,-0.63 0.35,-0.9 l 0.71,0.23 c -0.1,0.3 -0.22,0.62 -0.37,0.97 z"
       style="fill:#ffffff"
       id="path45" />
    <path
       d="m 265.4,208.07 h -23 a 5.21,5.21 0 0 1 -5.27,-5.78 l 2,-23 a 6.43,6.43 0 0 1 6.28,-5.78 h 23 a 5.21,5.21 0 0 1 5.27,5.78 l -2,23 a 6.43,6.43 0 0 1 -6.28,5.78 z"
       style="opacity:0.1"
       id="path47" />
    <path
       d="m 262.4,205.07 h -23 a 5.21,5.21 0 0 1 -5.27,-5.78 l 2,-23 a 6.43,6.43 0 0 1 6.28,-5.78 h 23 a 5.21,5.21 0 0 1 5.27,5.78 l -2,23 a 6.43,6.43 0 0 1 -6.28,5.78 z"
       style="fill:#afb23a"
       id="path49" />
    <path
       d="m 263.63,192.47 a 17.12,17.12 0 0 0 -14.91,-16.34 5.68,5.68 0 0 0 -7,1.62 c -2,2.43 -0.22,4 2,5.74 2.22,1.74 4.21,3.07 6.18,0.64 a 5.8,5.8 0 0 0 1.31,-3.13 13.43,13.43 0 0 1 7.77,8.52 5.77,5.77 0 0 0 -3.22,1 c -2.59,1.76 -1.45,3.81 0.1,6.24 1.55,2.43 2.93,4.31 5.51,2.54 a 5.72,5.72 0 0 0 2.26,-6.83 z"
       style="fill:#ffffff"
       id="path51" />
    <path
       d="m 254,140.76 h 15.7 c 0.78,0 0.88,-1.2 0.11,-1.2 h -15.68 c -0.77,0 -0.88,1.2 -0.11,1.2 z"
       style="fill:#afb23a"
       id="path53" />
    <path
       d="M 275.45,140.76 H 280 c 0.78,0 0.88,-1.2 0.11,-1.2 h -4.51 c -0.77,0 -0.88,1.2 -0.1,1.2 z"
       style="fill:#afb23a"
       id="path55" />
    <g
       style="opacity:0.3"
       id="g59">
      <path
         d="m 254,140.76 h 15.7 c 0.78,0 0.88,-1.2 0.11,-1.2 h -15.68 c -0.77,0 -0.88,1.2 -0.11,1.2 z"
         style="fill:#ffffff"
         id="path57" />
    </g>
    <g
       style="opacity:0.3"
       id="g63">
      <path
         d="M 275.45,140.76 H 280 c 0.78,0 0.88,-1.2 0.11,-1.2 h -4.51 c -0.77,0 -0.88,1.2 -0.1,1.2 z"
         style="fill:#ffffff"
         id="path61" />
    </g>
    <path
       d="m 305.7,262.07 -1.38,15.68 a 0.60207973,0.60207973 0 0 0 1.2,0.1 q 0.68,-7.83 1.37,-15.68 a 0.6,0.6 0 0 0 -1.19,-0.1 z"
       style="fill:#afb23a"
       id="path65" />
    <path
       d="m 303.82,283.49 -0.39,4.51 a 0.6,0.6 0 0 0 1.19,0.1 l 0.39,-4.5 a 0.6,0.6 0 0 0 -1.19,-0.11 z"
       style="fill:#afb23a"
       id="path67" />
    <g
       style="opacity:0.3"
       id="g71">
      <path
         d="m 305.7,262.07 -1.38,15.68 a 0.60207973,0.60207973 0 0 0 1.2,0.1 q 0.68,-7.83 1.37,-15.68 a 0.6,0.6 0 0 0 -1.19,-0.1 z"
         style="fill:#ffffff"
         id="path69" />
    </g>
    <g
       style="opacity:0.3"
       id="g75">
      <path
         d="m 303.82,283.49 -0.39,4.51 a 0.6,0.6 0 0 0 1.19,0.1 l 0.39,-4.5 a 0.6,0.6 0 0 0 -1.19,-0.11 z"
         style="fill:#ffffff"
         id="path73" />
    </g>
  </g>
</svg>
