<?xml version="1.0" encoding="UTF-8" standalone="no"?>
<svg
   viewBox="0 0 800 350"
   version="1.1"
   id="svg123"
   sodipodi:docname="thank you.svg"
   width="800"
   height="350"
   inkscape:version="1.1.1 (3bf5ae0d25, 2021-09-20)"
   xmlns:inkscape="http://www.inkscape.org/namespaces/inkscape"
   xmlns:sodipodi="http://sodipodi.sourceforge.net/DTD/sodipodi-0.dtd"
   xmlns="http://www.w3.org/2000/svg"
   xmlns:svg="http://www.w3.org/2000/svg">
  <defs
     id="defs127" />
  <sodipodi:namedview
     id="namedview125"
     pagecolor="#505050"
     bordercolor="#eeeeee"
     borderopacity="1"
     inkscape:pageshadow="0"
     inkscape:pageopacity="0"
     inkscape:pagecheckerboard="0"
     showgrid="false"
     inkscape:zoom="1.564"
     inkscape:cx="474.74425"
     inkscape:cy="200.12788"
     inkscape:window-width="1920"
     inkscape:window-height="986"
     inkscape:window-x="-11"
     inkscape:window-y="-11"
     inkscape:window-maximized="1"
     inkscape:current-layer="svg123" />
  <g
     id="freepik--balloons--inject-14"
     transform="matrix(1.5849847,0.36564421,-0.20545645,1.4210207,-74.77729,-313.85137)">
    <path
       d="m 170.3,286.62 c 3.38,7 2.86,15.88 3.56,23.5 a 149.2,149.2 0 0 0 4.38,23.52 c 4.2,16.41 9.65,32.91 11.21,49.86 0.83,9 -0.27,17.66 -1.25,26.62 0,0.2 0.36,0.56 0.45,0.25 4.75,-16.07 1.38,-33.52 -2.31,-49.4 -3.83,-16.43 -9.6,-32.57 -11.32,-49.43 -0.47,-4.7 -0.77,-9.42 -1.3,-14.12 -0.44,-3.83 -0.88,-7.71 -3,-11 -0.18,-0.29 -0.58,-0.1 -0.42,0.22 z"
       style="fill:#e0e0e0"
       id="path4" />
    <path
       d="m 167.47,290 c 1.49,0.65 3.61,2.85 2.05,4.58 a 3.38,3.38 0 0 1 -2,0.77 c -0.53,0 -0.53,0.07 0,0.31 l 0.15,1.19 c -2.09,0.77 -3,2.18 -2.75,4.24 a 6,6 0 0 1 -1.68,1.44 c -0.19,0.15 0,0.59 0.23,0.47 1.74,-0.86 4.08,-3.11 2.18,-5.06 -0.59,-0.6 -2.18,-1.14 -2.55,0 -0.57,1.67 2.59,2 3.52,1.76 2,-0.5 2.37,-2.78 1.71,-4.52 -0.56,-1.47 -2.62,-3 -4.12,-1.56 -1,0.92 -0.2,2 0.91,2.42 1.93,0.79 5.19,0.19 5.8,-2.06 0.61,-2.25 -1.4,-4 -3.42,-4.46 -0.31,-0.07 -0.17,0.43 0,0.51 z"
       style="fill:#e0e0e0"
       id="path6" />
    <path
       d="m 141.42,256.58 c 1.86,5.26 3.22,10.69 5,16 1.6,4.67 3.86,9.08 5.61,13.7 3.89,10.34 5.71,21.15 7.87,31.94 a 115,115 0 0 0 4,15.86 128.47,128.47 0 0 0 5.93,13.5 c 4.55,9.3 9.19,18.67 12.65,28.44 1.94,5.47 3.3,11.12 4.74,16.74 a 89.79,89.79 0 0 1 3.19,19.24 c 0,0.28 0.48,0.57 0.5,0.18 0.34,-5.7 -0.71,-11.26 -2,-16.78 -1.23,-5.1 -2.46,-10.25 -4,-15.27 -3.07,-9.93 -7.62,-19.39 -12.12,-28.73 -2.27,-4.71 -4.66,-9.36 -6.62,-14.21 a 88.52,88.52 0 0 1 -4.37,-14.91 c -2.31,-10.67 -3.79,-21.55 -7.27,-31.94 -1.9,-5.67 -4.61,-11 -6.67,-16.56 -2.06,-5.56 -3.49,-11.67 -6,-17.24 -0.13,-0.29 -0.55,-0.29 -0.42,0.07 z"
       style="fill:#e0e0e0"
       id="path8" />
    <path
       d="m 148.76,339 c 2,3.28 3.13,7 5.13,10.3 a 43.86,43.86 0 0 0 5,6.43 c 5.32,5.94 11.35,11.37 15.78,18 4.6,6.94 7,15 9,23 1,4 1.85,8 2.87,11.9 a 23.73,23.73 0 0 0 1.66,4.94 c 0.82,1.61 1.87,3.06 2.59,4.72 0.23,0.53 1.26,0.3 1,-0.31 -0.71,-1.66 -1.77,-3.1 -2.58,-4.71 a 27.45,27.45 0 0 1 -1.83,-5.63 c -1,-3.93 -1.86,-7.9 -2.85,-11.83 -1.79,-7.11 -3.93,-14.23 -7.71,-20.57 -3.78,-6.34 -9,-11.4 -14,-16.7 -3.21,-3.41 -6.66,-6.79 -8.88,-11 -1.59,-3 -2.76,-6.08 -4.72,-8.86 -0.19,-0.27 -0.62,-0.08 -0.42,0.24 z"
       style="fill:#e0e0e0"
       id="path10" />
    <path
       d="m 148.59,342.24 a 5,5 0 0 1 0.75,1.64 c 0.14,0.66 0,3.71 -1.35,3.88 l -2,-1 q 4.5,1.08 3.12,4.44 l -1.09,1.1 a 2.57,2.57 0 0 1 -1.63,3.33 c -0.35,0.17 0,0.68 0.36,0.59 5.64,-1.73 -0.63,-7.92 -2.26,-5.29 -1,1.6 1.63,2.57 2.75,2.45 a 3.41,3.41 0 0 0 3,-3.91 4,4 0 0 0 -3.68,-3.5 c -1.37,0 -3.37,1.08 -2.09,2.56 1.28,1.48 3.68,0.36 4.65,-0.71 1.6,-1.77 1.11,-4.16 -0.25,-5.85 -0.19,-0.23 -0.46,0 -0.31,0.25 z"
       style="fill:#e0e0e0"
       id="path12" />
    <path
       d="m 144,257.61 v 0 c -0.53,-1.77 -5.66,-5.53 -6.36,-5.32 -0.7,0.21 -2.58,6 -2,7.84 v 0 a 2.17,2.17 0 0 0 1.73,1.35 6.79,6.79 0 0 0 5.93,-1.78 2.17,2.17 0 0 0 0.71,-2.09 z"
       style="fill:#afb23a"
       id="path14" />
    <path
       d="m 144,257.61 v 0 c -0.53,-1.77 -5.66,-5.53 -6.36,-5.32 -0.7,0.21 -2.58,6 -2,7.84 v 0 a 2.17,2.17 0 0 0 1.73,1.35 6.79,6.79 0 0 0 5.93,-1.78 2.17,2.17 0 0 0 0.71,-2.09 z"
       style="opacity:0.1"
       id="path16" />
    <path
       d="m 160.94,199.14 a 17.55,17.55 0 0 0 -8,-10.08 v 0 h -0.08 a 19.13,19.13 0 0 0 -15.15,-1.73 c -6.4,1.92 -10.61,8.33 -12.07,15 a 3.14,3.14 0 0 1 -5.24,1.57 c -4.92,-4.78 -12,-7.81 -18.36,-5.88 a 19.13,19.13 0 0 0 -11.68,9.8 v 0.08 0 a 17.58,17.58 0 0 0 -1.09,12.8 c 4.1,13.64 21.33,23.21 35.05,28.84 l 14.45,5.89 8.81,-12.87 c 8.36,-12.3 17.42,-29.78 13.36,-43.42 z"
       style="fill:#afb23a"
       id="path18" />
    <path
       d="m 160.94,199.14 a 17.55,17.55 0 0 0 -8,-10.08 v 0 h -0.08 a 19.13,19.13 0 0 0 -15.15,-1.73 c -6.4,1.92 -10.61,8.33 -12.07,15 a 3.14,3.14 0 0 1 -5.24,1.57 c -4.92,-4.78 -12,-7.81 -18.36,-5.88 a 19.13,19.13 0 0 0 -11.68,9.8 v 0.08 0 a 17.58,17.58 0 0 0 -1.09,12.8 c 4.1,13.64 21.33,23.21 35.05,28.84 l 14.45,5.89 8.81,-12.87 c 8.36,-12.3 17.42,-29.78 13.36,-43.42 z"
       style="opacity:0.2"
       id="path20" />
    <path
       d="m 161.53,211.63 c -1.41,3.33 -13,26 -29.84,27.07 -20.07,1.22 -42.61,-16.1 -41.32,-30.83 a 17.58,17.58 0 0 0 -1.09,12.8 c 4.1,13.64 21.33,23.21 35.05,28.84 l 14.45,5.89 8.81,-12.87 c 5.95,-8.74 12.28,-20.13 13.94,-30.9 z"
       style="opacity:0.1"
       id="path22" />
    <path
       d="m 152,338.47 v 0 c -1,-1.57 -6.9,-3.89 -7.52,-3.51 -0.62,0.38 -1,6.42 0.06,8.1 v 0 a 2.21,2.21 0 0 0 2,0.86 6.82,6.82 0 0 0 5.27,-3.24 2.2,2.2 0 0 0 0.16,-2.21 z"
       style="fill:#afb23a"
       id="path24" />
    <path
       d="m 152,338.47 v 0 c -1,-1.57 -6.9,-3.89 -7.52,-3.51 -0.62,0.38 -1,6.42 0.06,8.1 v 0 a 2.21,2.21 0 0 0 2,0.86 6.82,6.82 0 0 0 5.27,-3.24 2.2,2.2 0 0 0 0.16,-2.21 z"
       style="opacity:0.3;fill:#ffffff"
       id="path26" />
    <path
       d="m 153.36,277.62 a 17.57,17.57 0 0 0 -10.29,-7.71 v 0 h -0.08 a 19.11,19.11 0 0 0 -15.09,2.22 c -5.7,3.49 -8.12,10.76 -7.81,17.62 a 3.14,3.14 0 0 1 -4.67,2.86 c -6,-3.36 -13.56,-4.48 -19.24,-1 a 19.14,19.14 0 0 0 -8.79,12.46 v 0.09 0 a 17.48,17.48 0 0 0 2.23,12.65 c 7.46,12.13 26.57,17 41.28,18.88 l 15.47,2 5.22,-14.69 c 4.92,-14 9.23,-33.26 1.77,-45.38 z"
       style="fill:#afb23a"
       id="path28" />
    <path
       d="m 153.36,277.62 a 17.57,17.57 0 0 0 -10.29,-7.71 v 0 h -0.08 a 19.11,19.11 0 0 0 -15.09,2.22 c -5.7,3.49 -8.12,10.76 -7.81,17.62 a 3.14,3.14 0 0 1 -4.67,2.86 c -6,-3.36 -13.56,-4.48 -19.24,-1 a 19.14,19.14 0 0 0 -8.79,12.46 v 0.09 0 a 17.48,17.48 0 0 0 2.23,12.65 c 7.46,12.13 26.57,17 41.28,18.88 l 15.47,2 5.22,-14.69 c 4.92,-14 9.23,-33.26 1.77,-45.38 z"
       style="opacity:0.5;fill:#ffffff"
       id="path30" />
    <path
       d="m 157.13,289.54 c -0.5,3.57 -5.85,28.49 -21.89,33.81 -19.08,6.34 -45.31,-4.62 -47.84,-19.19 a 17.48,17.48 0 0 0 2.23,12.65 c 7.46,12.13 26.57,17 41.28,18.88 l 15.47,2 5.21,-14.69 c 3.51,-10 6.7,-22.63 5.54,-33.46 z"
       style="opacity:0.05"
       id="path32" />
    <path
       d="m 174.61,287.12 v 0 c -0.63,-1.74 -6,-5.24 -6.63,-5 -0.63,0.24 -2.28,6.08 -1.61,7.93 v 0 a 2.2,2.2 0 0 0 1.8,1.27 6.82,6.82 0 0 0 5.83,-2.09 2.18,2.18 0 0 0 0.61,-2.12 z"
       style="fill:#afb23a"
       id="path34" />
    <path
       d="m 174.61,287.12 v 0 c -0.63,-1.74 -6,-5.24 -6.63,-5 -0.63,0.24 -2.28,6.08 -1.61,7.93 v 0 a 2.2,2.2 0 0 0 1.8,1.27 6.82,6.82 0 0 0 5.83,-2.09 2.18,2.18 0 0 0 0.61,-2.12 z"
       style="opacity:0.1"
       id="path36" />
    <path
       d="m 188.49,227.85 a 17.57,17.57 0 0 0 -8.47,-9.66 v 0 l -0.08,-0.05 a 19.09,19.09 0 0 0 -15.21,-0.94 c -6.3,2.24 -10.17,8.85 -11.29,15.62 a 3.14,3.14 0 0 1 -5.15,1.85 c -5.16,-4.53 -12.34,-7.19 -18.64,-4.93 a 19.13,19.13 0 0 0 -11.16,10.38 v 0.09 0 a 17.59,17.59 0 0 0 -0.43,12.84 c 4.8,13.41 22.5,22.08 36.49,27 l 14.74,5.14 8.13,-13.31 c 7.68,-12.69 15.87,-30.62 11.07,-44.03 z"
       style="fill:#afb23a"
       id="path38" />
    <path
       d="m 189.73,240.3 c -1.24,3.39 -11.62,26.66 -28.4,28.56 -20,2.26 -43.39,-13.88 -42.86,-28.65 a 17.59,17.59 0 0 0 -0.43,12.84 c 4.8,13.41 22.5,22.08 36.49,27 l 14.74,5.14 8.13,-13.31 c 5.49,-9.05 11.22,-20.75 12.33,-31.58 z"
       style="opacity:0.1"
       id="path40" />
  </g>
  <g
     id="g81"
     transform="matrix(1.5338332,-0.23631721,0.27959386,1.3204224,81.140805,-147.57634)">
    <path
       d="m 327.77,294.84 c -2.18,3.21 -3.27,7 -4.23,10.76 -1.08,4.17 -2,8.39 -2.83,12.62 -1.73,9.28 -2.6,18.69 -3.91,28 a 140.75,140.75 0 0 1 -6.32,27.27 c -3,8.37 -6.53,16.55 -8.51,25.23 a 74.43,74.43 0 0 0 -0.12,30.64 c 0.06,0.28 0.47,0.45 0.46,0.06 -0.35,-9.22 -1.63,-18.16 0,-27.36 1.47,-8.16 4.57,-15.9 7.45,-23.65 A 138.57,138.57 0 0 0 316.64,354 c 1.51,-8.56 2.36,-17.22 3.55,-25.83 0.67,-4.83 1.43,-9.66 2.47,-14.43 1.35,-6.25 2.62,-12.76 5.6,-18.45 0.13,-0.26 -0.29,-0.7 -0.49,-0.41 z"
       style="fill:#e0e0e0"
       id="path43" />
    <path
       d="m 330.9,298 c -2.2,0.41 -4.25,2.44 -3.2,4.81 0.82,1.84 3.56,2.34 5.34,1.88 1.19,-0.32 2.3,-1.49 1.17,-2.5 -1.5,-1.34 -3.51,-0.16 -4.14,1.39 -0.7,1.75 -0.34,4 1.66,4.6 0.93,0.27 3.69,0.12 3.55,-1.35 -0.12,-1.31 -1.84,-1.12 -2.58,-0.45 -2.07,1.89 0.55,4.31 2.17,5.2 0.26,0.15 0.29,-0.29 0.12,-0.41 -2,-1.42 -0.06,-0.68 -2,-3.76 -1.81,-0.47 -2.54,-1.33 -2.18,-2.59 a 1,1 0 0 1 0.35,-0.92 l -0.77,-0.08 q -2.72,-0.85 -1.84,-3.23 a 4.61,4.61 0 0 1 2.59,-2.09 c 0.24,-0.1 0,-0.55 -0.23,-0.5 z"
       style="fill:#e0e0e0"
       id="path45" />
    <path
       d="m 364.64,251.32 c -2.05,5.84 -5.32,11.15 -6.86,17.18 -1.64,6.44 -2.64,13 -4.15,19.5 a 193.12,193.12 0 0 1 -11,34 c -4.76,10.83 -11.76,20.36 -16.07,31.41 -4.46,11.43 -7.6,23.35 -13.71,34.08 -3.21,5.64 -6.73,11.09 -8.57,17.38 a 54.73,54.73 0 0 0 -2.28,21.8 c 0,0.24 0.51,0.45 0.5,0.1 a 68.07,68.07 0 0 1 2.22,-19.84 c 1.65,-6.2 4.7,-11.58 7.91,-17.08 5.93,-10.16 9.4,-21.18 13.4,-32.18 a 102,102 0 0 1 7.58,-16.86 c 2.85,-4.85 5.79,-9.55 8.22,-14.64 a 180.6,180.6 0 0 0 11.9,-34.27 c 1.74,-7 2.89,-14.15 4.51,-21.19 1.54,-6.67 5.14,-12.49 6.84,-19.08 0.06,-0.23 -0.32,-0.63 -0.43,-0.31 z"
       style="fill:#e0e0e0"
       id="path47" />
    <path
       d="m 350,346.51 c -3.73,6.83 -10.44,11 -15.46,16.76 -5.25,6 -8.91,13.21 -12.57,20.26 -1.94,3.74 -3.88,7.48 -6.09,11.07 -2.21,3.59 -4.75,6.9 -6.92,10.49 -4.74,7.85 -6.77,16.47 -7.8,25.51 -0.07,0.59 1,0.76 1.07,0.16 1,-8.92 3,-17.49 7.71,-25.26 3.87,-6.4 8.19,-12.36 11.68,-19 3.38,-6.45 6.57,-13.06 10.85,-19 3.44,-4.76 7.85,-8.5 12,-12.56 a 27.15,27.15 0 0 0 6,-8 c 0.12,-0.28 -0.33,-0.72 -0.5,-0.41 z"
       style="fill:#e0e0e0"
       id="path49" />
    <path
       d="m 348.51,350.86 a 4.35,4.35 0 0 0 -0.23,5.88 c 0.91,1 3.52,2.22 4.64,0.82 1.12,-1.4 -1,-2.6 -2.29,-2.62 a 3.88,3.88 0 0 0 -3.61,4.41 3.6,3.6 0 0 0 3.67,3 c 1.18,-0.06 2.92,-1.13 1.95,-2.46 -1.06,-1.48 -3.51,-0.12 -4.13,1.08 a 3,3 0 0 0 2,4.19 c 0.44,0.14 0.4,-0.41 0.09,-0.57 -1.43,-0.73 -3,-4.53 -2.76,-6.14 0.13,-0.4 0.26,-0.79 0.4,-1.18 q 0.53,-1.64 1.38,-0.51 c 0.9,0.69 0.8,0.61 -0.29,-0.23 a 2.38,2.38 0 0 1 -1.33,-2.33 5,5 0 0 1 0.89,-2.93 c 0.12,-0.2 -0.15,-0.64 -0.34,-0.41 z"
       style="fill:#e0e0e0"
       id="path51" />
    <path
       d="m 360.63,251.74 v 0 c 0.48,-1.79 5.51,-5.69 6.21,-5.5 0.7,0.19 2.75,5.89 2.23,7.79 v 0 a 2.21,2.21 0 0 1 -1.7,1.4 6.83,6.83 0 0 1 -6,-1.62 2.19,2.19 0 0 1 -0.77,-2.07 z"
       style="fill:#afb23a"
       id="path53" />
    <path
       d="m 360.63,251.74 v 0 c 0.48,-1.79 5.51,-5.69 6.21,-5.5 0.7,0.19 2.75,5.89 2.23,7.79 v 0 a 2.21,2.21 0 0 1 -1.7,1.4 6.83,6.83 0 0 1 -6,-1.62 2.19,2.19 0 0 1 -0.77,-2.07 z"
       style="opacity:0.1"
       id="path55" />
    <path
       d="m 342.13,193.74 a 17.54,17.54 0 0 1 7.69,-10.29 v 0 l 0.08,-0.05 a 19.17,19.17 0 0 1 15.1,-2.16 c 6.46,1.74 10.84,8 12.48,14.7 a 3.14,3.14 0 0 0 5.28,1.43 c 4.79,-4.92 11.74,-8.13 18.19,-6.37 a 19.08,19.08 0 0 1 11.95,9.47 v 0.08 0 a 17.57,17.57 0 0 1 1.44,12.77 c -3.73,13.74 -20.69,23.78 -34.26,29.78 l -14.28,6.27 -9.16,-12.63 c -8.64,-12.02 -18.24,-29.26 -14.51,-43 z"
       style="fill:#afb23a"
       id="path57" />
    <path
       d="m 342.13,193.74 a 17.54,17.54 0 0 1 7.69,-10.29 v 0 l 0.08,-0.05 a 19.17,19.17 0 0 1 15.1,-2.16 c 6.46,1.74 10.84,8 12.48,14.7 a 3.14,3.14 0 0 0 5.28,1.43 c 4.79,-4.92 11.74,-8.13 18.19,-6.37 a 19.08,19.08 0 0 1 11.95,9.47 v 0.08 0 a 17.57,17.57 0 0 1 1.44,12.77 c -3.73,13.74 -20.69,23.78 -34.26,29.78 l -14.28,6.27 -9.16,-12.63 c -8.64,-12.02 -18.24,-29.26 -14.51,-43 z"
       style="opacity:0.2"
       id="path59" />
    <path
       d="m 341.88,206.25 c 1.49,3.28 13.67,25.67 30.55,26.24 20.1,0.69 42.16,-17.24 40.47,-31.93 a 17.57,17.57 0 0 1 1.44,12.77 c -3.73,13.74 -20.69,23.78 -34.26,29.78 l -14.28,6.27 -9.16,-12.63 c -6.18,-8.57 -12.81,-19.75 -14.76,-30.5 z"
       style="opacity:0.1"
       id="path61" />
    <path
       d="m 345.51,347.33 v 0 c 1,-1.56 7,-3.76 7.59,-3.37 0.59,0.39 0.84,6.44 -0.23,8.1 v 0 a 2.2,2.2 0 0 1 -2,0.82 6.84,6.84 0 0 1 -5.21,-3.35 2.18,2.18 0 0 1 -0.11,-2.2 z"
       style="fill:#afb23a"
       id="path63" />
    <path
       d="m 345.51,347.33 v 0 c 1,-1.56 7,-3.76 7.59,-3.37 0.59,0.39 0.84,6.44 -0.23,8.1 v 0 a 2.2,2.2 0 0 1 -2,0.82 6.84,6.84 0 0 1 -5.21,-3.35 2.18,2.18 0 0 1 -0.11,-2.2 z"
       style="opacity:0.1"
       id="path65" />
    <path
       d="M 345.36,286.45 A 17.52,17.52 0 0 1 355.8,279 v 0 h 0.09 a 19.08,19.08 0 0 1 15,2.51 c 5.63,3.6 7.91,10.92 7.46,17.77 a 3.15,3.15 0 0 0 4.61,3 c 6,-3.25 13.65,-4.22 19.27,-0.6 a 19.17,19.17 0 0 1 8.53,12.64 v 0.09 0 a 17.56,17.56 0 0 1 -2.49,12.61 c -7.69,12 -26.9,16.43 -41.64,18.06 l -15.51,1.68 -4.92,-14.8 c -4.61,-14.21 -8.54,-33.53 -0.84,-45.51 z"
       style="fill:#afb23a"
       id="path67" />
    <path
       d="m 341.35,298.3 c 0.44,3.58 5.29,28.6 21.22,34.24 19,6.71 45.39,-3.73 48.22,-18.25 a 17.56,17.56 0 0 1 -2.49,12.61 c -7.69,12 -26.9,16.43 -41.64,18.06 l -15.51,1.68 -4.92,-14.8 C 342.92,321.8 340,309.1 341.35,298.3 Z"
       style="opacity:0.1"
       id="path69" />
    <path
       d="m 321.63,296.61 v 0 c 0.53,-1.78 5.66,-5.55 6.36,-5.34 0.7,0.21 2.59,6 2,7.84 v 0 a 2.19,2.19 0 0 1 -1.74,1.35 6.77,6.77 0 0 1 -5.93,-1.77 2.19,2.19 0 0 1 -0.72,-2.08 z"
       style="fill:#afb23a"
       id="path71" />
    <path
       d="m 321.63,296.61 v 0 c 0.53,-1.78 5.66,-5.55 6.36,-5.34 0.7,0.21 2.59,6 2,7.84 v 0 a 2.19,2.19 0 0 1 -1.74,1.35 6.77,6.77 0 0 1 -5.93,-1.77 2.19,2.19 0 0 1 -0.72,-2.08 z"
       style="opacity:0.3;fill:#ffffff"
       id="path73" />
    <path
       d="m 304.61,238.16 a 17.5,17.5 0 0 1 7.95,-10.09 v 0 l 0.08,-0.05 a 19.1,19.1 0 0 1 15.14,-1.75 c 6.41,1.9 10.63,8.3 12.1,15 a 3.15,3.15 0 0 0 5.25,1.57 c 4.9,-4.8 11.94,-7.84 18.34,-5.92 a 19.11,19.11 0 0 1 11.7,9.78 v 0.08 0 a 17.58,17.58 0 0 1 1.11,12.8 c -4.08,13.64 -21.29,23.25 -35,28.9 L 326.84,294.4 318,281.52 c -8.34,-12.24 -17.47,-29.71 -13.39,-43.36 z"
       style="fill:#afb23a"
       id="path75" />
    <path
       d="m 304.61,238.16 a 17.5,17.5 0 0 1 7.95,-10.09 v 0 l 0.08,-0.05 a 19.1,19.1 0 0 1 15.14,-1.75 c 6.41,1.9 10.63,8.3 12.1,15 a 3.15,3.15 0 0 0 5.25,1.57 c 4.9,-4.8 11.94,-7.84 18.34,-5.92 a 19.11,19.11 0 0 1 11.7,9.78 v 0.08 0 a 17.58,17.58 0 0 1 1.11,12.8 c -4.08,13.64 -21.29,23.25 -35,28.9 L 326.84,294.4 318,281.52 c -8.34,-12.24 -17.47,-29.71 -13.39,-43.36 z"
       style="opacity:0.5;fill:#ffffff"
       id="path77" />
    <path
       d="m 304,250.66 c 1.41,3.32 13,26 29.88,27 20.07,1.19 42.58,-16.17 41.27,-30.9 a 17.58,17.58 0 0 1 1.11,12.8 c -4.08,13.64 -21.29,23.25 -35,28.9 l -14.44,5.92 -8.82,-12.86 c -5.93,-8.72 -12.28,-20.1 -14,-30.86 z"
       style="opacity:0.05"
       id="path79" />
  </g>
  <g
     id="g7649"
     transform="matrix(1.2148446,0,0,1.2371559,104.23349,31.699369)">
    <path
       d="m 192.30195,49.108941 a 6.2810521,5.1196389 0 0 1 -2.30204,2.199457 8.7202956,7.1078482 0 0 1 -3.81132,1.006531 7.28724,5.9397752 0 0 1 -5.00045,-0.683447 6.2353162,5.08236 0 0 1 -2.2258,-3.839729 c -0.0762,-0.521905 -0.12197,-1.242631 -0.13721,-2.075194 l 0.0915,-4.187666 -2.83562,0.310658 -0.91472,-4.51075 3.82657,-0.43492 v -2.298867 l 6.37252,-0.882268 v 2.485261 l 3.58264,-0.410068 1.35683,4.622587 -5.00045,0.434921 v 3.628481 a 5.5035432,4.4858972 0 0 0 0,0.484627 2.6069415,2.1248987 0 0 0 0.79275,1.37932 1.9513948,1.5905674 0 0 0 1.52453,0.422494 2.8508659,2.3237196 0 0 0 2.22581,-1.602994 z"
       style="fill:#2f2e41;stroke-width:1.37638"
       id="path84" />
    <path
       d="m 215.62721,49.04681 -7.18052,0.708299 -1.616,-7.555195 a 4.4516194,3.6284819 0 0 0 -0.99094,-1.839093 2.2563003,1.8390936 0 0 0 -2.10385,-0.584037 c -1.616,0.161542 -2.33252,1.391747 -2.16483,3.727892 l 1.08242,6.846896 -7.272,0.621316 -3.71984,-22.591028 h 7.51592 l 1.26535,7.915558 a 7.28724,5.9397752 0 0 1 4.848,-1.85152 7.622636,6.213154 0 0 1 3.71985,0.410068 7.8208245,6.374696 0 0 1 5.00045,5.169344 z"
       style="fill:#2f2e41;stroke-width:1.37638"
       id="path86" />
    <path
       d="m 230.94871,47.543227 -0.15245,-1.068663 a 7.0128251,5.7161017 0 0 1 -5.00045,2.013062 7.1042968,5.7906595 0 0 1 -4.3449,-0.683447 9.2538801,7.542769 0 0 1 -3.44543,-2.621951 10.946105,8.9220891 0 0 1 -1.75321,-3.839729 10.046634,8.188937 0 0 1 0.62506,-4.013698 9.7722194,7.9652634 0 0 1 2.69841,-3.205987 7.0738062,5.7658069 0 0 1 3.88754,-1.491157 6.0981088,4.9705232 0 0 1 5.16815,1.006531 l -0.15245,-1.04381 5.94565,-0.584036 3.04906,14.911569 z m -1.82943,-5.467576 a 3.2472429,2.6468036 0 0 0 0.57932,-2.037914 3.0490544,2.4852616 0 0 0 -1.20438,-1.826668 3.2777335,2.6716562 0 0 0 -2.46973,-0.472199 3.0490544,2.4852616 0 0 0 -2.14958,0.956825 3.0490544,2.4852616 0 0 0 -0.65555,1.913652 3.6131295,2.945035 0 0 0 1.9209,2.174604 2.9423375,2.3982774 0 0 0 1.73796,0.248526 3.1710166,2.5846721 0 0 0 2.24106,-0.9444 z"
       style="fill:#2f2e41;stroke-width:1.37638"
       id="path88" />
    <path
       d="m 250.12726,38.683269 a 4.5735816,3.7278924 0 0 0 -0.85373,-2.025488 2.0123759,1.6402727 0 0 0 -1.84468,-0.57161 1.905659,1.5532885 0 0 0 -1.64649,0.844989 5.0919208,4.1503869 0 0 0 -0.18294,2.149751 v 0 l 1.00619,6.958732 -7.19577,0.7083 -2.34777,-15.14767 7.31773,-1.031383 0.1677,1.118368 a 7.5159191,6.1261698 0 0 1 4.36014,-1.85152 6.0981088,4.9705232 0 0 1 5.656,1.61542 12.86701,10.487804 0 0 1 2.65268,5.740954 l 1.15864,7.617327 -7.36347,0.720726 z"
       style="fill:#2f2e41;stroke-width:1.37638"
       id="path90" />
    <path
       d="m 280.75502,42.659688 -7.21102,1.056236 -5.88467,-5.355739 0.808,5.492428 -7.25675,0.770431 -3.35396,-22.740143 7.28724,-1.006531 1.79894,12.426308 2.94234,-5.045081 7.31773,-0.285806 -4.23819,7.194833 z"
       style="fill:#2f2e41;stroke-width:1.37638"
       id="path92" />
    <path
       d="m 246.57512,51.097151 -3.04906,15.321637 a 15.12331,12.326898 0 0 1 -3.04905,6.051612 8.2629374,6.7350589 0 0 1 -5.44256,2.410704 11.433954,9.319731 0 0 1 -2.94234,0 22.364814,18.229394 0 0 1 -3.21675,-0.584036 l 1.84467,-5.79066 a 3.7046011,3.0195928 0 0 0 1.60076,0.7083 4.6650532,3.8024502 0 0 0 1.87517,0.298231 2.7593942,2.2491617 0 0 0 1.7532,-0.671021 4.5735816,3.7278924 0 0 0 0.94521,-1.491156 l -10.67169,-13.668939 7.42445,-0.795284 4.57358,7.157553 1.23486,-7.778868 z"
       style="fill:#2f2e41;stroke-width:1.37638"
       id="path94" />
    <path
       d="m 253.8776,65.275568 a 10.961351,8.9345155 0 0 1 -4.19245,-2.696509 9.8789363,8.0522476 0 0 1 -1.99713,-4.013697 8.5373523,6.9587325 0 0 1 0.77751,-3.93914 9.8179552,8.0025424 0 0 1 3.27773,-3.168708 10.824143,8.8226787 0 0 1 5.10717,-1.565715 10.122861,8.2510685 0 0 1 5.18339,0.521905 9.1471632,7.4557848 0 0 1 3.88755,2.485261 9.4825592,7.7291636 0 0 1 1.82943,3.727893 10.473502,8.5368736 0 0 1 -3.88755,7.679458 9.528295,7.7664425 0 0 1 -4.78701,1.61542 9.8484457,8.027395 0 0 1 -5.19864,-0.646168 z m 6.43351,-5.790659 a 3.2319977,2.6343773 0 0 0 0.62505,-1.963357 3.2015071,2.6095247 0 0 0 -1.14339,-1.702404 3.0490544,2.4852616 0 0 0 -2.39351,-0.559184 3.1862618,2.5970984 0 0 0 -2.22581,0.969252 3.2624882,2.6592299 0 0 0 3.04905,4.224945 3.0490544,2.4852616 0 0 0 2.08861,-0.969252 z"
       style="fill:#2f2e41;stroke-width:1.37638"
       id="path96" />
    <path
       d="m 282.9046,63.548311 -0.1677,-1.130794 a 7.4092022,6.0391857 0 0 1 -4.36015,1.863946 6.0981088,4.9705232 0 0 1 -5.65599,-1.61542 12.86701,10.487804 0 0 1 -2.65268,-5.75338 l -1.15864,-7.604901 7.36347,-0.720726 0.83849,6.83447 a 4.5735816,3.7278924 0 0 0 0.85373,2.037914 1.9666401,1.6029937 0 0 0 1.84468,0.559184 1.905659,1.5532885 0 0 0 1.64649,-0.832562 4.9547134,4.0385501 0 0 0 0.18294,-2.149752 v 0 l -0.99094,-6.971158 7.19577,-0.7083 2.33252,15.160096 z"
       style="fill:#2f2e41;stroke-width:1.37638"
       id="path98" />
    <path
       d="m 274.59593,16.949656 a 1.5245272,1.2426308 0 0 1 -1.28061,-1.242631 L 274.1843,2.4108759 a 1.5245272,1.2426308 0 0 1 1.52453,-1.1432203 1.5245272,1.2426308 0 0 1 1.40257,1.2426308 L 276.19668,15.79401 a 1.5245272,1.2426308 0 0 1 -1.52453,1.14322 z"
       style="fill:#afb23a;stroke-width:1.37638"
       id="path108" />
    <path
       d="m 283.48392,19.285802 a 1.5245272,1.2426308 0 0 1 -0.60981,-0.186394 1.5245272,1.2426308 0 0 1 -0.42687,-1.677552 l 8.99471,-11.0966931 a 1.5245272,1.2426308 0 1 1 2.46974,1.329615 l -8.97947,11.0966931 a 1.5245272,1.2426308 0 0 1 -1.4483,0.534331 z"
       style="fill:#afb23a;stroke-width:1.37638"
       id="path110" />
    <path
       d="m 289.27712,24.492425 a 1.5245272,1.2426308 0 0 1 -1.20437,-0.80771 1.5245272,1.2426308 0 0 1 0.92996,-1.528436 l 15.4587,-4.262223 a 1.5245272,1.2426308 0 0 1 0.94521,2.28644 l -15.4587,4.262224 a 1.5245272,1.2426308 0 0 1 -0.6708,0.0497 z"
       style="fill:#afb23a;stroke-width:1.37638"
       id="path112" />
    <path
       d="m 244.92863,94.65136 a 1.5245272,1.2426308 0 0 1 -1.40257,-0.820136 l -5.24437,-12.600276 a 1.5245272,1.2426308 0 0 1 2.82037,-0.782858 l 5.22913,12.58785 a 1.5245272,1.2426308 0 0 1 -0.92996,1.528436 1.7074705,1.3917465 0 0 1 -0.4726,0.08698 z"
       style="fill:#afb23a;stroke-width:1.37638"
       id="path114" />
    <path
       d="m 227.1069,95.620612 a 0.94520686,0.7704311 0 0 1 -0.28966,0 1.5245272,1.2426308 0 0 1 -1.15864,-1.416599 l 3.26249,-13.035197 a 1.5245272,1.2426308 0 1 1 2.8966,0.4722 l -3.26249,13.035197 a 1.5245272,1.2426308 0 0 1 -1.4483,0.944399 z"
       style="fill:#afb23a;stroke-width:1.37638"
       id="path116" />
    <path
       d="m 210.23039,88.164827 a 1.4330556,1.168073 0 0 1 -1.12815,-0.422494 1.5245272,1.2426308 0 0 1 0.15245,-1.702404 l 12.39441,-8.698416 a 1.5245272,1.2426308 0 0 1 1.93615,1.839094 l -12.39441,8.698415 a 1.5245272,1.2426308 0 0 1 -0.96045,0.285805 z"
       style="fill:#afb23a;stroke-width:1.37638"
       id="path118" />
  </g>
  <text
     xml:space="preserve"
     style="font-style:normal;font-weight:normal;font-size:24px;line-height:1.25;font-family:sans-serif;text-align:center;text-anchor:middle;fill:#f0f0f0;fill-opacity:1;stroke:none"
     x="398.32312"
     y="223.14578"
     id="text14251"><tspan
       sodipodi:role="line"
       x="398.32312"
       y="223.14578"
       style="font-size:24px;text-align:center;text-anchor:middle;fill:#f0f0f0"
       id="tspan16095">I appreciate you contacting me. I will </tspan><tspan
       sodipodi:role="line"
       x="398.32312"
       y="253.14578"
       style="font-size:24px;text-align:center;text-anchor:middle;fill:#f0f0f0"
       id="tspan21615">get back in touch with you soon!</tspan><tspan
       sodipodi:role="line"
       x="398.32312"
       y="283.14578"
       style="font-size:24px;text-align:center;text-anchor:middle;fill:#f0f0f0"
       id="tspan23405">Have a great day!</tspan></text>
</svg>
