<?xml version="1.0" encoding="UTF-8" standalone="no"?>
<svg
   id="a2942aa7-bf0d-42c0-bc52-bf4c952347c5"
   data-name="Layer 1"
   width="550"
   height="550"
   viewBox="0 0 1270.9792 549.99998"
   version="1.1"
   sodipodi:docname="undraw_percentages_color6865cd - Copie.svg"
   inkscape:version="1.1.1 (3bf5ae0d25, 2021-09-20)"
   xmlns:inkscape="http://www.inkscape.org/namespaces/inkscape"
   xmlns:sodipodi="http://sodipodi.sourceforge.net/DTD/sodipodi-0.dtd"
   xmlns="http://www.w3.org/2000/svg"
   xmlns:svg="http://www.w3.org/2000/svg"
   xmlns:rdf="http://www.w3.org/1999/02/22-rdf-syntax-ns#"
   xmlns:cc="http://creativecommons.org/ns#"
   xmlns:dc="http://purl.org/dc/elements/1.1/">
  <defs
     id="defs193" />
  <sodipodi:namedview
     id="namedview191"
     pagecolor="#505050"
     bordercolor="#eeeeee"
     borderopacity="1"
     inkscape:pageshadow="0"
     inkscape:pageopacity="0"
     inkscape:pagecheckerboard="0"
     showgrid="false"
     inkscape:zoom="1.2120565"
     inkscape:cx="483.06329"
     inkscape:cy="342.39328"
     inkscape:window-width="1920"
     inkscape:window-height="986"
     inkscape:window-x="-11"
     inkscape:window-y="-11"
     inkscape:window-maximized="1"
     inkscape:current-layer="a2942aa7-bf0d-42c0-bc52-bf4c952347c5"
     width="925.49701px" />
  <title
     id="title2">percentages</title>
  <ellipse
     cx="319.03918"
     cy="287.72195"
     fill="#f2f2f2"
     id="circle4"
     rx="25.197039"
     ry="36.179504"
     style="stroke-width:1.64014" />
  <ellipse
     cx="232.80804"
     cy="704.37317"
     fill="#f2f2f2"
     id="circle6"
     rx="15.615797"
     ry="22.422148"
     style="stroke-width:1.64014" />
  <rect
     x="520.12054"
     y="-315.552"
     width="191.62488"
     height="3.9306729"
     fill="#f2f2f2"
     id="rect8"
     style="stroke-width:1.64014" />
  <rect
     x="572.133"
     y="-350.92804"
     width="2.7374978"
     height="36.358719"
     fill="#f2f2f2"
     id="rect10"
     style="stroke-width:1.64014" />
  <rect
     x="655.62671"
     y="-350.92804"
     width="2.7374978"
     height="36.358719"
     fill="#f2f2f2"
     id="rect12"
     style="stroke-width:1.64014" />
  <rect
     x="829.45782"
     y="635.67084"
     width="191.62488"
     height="3.9306729"
     fill="#f2f2f2"
     id="rect14"
     style="stroke-width:1.64014" />
  <rect
     x="881.47028"
     y="600.2948"
     width="2.7374978"
     height="36.358719"
     fill="#f2f2f2"
     id="rect16"
     style="stroke-width:1.64014" />
  <rect
     x="964.96387"
     y="600.2948"
     width="2.7374978"
     height="36.358719"
     fill="#f2f2f2"
     id="rect18"
     style="stroke-width:1.64014" />
  <rect
     x="839.03894"
     y="36.243233"
     width="191.62488"
     height="3.9306729"
     fill="#f2f2f2"
     id="rect20"
     style="stroke-width:1.64014" />
  <rect
     x="891.05151"
     y="0.86720204"
     width="2.7374978"
     height="36.358719"
     fill="#f2f2f2"
     id="rect22"
     style="stroke-width:1.64014" />
  <rect
     x="974.54523"
     y="0.86720204"
     width="2.7374978"
     height="36.358719"
     fill="#f2f2f2"
     id="rect24"
     style="stroke-width:1.64014" />
  <rect
     x="839.03894"
     y="-105.26097"
     width="191.62488"
     height="3.9306729"
     fill="#f2f2f2"
     id="rect26"
     style="stroke-width:1.64014" />
  <rect
     x="891.05151"
     y="-140.63704"
     width="2.7374978"
     height="36.358719"
     fill="#f2f2f2"
     id="rect28"
     style="stroke-width:1.64014" />
  <rect
     x="974.54523"
     y="-140.63704"
     width="2.7374978"
     height="36.358719"
     fill="#f2f2f2"
     id="rect30"
     style="stroke-width:1.64014" />
  <rect
     x="418.8331"
     y="-85.607605"
     width="191.62488"
     height="3.9306729"
     fill="#f2f2f2"
     id="rect32"
     style="stroke-width:1.64014" />
  <rect
     x="470.84558"
     y="-120.98365"
     width="2.7374978"
     height="36.358719"
     fill="#f2f2f2"
     id="rect34"
     style="stroke-width:1.64014" />
  <rect
     x="554.33923"
     y="-120.98365"
     width="2.7374978"
     height="36.358719"
     fill="#f2f2f2"
     id="rect36"
     style="stroke-width:1.64014" />
  <rect
     x="279.2207"
     y="-177.97842"
     width="191.62488"
     height="3.9306729"
     fill="#f2f2f2"
     id="rect38"
     style="stroke-width:1.64014" />
  <rect
     x="331.23318"
     y="-213.35448"
     width="2.7374978"
     height="36.358719"
     fill="#f2f2f2"
     id="rect40"
     style="stroke-width:1.64014" />
  <rect
     x="414.72687"
     y="-213.35448"
     width="2.7374978"
     height="36.358719"
     fill="#f2f2f2"
     id="rect42"
     style="stroke-width:1.64014" />
  <rect
     x="192.9895"
     y="185.60881"
     width="191.62488"
     height="3.9306729"
     fill="#f2f2f2"
     id="rect44"
     style="stroke-width:1.64014" />
  <rect
     x="245.00197"
     y="150.23277"
     width="2.7374978"
     height="36.358719"
     fill="#f2f2f2"
     id="rect46"
     style="stroke-width:1.64014" />
  <rect
     x="328.49564"
     y="150.23277"
     width="2.7374978"
     height="36.358719"
     fill="#f2f2f2"
     id="rect48"
     style="stroke-width:1.64014" />
  <rect
     x="97.177078"
     y="586.53741"
     width="191.62488"
     height="3.9306729"
     fill="#f2f2f2"
     id="rect50"
     style="stroke-width:1.64014" />
  <rect
     x="149.18953"
     y="551.16144"
     width="2.7374978"
     height="36.358719"
     fill="#f2f2f2"
     id="rect52"
     style="stroke-width:1.64014" />
  <rect
     x="232.6832"
     y="551.16144"
     width="2.7374978"
     height="36.358719"
     fill="#f2f2f2"
     id="rect54"
     style="stroke-width:1.64014" />
  <rect
     x="1003.289"
     y="421.44919"
     width="191.62488"
     height="3.9306729"
     fill="#f2f2f2"
     id="rect56"
     style="stroke-width:1.64014" />
  <rect
     x="1055.3013"
     y="386.07309"
     width="2.7374978"
     height="36.358719"
     fill="#f2f2f2"
     id="rect58"
     style="stroke-width:1.64014" />
  <rect
     x="1138.7952"
     y="386.07309"
     width="2.7374978"
     height="36.358719"
     fill="#f2f2f2"
     id="rect60"
     style="stroke-width:1.64014" />
  <rect
     x="947.17023"
     y="169.88612"
     width="191.62488"
     height="3.9306729"
     fill="#f2f2f2"
     id="rect62"
     style="stroke-width:1.64014" />
  <rect
     x="1084.0452"
     y="172.83412"
     width="2.7374978"
     height="36.358719"
     fill="#f2f2f2"
     id="rect64"
     style="stroke-width:1.64014" />
  <rect
     x="1000.5514"
     y="172.83412"
     width="2.7374978"
     height="36.358719"
     fill="#f2f2f2"
     id="rect66"
     style="stroke-width:1.64014" />
  <rect
     x="19.158381"
     y="-124.91435"
     width="191.62488"
     height="3.9306729"
     fill="#f2f2f2"
     id="rect68"
     style="stroke-width:1.64014" />
  <rect
     x="156.03328"
     y="-121.96632"
     width="2.7374978"
     height="36.358719"
     fill="#f2f2f2"
     id="rect70"
     style="stroke-width:1.64014" />
  <rect
     x="72.539589"
     y="-121.96632"
     width="2.7374978"
     height="36.358719"
     fill="#f2f2f2"
     id="rect72"
     style="stroke-width:1.64014" />
  <rect
     x="31.477121"
     y="390.00381"
     width="191.62488"
     height="3.9306729"
     fill="#f2f2f2"
     id="rect74"
     style="stroke-width:1.64014" />
  <rect
     x="168.35202"
     y="392.95181"
     width="2.7374978"
     height="36.358719"
     fill="#f2f2f2"
     id="rect76"
     style="stroke-width:1.64014" />
  <rect
     x="84.85833"
     y="392.95181"
     width="2.7374978"
     height="36.358719"
     fill="#f2f2f2"
     id="rect78"
     style="stroke-width:1.64014" />
  <rect
     x="635.0954"
     y="-252.66119"
     width="191.62488"
     height="3.9306729"
     fill="#f2f2f2"
     id="rect80"
     style="stroke-width:1.64014" />
  <rect
     x="771.9704"
     y="-249.71321"
     width="2.7374978"
     height="36.358719"
     fill="#f2f2f2"
     id="rect82"
     style="stroke-width:1.64014" />
  <rect
     x="688.47662"
     y="-249.71321"
     width="2.7374978"
     height="36.358719"
     fill="#f2f2f2"
     id="rect84"
     style="stroke-width:1.64014" />
  <rect
     x="97.177078"
     y="20.520554"
     width="191.62488"
     height="3.9306729"
     fill="#f2f2f2"
     id="rect86"
     style="stroke-width:1.64014" />
  <rect
     x="149.18953"
     y="-14.855514"
     width="2.7374978"
     height="36.358719"
     fill="#f2f2f2"
     id="rect88"
     style="stroke-width:1.64014" />
  <rect
     x="232.6832"
     y="-14.855514"
     width="2.7374978"
     height="36.358719"
     fill="#f2f2f2"
     id="rect90"
     style="stroke-width:1.64014" />
  <path
     d="M 319.59878,-17.803504 V 907.86997 H 916.37335 V -17.803504 Z m 298.38728,66.821433 a 20.531235,29.480046 0 1 1 20.53125,-29.480037 20.531235,29.480046 0 0 1 -20.53125,29.480037 z"
     fill="#2f2e41"
     id="path92"
     style="stroke-width:1.64014" />
  <path
     d="m 50.992689,828.85819 c 9.463528,50.23051 41.87815,81.33948 41.87815,81.33948 0,0 17.071271,-50.33067 7.607771,-100.56119 -9.463515,-50.23051 -41.878155,-81.33954 -41.878155,-81.33954 0,0 -17.07127,50.33071 -7.607766,100.56125 z"
     fill="#2f2e41"
     id="path94"
     style="stroke-width:1.64014" />
  <path
     d="m 64.898649,818.06311 c 25.967996,36.29689 29.139798,92.09366 29.139798,92.09366 0,0 -38.930641,-3.05217 -64.898643,-39.34898 C 3.171802,834.51092 0,778.71409 0,778.71409 c 0,0 38.930644,3.05211 64.898649,39.34902 z"
     fill="#afb23a"
     id="path96"
     style="stroke-width:1.64014" />
  <rect
     x="22.580252"
     y="905.9046"
     width="1244.1929"
     height="3.9306729"
     fill="#2f2e41"
     id="rect98"
     style="stroke-width:1.64014" />
  <path
     d="m 262.7957,784.7183 a 30.155429,43.299073 0 0 0 -19.2051,-40.2894 30.112478,43.237402 0 1 0 -21.81475,0 30.100419,43.220087 0 0 0 0,80.57879 30.112478,43.237402 0 1 0 21.81475,0 30.155417,43.299055 0 0 0 19.2051,-40.28939 z m -57.48745,-80.5788 a 27.37498,39.306727 0 1 1 33.55205,38.2599 30.144178,43.282919 0 0 0 -12.35416,0 27.403641,39.347883 0 0 1 -21.19789,-38.2599 z m 54.74995,161.15763 a 27.37498,39.306727 0 1 1 -33.55206,-38.25989 30.144807,43.283823 0 0 0 12.35416,0 27.403628,39.347863 0 0 1 21.1979,38.25989 z m -21.1979,-42.31894 a 30.144178,43.282919 0 0 0 -12.35416,0 27.346003,39.265123 0 0 1 0,-76.51977 30.144807,43.283823 0 0 0 12.35416,0 27.346003,39.265123 0 0 1 0,76.51977 z"
     fill="#2f2e41"
     id="path100"
     style="stroke-width:1.64014" />
  <path
     d="M 699.42662,175.78213 H 385.9831 a 9.581243,13.757357 0 1 1 0,-27.51471 h 313.44352 a 9.581243,13.757357 0 0 1 0,27.51471 z"
     fill="#f2f2f2"
     id="path102"
     style="stroke-width:1.64014" />
  <path
     d="M 699.42662,317.28636 H 385.9831 a 9.5812455,13.75736 0 1 1 0,-27.51472 h 313.44352 a 9.5812455,13.75736 0 0 1 0,27.51472 z"
     fill="#f2f2f2"
     id="path104"
     style="stroke-width:1.64014" />
  <path
     d="M 699.42662,458.79058 H 385.9831 a 9.581243,13.757357 0 1 1 0,-27.51471 h 313.44352 a 9.581243,13.757357 0 0 1 0,27.51471 z"
     fill="#f2f2f2"
     id="path106"
     style="stroke-width:1.64014" />
  <path
     d="M 699.42662,600.29479 H 385.9831 a 9.5812423,13.757356 0 1 1 0,-27.5147 h 313.44352 a 9.5812423,13.757356 0 0 1 0,27.5147 z"
     fill="#f2f2f2"
     id="path108"
     style="stroke-width:1.64014" />
  <path
     d="M 699.42662,741.79903 H 385.9831 a 9.5812455,13.75736 0 1 1 0,-27.51472 h 313.44352 a 9.5812455,13.75736 0 0 1 0,27.51472 z"
     fill="#f2f2f2"
     id="path110"
     style="stroke-width:1.64014" />
  <path
     d="M 644.67671,175.78213 H 384.61436 a 9.581243,13.757357 0 1 1 0,-27.51471 h 260.06235 a 9.581243,13.757357 0 0 1 0,27.51471 z"
     fill="#afb23a"
     id="path112"
     style="stroke-width:1.64014" />
  <path
     d="M 563.92048,317.28636 H 384.61436 a 9.5812455,13.75736 0 1 1 0,-27.51472 h 179.30612 a 9.5812455,13.75736 0 0 1 0,27.51472 z"
     fill="#afb23a"
     id="path114"
     style="stroke-width:1.64014" />
  <path
     d="m 465.37055,458.79058 h -80.75619 a 9.581243,13.757357 0 1 1 0,-27.51471 h 80.75619 a 9.581243,13.757357 0 0 1 0,27.51471 z"
     fill="#afb23a"
     id="path116"
     style="stroke-width:1.64014" />
  <path
     d="M 669.31417,600.29479 H 384.61436 a 9.5812423,13.757356 0 1 1 0,-27.5147 h 284.69981 a 9.5812423,13.757356 0 0 1 0,27.5147 z"
     fill="#afb23a"
     id="path118"
     style="stroke-width:1.64014" />
  <path
     d="M 606.35172,741.79903 H 384.61436 a 9.5812455,13.75736 0 1 1 0,-27.51472 h 221.73736 a 9.5812455,13.75736 0 0 1 0,27.51472 z"
     fill="#afb23a"
     id="path120"
     style="stroke-width:1.64014" />
  <rect
     x="826.72028"
     y="148.26743"
     width="2.7374978"
     height="27.514711"
     fill="#afb23a"
     id="rect122"
     style="stroke-width:1.64014" />
  <path
     d="m 849.98899,177.74748 a 10.949992,15.722691 0 1 1 10.95004,-15.72271 10.962543,15.740714 0 0 1 -10.95004,15.72271 z m 0,-27.51473 a 8.2124934,11.792018 0 1 0 8.21248,11.79202 8.2214597,11.804892 0 0 0 -8.21248,-11.79202 z"
     fill="#afb23a"
     id="path124"
     style="stroke-width:1.64014" />
  <rect
     x="826.72028"
     y="289.77164"
     width="2.7374978"
     height="27.514711"
     fill="#afb23a"
     id="rect126"
     style="stroke-width:1.64014" />
  <path
     d="m 849.98899,319.25168 a 10.949992,15.722691 0 1 1 10.95004,-15.72267 10.962543,15.740714 0 0 1 -10.95004,15.72267 z m 0,-27.5147 a 8.2124934,11.792018 0 1 0 8.21248,11.79203 8.2214597,11.804892 0 0 0 -8.21248,-11.79203 z"
     fill="#afb23a"
     id="path128"
     style="stroke-width:1.64014" />
  <rect
     x="826.72028"
     y="431.27588"
     width="2.7374978"
     height="27.514711"
     fill="#afb23a"
     id="rect130"
     style="stroke-width:1.64014" />
  <path
     d="m 849.98899,460.75592 a 10.949992,15.722691 0 1 1 10.95004,-15.7227 10.962543,15.740714 0 0 1 -10.95004,15.7227 z m 0,-27.51472 a 8.2124934,11.792018 0 1 0 8.21248,11.79202 8.2214597,11.804892 0 0 0 -8.21248,-11.79202 z"
     fill="#afb23a"
     id="path132"
     style="stroke-width:1.64014" />
  <rect
     x="826.72028"
     y="572.78009"
     width="2.7374978"
     height="27.514711"
     fill="#afb23a"
     id="rect134"
     style="stroke-width:1.64014" />
  <path
     d="m 849.98899,602.26013 a 10.949992,15.722691 0 1 1 10.95004,-15.72268 10.962543,15.740714 0 0 1 -10.95004,15.72268 z m 0,-27.5147 a 8.2124934,11.792018 0 1 0 8.21248,11.79202 8.2214597,11.804892 0 0 0 -8.21248,-11.79202 z"
     fill="#afb23a"
     id="path136"
     style="stroke-width:1.64014" />
  <rect
     x="826.72028"
     y="714.2843"
     width="2.7374978"
     height="27.514711"
     fill="#afb23a"
     id="rect138"
     style="stroke-width:1.64014" />
  <path
     d="m 849.98899,743.76436 a 10.949992,15.722691 0 1 1 10.95004,-15.7227 10.962543,15.740714 0 0 1 -10.95004,15.7227 z m 0,-27.51471 a 8.2124934,11.792018 0 1 0 8.21248,11.79201 8.2214597,11.804892 0 0 0 -8.21248,-11.79201 z"
     fill="#afb23a"
     id="path140"
     style="stroke-width:1.64014" />
  <ellipse
     cx="849.98901"
     cy="162.02478"
     fill="#afb23a"
     id="circle142"
     rx="5.4749956"
     ry="7.8613458"
     style="stroke-width:1.64014" />
  <ellipse
     cx="849.98901"
     cy="586.53741"
     fill="#afb23a"
     id="circle144"
     rx="5.4749956"
     ry="7.8613458"
     style="stroke-width:1.64014" />
  <ellipse
     cx="849.98901"
     cy="728.04169"
     fill="#afb23a"
     id="circle146"
     rx="5.4749956"
     ry="7.8613458"
     style="stroke-width:1.64014" />
  <ellipse
     cx="617.98602"
     cy="19.537876"
     fill="#2f2e41"
     id="circle148"
     rx="9.5812426"
     ry="13.757356"
     style="stroke-width:1.64014" />
  <ellipse
     cx="617.98602"
     cy="-344.04935"
     fill="#2f2e41"
     id="circle150"
     rx="9.5812426"
     ry="13.757356"
     style="stroke-width:1.64014" />
  <rect
     x="616.61743"
     y="-344.0495"
     width="2.7374978"
     height="363.58725"
     fill="#2f2e41"
     id="rect152"
     style="stroke-width:1.64014" />
  <metadata
     id="metadata896">
    <rdf:RDF>
      <cc:Work
         rdf:about="">
        <dc:title>percentages</dc:title>
      </cc:Work>
    </rdf:RDF>
  </metadata>
</svg>
