<?xml version="1.0" encoding="UTF-8" standalone="no"?>
<svg
   id="a2942aa7-bf0d-42c0-bc52-bf4c952347c5"
   data-name="Layer 1"
   width="925.49701"
   height="900.18445"
   viewBox="0 0 925.497 900.18443"
   version="1.1"
   sodipodi:docname="undraw_percentages_color3d3ab2.svg"
   inkscape:version="1.1.1 (3bf5ae0d25, 2021-09-20)"
   xmlns:inkscape="http://www.inkscape.org/namespaces/inkscape"
   xmlns:sodipodi="http://sodipodi.sourceforge.net/DTD/sodipodi-0.dtd"
   xmlns="http://www.w3.org/2000/svg"
   xmlns:svg="http://www.w3.org/2000/svg"
   xmlns:rdf="http://www.w3.org/1999/02/22-rdf-syntax-ns#"
   xmlns:cc="http://creativecommons.org/ns#"
   xmlns:dc="http://purl.org/dc/elements/1.1/">
  <defs
     id="defs193" />
  <sodipodi:namedview
     id="namedview191"
     pagecolor="#505050"
     bordercolor="#eeeeee"
     borderopacity="1"
     inkscape:pageshadow="0"
     inkscape:pageopacity="0"
     inkscape:pagecheckerboard="0"
     showgrid="false"
     inkscape:zoom="1.2129429"
     inkscape:cx="675.6295"
     inkscape:cy="244.85901"
     inkscape:window-width="1920"
     inkscape:window-height="986"
     inkscape:window-x="-11"
     inkscape:window-y="-11"
     inkscape:window-maximized="1"
     inkscape:current-layer="a2942aa7-bf0d-42c0-bc52-bf4c952347c5"
     height="645.18445px"
     showguides="true"
     inkscape:guide-bbox="true" />
  <title
     id="title2">percentages</title>
  <circle
     cx="233.08818"
     cy="583.20929"
     r="18.40881"
     fill="#f2f2f2"
     id="circle4" />
  <circle
     cx="170.08818"
     cy="795.21606"
     r="11.40881"
     fill="#f2f2f2"
     id="circle6" />
  <rect
     x="379.99701"
     y="26.446657"
     width="140"
     height="2"
     fill="#f2f2f2"
     id="rect8" />
  <rect
     x="417.99701"
     y="8.4466496"
     width="2"
     height="18.5"
     fill="#f2f2f2"
     id="rect10" />
  <rect
     x="478.99701"
     y="8.4466496"
     width="2"
     height="18.5"
     fill="#f2f2f2"
     id="rect12" />
  <rect
     x="605.99701"
     y="760.25879"
     width="140"
     height="2"
     fill="#f2f2f2"
     id="rect14" />
  <rect
     x="643.99701"
     y="742.25812"
     width="2"
     height="18.5"
     fill="#f2f2f2"
     id="rect16" />
  <rect
     x="704.99701"
     y="742.25812"
     width="2"
     height="18.5"
     fill="#f2f2f2"
     id="rect18" />
  <rect
     x="612.99701"
     y="455.25064"
     width="140"
     height="2"
     fill="#f2f2f2"
     id="rect20" />
  <rect
     x="650.99701"
     y="437.25098"
     width="2"
     height="18.5"
     fill="#f2f2f2"
     id="rect22" />
  <rect
     x="711.99701"
     y="437.25098"
     width="2"
     height="18.5"
     fill="#f2f2f2"
     id="rect24" />
  <rect
     x="612.99701"
     y="383.25195"
     width="140"
     height="2"
     fill="#f2f2f2"
     id="rect26" />
  <rect
     x="650.99701"
     y="365.25214"
     width="2"
     height="18.5"
     fill="#f2f2f2"
     id="rect28" />
  <rect
     x="711.99701"
     y="365.25214"
     width="2"
     height="18.5"
     fill="#f2f2f2"
     id="rect30" />
  <rect
     x="305.99701"
     y="143.44667"
     width="140"
     height="2"
     fill="#f2f2f2"
     id="rect32" />
  <rect
     x="343.99701"
     y="125.44664"
     width="2"
     height="18.5"
     fill="#f2f2f2"
     id="rect34" />
  <rect
     x="404.99701"
     y="125.44664"
     width="2"
     height="18.5"
     fill="#f2f2f2"
     id="rect36" />
  <rect
     x="203.99699"
     y="96.446648"
     width="140"
     height="2"
     fill="#f2f2f2"
     id="rect38" />
  <rect
     x="241.99699"
     y="78.446632"
     width="2"
     height="18.5"
     fill="#f2f2f2"
     id="rect40" />
  <rect
     x="302.99701"
     y="78.446632"
     width="2"
     height="18.5"
     fill="#f2f2f2"
     id="rect42" />
  <rect
     x="140.99699"
     y="531.25031"
     width="140"
     height="2"
     fill="#f2f2f2"
     id="rect44" />
  <rect
     x="178.99699"
     y="513.24963"
     width="2"
     height="18.5"
     fill="#f2f2f2"
     id="rect46" />
  <rect
     x="239.99699"
     y="513.24963"
     width="2"
     height="18.5"
     fill="#f2f2f2"
     id="rect48" />
  <rect
     x="70.997002"
     y="735.25787"
     width="140"
     height="2"
     fill="#f2f2f2"
     id="rect50" />
  <rect
     x="108.997"
     y="717.2572"
     width="2"
     height="18.5"
     fill="#f2f2f2"
     id="rect52" />
  <rect
     x="169.99699"
     y="717.2572"
     width="2"
     height="18.5"
     fill="#f2f2f2"
     id="rect54" />
  <rect
     x="732.99701"
     y="651.25476"
     width="140"
     height="2"
     fill="#f2f2f2"
     id="rect56" />
  <rect
     x="770.99701"
     y="633.25409"
     width="2"
     height="18.5"
     fill="#f2f2f2"
     id="rect58" />
  <rect
     x="831.99701"
     y="633.25409"
     width="2"
     height="18.5"
     fill="#f2f2f2"
     id="rect60" />
  <rect
     x="691.99701"
     y="523.25"
     width="140"
     height="2"
     fill="#f2f2f2"
     id="rect62" />
  <rect
     x="791.99701"
     y="524.75006"
     width="2"
     height="18.5"
     fill="#f2f2f2"
     id="rect64" />
  <rect
     x="730.99701"
     y="524.75006"
     width="2"
     height="18.5"
     fill="#f2f2f2"
     id="rect66" />
  <rect
     x="662.81708"
     y="261.69089"
     width="140"
     height="2"
     fill="#f2f2f2"
     id="rect56-7" />
  <rect
     x="700.81708"
     y="243.6902"
     width="2"
     height="18.5"
     fill="#f2f2f2"
     id="rect58-8" />
  <rect
     x="761.81708"
     y="243.6902"
     width="2"
     height="18.5"
     fill="#f2f2f2"
     id="rect60-7" />
  <rect
     x="621.81708"
     y="133.68611"
     width="140"
     height="2"
     fill="#f2f2f2"
     id="rect62-2" />
  <rect
     x="721.81708"
     y="135.18617"
     width="2"
     height="18.5"
     fill="#f2f2f2"
     id="rect64-2" />
  <rect
     x="660.81708"
     y="135.18617"
     width="2"
     height="18.5"
     fill="#f2f2f2"
     id="rect66-3" />
  <rect
     x="13.997"
     y="373.25204"
     width="140"
     height="2"
     fill="#f2f2f2"
     id="rect68" />
  <rect
     x="113.997"
     y="374.75204"
     width="2"
     height="18.5"
     fill="#f2f2f2"
     id="rect70" />
  <rect
     x="52.997002"
     y="374.75204"
     width="2"
     height="18.5"
     fill="#f2f2f2"
     id="rect72" />
  <rect
     x="22.997"
     y="635.25415"
     width="140"
     height="2"
     fill="#f2f2f2"
     id="rect74" />
  <rect
     x="122.997"
     y="636.75421"
     width="2"
     height="18.5"
     fill="#f2f2f2"
     id="rect76" />
  <rect
     x="61.997002"
     y="636.75421"
     width="2"
     height="18.5"
     fill="#f2f2f2"
     id="rect78" />
  <rect
     x="463.99701"
     y="58.446632"
     width="140"
     height="2"
     fill="#f2f2f2"
     id="rect80" />
  <rect
     x="563.99701"
     y="59.946648"
     width="2"
     height="18.5"
     fill="#f2f2f2"
     id="rect82" />
  <rect
     x="502.99701"
     y="59.946648"
     width="2"
     height="18.5"
     fill="#f2f2f2"
     id="rect84" />
  <rect
     x="770.92993"
     y="56.779724"
     width="140"
     height="2"
     fill="#f2f2f2"
     id="rect80-8" />
  <rect
     x="870.92999"
     y="58.279739"
     width="2"
     height="18.5"
     fill="#f2f2f2"
     id="rect82-8" />
  <rect
     x="809.92999"
     y="58.279739"
     width="2"
     height="18.5"
     fill="#f2f2f2"
     id="rect84-1" />
  <rect
     x="70.997002"
     y="447.25079"
     width="140"
     height="2"
     fill="#f2f2f2"
     id="rect86" />
  <rect
     x="108.997"
     y="429.2511"
     width="2"
     height="18.5"
     fill="#f2f2f2"
     id="rect88" />
  <rect
     x="169.99699"
     y="429.2511"
     width="2"
     height="18.5"
     fill="#f2f2f2"
     id="rect90" />
  <path
     d="m 233.497,173.96712 v 724.78484 h 436 V 173.96712 Z m 218,52.31992 a 15,23.08232 0 1 1 15,-23.08232 15,23.08232 0 0 1 -15,23.08232 z"
     fill="#3f3d56"
     id="path92"
     style="stroke-width:1.24049" />
  <path
     d="m 37.25496,858.54929 c 6.914,25.55824 30.59593,41.38709 30.59593,41.38709 0,0 12.47217,-25.60922 5.55819,-51.16745 -6.91398,-25.55823 -30.59593,-41.38709 -30.59593,-41.38709 0,0 -12.47217,25.60922 -5.55819,51.16745 z"
     fill="#3f3d56"
     id="path94" />
  <path
     d="m 47.41457,853.05656 c 18.97207,18.46854 21.28937,46.859 21.28937,46.859 0,0 -28.4425,-1.553 -47.41457,-20.02152 C 2.3173,861.42552 0,833.03504 0,833.03504 c 0,0 28.4425,1.55297 47.41457,20.02152 z"
     fill="#3d3ab2"
     id="path96" />
  <rect
     x="16.497"
     y="897.75903"
     width="909"
     height="2"
     fill="#3f3d56"
     id="rect98" />
  <path
     d="m 191.997,836.09009 a 22.03138,22.03138 0 0 0 -14.03113,-20.5 22,22 0 1 0 -15.93774,0 21.99119,21.99119 0 0 0 0,41 22,22 0 1 0 15.93774,0 22.03137,22.03137 0 0 0 14.03113,-20.5 z m -42,-41 a 20,20 0 1 1 24.51294,19.46735 22.02316,22.02316 0 0 0 -9.02588,0 20.02094,20.02094 0 0 1 -15.48706,-19.46735 z m 40,82 a 20,20 0 1 1 -24.51294,-19.46734 22.02362,22.02362 0 0 0 9.02588,0 20.02093,20.02093 0 0 1 15.48706,19.46734 z m -15.48706,-21.53265 a 22.02316,22.02316 0 0 0 -9.02588,0 19.97883,19.97883 0 0 1 0,-38.93469 22.02362,22.02362 0 0 0 9.02588,0 19.97883,19.97883 0 0 1 0,38.93469 z"
     fill="#3f3d56"
     id="path100" />
  <path
     d="m 510.997,516.35868 h -229 a 7,7 0 1 1 0,-14 h 229 a 7,7 0 0 1 0,14 z"
     fill="#f2f2f2"
     id="path102" />
  <path
     d="m 510.997,616.66336 h -229 a 7,7 0 1 1 0,-14 h 229 a 7,7 0 0 1 0,14 z"
     fill="#f2f2f2"
     id="path106" />
  <path
     d="m 510.997,714.221 h -229 a 7,7 0 1 1 0,-14 h 229 a 7,7 0 0 1 0,14 z"
     fill="#f2f2f2"
     id="path108" />
  <path
     d="m 510.997,814.25196 h -229 a 7,7 0 1 1 0,-14 h 229 a 7,7 0 0 1 0,14 z"
     fill="#f2f2f2"
     id="path110" />
  <path
     d="m 470.997,516.35868 h -190 a 7,7 0 1 1 0,-14 h 190 a 7,7 0 0 1 0,14 z"
     fill="#3d3ab2"
     id="path112" />
  <path
     d="m 511.55634,315.34126 h -229 a 7,7 0 1 1 0,-14 h 229 a 7,7 0 0 1 0,14 z"
     fill="#f2f2f2"
     id="path102-8" />
  <path
     d="m 471.55634,315.34126 h -190 a 7,7 0 1 1 0,-14 h 190 a 7,7 0 0 1 0,14 z"
     fill="#3d3ab2"
     id="path112-4" />
  <path
     d="m 339.997,616.66336 h -59 a 7,7 0 1 1 0,-14 h 59 a 7,7 0 0 1 0,14 z"
     fill="#3d3ab2"
     id="path116" />
  <path
     d="m 488.997,714.221 h -208 a 7,7 0 1 1 0,-14 h 208 a 7,7 0 0 1 0,14 z"
     fill="#3d3ab2"
     id="path118" />
  <path
     d="m 442.997,814.25196 h -162 a 7,7 0 1 1 0,-14 h 162 a 7,7 0 0 1 0,14 z"
     fill="#3d3ab2"
     id="path120" />
  <rect
     x="603.99701"
     y="502.35645"
     width="2"
     height="14"
     fill="#3d3ab2"
     id="rect122" />
  <path
     d="m 620.997,517.35868 a 8,8 0 1 1 8,-8 8.00917,8.00917 0 0 1 -8,8 z m 0,-14 a 6,6 0 1 0 6,6 6.00655,6.00655 0 0 0 -6,-6 z"
     fill="#3d3ab2"
     id="path124" />
  <rect
     x="603.99701"
     y="602.66486"
     width="2"
     height="14"
     fill="#3d3ab2"
     id="rect130" />
  <path
     d="m 620.997,617.66336 a 8,8 0 1 1 8,-8 8.00917,8.00917 0 0 1 -8,8 z m 0,-14 a 6,6 0 1 0 6,6 6.00655,6.00655 0 0 0 -6,-6 z"
     fill="#3d3ab2"
     id="path132" />
  <rect
     x="603.99701"
     y="700.22589"
     width="2"
     height="14"
     fill="#3d3ab2"
     id="rect134" />
  <path
     d="m 620.997,715.221 a 8,8 0 1 1 8,-8 8.00917,8.00917 0 0 1 -8,8 z m 0,-14 a 6,6 0 1 0 6,6 6.00655,6.00655 0 0 0 -6,-6 z"
     fill="#3d3ab2"
     id="path136" />
  <rect
     x="603.99701"
     y="800.25903"
     width="2"
     height="14"
     fill="#3d3ab2"
     id="rect138" />
  <path
     d="m 620.997,815.25196 a 8,8 0 1 1 8,-8 8.00917,8.00917 0 0 1 -8,8 z m 0,-14 a 6,6 0 1 0 6,6 6.00655,6.00655 0 0 0 -6,-6 z"
     fill="#3d3ab2"
     id="path140" />
  <circle
     cx="620.99701"
     cy="509.35645"
     r="4"
     fill="#3d3ab2"
     id="circle142" />
  <circle
     cx="620.99701"
     cy="707.22614"
     r="4"
     fill="#3d3ab2"
     id="circle144" />
  <circle
     cx="620.99701"
     cy="807.25903"
     r="4"
     fill="#3d3ab2"
     id="circle146" />
  <circle
     cx="451.49701"
     cy="202.71782"
     r="7"
     fill="#3f3d56"
     id="circle148" />
  <circle
     cx="451.49701"
     cy="11.946635"
     r="7"
     fill="#3f3d56"
     id="circle150" />
  <rect
     x="450.49704"
     y="11.946574"
     width="2"
     height="185"
     fill="#3f3d56"
     id="rect152" />
  <metadata
     id="metadata898">
    <rdf:RDF>
      <cc:Work
         rdf:about="">
        <dc:title>percentages</dc:title>
      </cc:Work>
    </rdf:RDF>
  </metadata>
  <path
     d="m 511.32923,416.74782 h -229 a 7,7 0 1 1 0,-14 h 229 a 7,7 0 0 1 0,14 z"
     fill="#f2f2f2"
     id="path108-4" />
  <path
     d="m 356.78023,416.74782 h -79.76655 a 2.6844512,7 0 1 1 0,-14 h 79.76655 a 2.6844512,7 0 0 1 0,14 z"
     fill="#3d3ab2"
     id="path118-0"
     style="stroke-width:0.619268" />
  <rect
     x="604.32574"
     y="300.24167"
     width="2"
     height="14"
     fill="#3d3ab2"
     id="rect130-8" />
  <path
     d="m 621.32923,315.24354 a 8,8 0 1 1 8,-8 8.00917,8.00917 0 0 1 -8,8 z m 0,-14 a 6,6 0 1 0 6,6 6.00655,6.00655 0 0 0 -6,-6 z"
     fill="#3d3ab2"
     id="path132-8" />
  <rect
     x="604.32574"
     y="402.7457"
     width="2"
     height="14"
     fill="#3d3ab2"
     id="rect134-5" />
  <path
     d="m 621.32923,417.74782 a 8,8 0 1 1 8,-8 8.00917,8.00917 0 0 1 -8,8 z m 0,-14 a 6,6 0 1 0 6,6 6.00655,6.00655 0 0 0 -6,-6 z"
     fill="#3d3ab2"
     id="path136-9" />
  <circle
     cx="621.32574"
     cy="307.51608"
     r="4"
     fill="#3d3ab2"
     id="circle144-0" />
  <rect
     x="54.12859"
     y="266.66974"
     width="140"
     height="2"
     fill="#f2f2f2"
     id="rect56-9" />
  <rect
     x="92.128593"
     y="248.66908"
     width="2"
     height="18.5"
     fill="#f2f2f2"
     id="rect58-6" />
  <rect
     x="153.1286"
     y="248.66908"
     width="2"
     height="18.5"
     fill="#f2f2f2"
     id="rect60-8" />
  <rect
     x="18.899677"
     y="174.94038"
     width="140"
     height="2"
     fill="#f2f2f2"
     id="rect62-0" />
  <rect
     x="118.89968"
     y="176.44044"
     width="2"
     height="18.5"
     fill="#f2f2f2"
     id="rect64-8" />
  <rect
     x="57.899677"
     y="176.44044"
     width="2"
     height="18.5"
     fill="#f2f2f2"
     id="rect66-7" />
</svg>
