<?xml version="1.0" encoding="UTF-8" standalone="no"?>
<svg
   id="a2942aa7-bf0d-42c0-bc52-bf4c952347c5"
   data-name="Layer 1"
   width="925.49701"
   height="645.18445"
   viewBox="0 0 2138.7044 645.18443"
   version="1.1"
   sodipodi:docname="undraw_percentages_color6865cd.svg"
   inkscape:version="1.1.1 (3bf5ae0d25, 2021-09-20)"
   xmlns:inkscape="http://www.inkscape.org/namespaces/inkscape"
   xmlns:sodipodi="http://sodipodi.sourceforge.net/DTD/sodipodi-0.dtd"
   xmlns="http://www.w3.org/2000/svg"
   xmlns:svg="http://www.w3.org/2000/svg"
   xmlns:rdf="http://www.w3.org/1999/02/22-rdf-syntax-ns#"
   xmlns:cc="http://creativecommons.org/ns#"
   xmlns:dc="http://purl.org/dc/elements/1.1/">
  <defs
     id="defs193" />
  <sodipodi:namedview
     id="namedview191"
     pagecolor="#505050"
     bordercolor="#eeeeee"
     borderopacity="1"
     inkscape:pageshadow="0"
     inkscape:pageopacity="0"
     inkscape:pagecheckerboard="0"
     showgrid="false"
     inkscape:zoom="1.2120565"
     inkscape:cx="572.99309"
     inkscape:cy="162.53368"
     inkscape:window-width="1920"
     inkscape:window-height="986"
     inkscape:window-x="-11"
     inkscape:window-y="-11"
     inkscape:window-maximized="1"
     inkscape:current-layer="a2942aa7-bf0d-42c0-bc52-bf4c952347c5"
     width="925.49701px" />
  <title
     id="title2">percentages</title>
  <ellipse
     cx="538.95862"
     cy="338.36725"
     fill="#f2f2f2"
     id="circle4"
     rx="42.565807"
     ry="42.544243"
     style="stroke-width:2.31167" />
  <ellipse
     cx="393.28677"
     cy="828.31622"
     fill="#f2f2f2"
     id="circle6"
     rx="26.380045"
     ry="26.366678"
     style="stroke-width:2.31167" />
  <rect
     x="878.64893"
     y="-371.03531"
     width="323.71533"
     height="4.6221614"
     fill="#f2f2f2"
     id="rect8"
     style="stroke-width:2.31167" />
  <rect
     x="966.51447"
     y="-412.63477"
     width="4.6245041"
     height="42.75499"
     fill="#f2f2f2"
     id="rect10"
     style="stroke-width:2.31167" />
  <rect
     x="1107.5619"
     y="-412.63477"
     width="4.6245041"
     height="42.75499"
     fill="#f2f2f2"
     id="rect12"
     style="stroke-width:2.31167" />
  <rect
     x="1401.2179"
     y="747.52771"
     width="323.71533"
     height="4.6221614"
     fill="#f2f2f2"
     id="rect14"
     style="stroke-width:2.31167" />
  <rect
     x="1489.0835"
     y="705.92828"
     width="4.6245041"
     height="42.75499"
     fill="#f2f2f2"
     id="rect16"
     style="stroke-width:2.31167" />
  <rect
     x="1630.1307"
     y="705.92828"
     width="4.6245041"
     height="42.75499"
     fill="#f2f2f2"
     id="rect18"
     style="stroke-width:2.31167" />
  <rect
     x="1417.4036"
     y="42.648113"
     width="323.71533"
     height="4.6221614"
     fill="#f2f2f2"
     id="rect20"
     style="stroke-width:2.31167" />
  <rect
     x="1505.2693"
     y="1.04869"
     width="4.6245041"
     height="42.75499"
     fill="#f2f2f2"
     id="rect22"
     style="stroke-width:2.31167" />
  <rect
     x="1646.3167"
     y="1.04869"
     width="4.6245041"
     height="42.75499"
     fill="#f2f2f2"
     id="rect24"
     style="stroke-width:2.31167" />
  <rect
     x="1417.4036"
     y="-123.74968"
     width="323.71533"
     height="4.6221614"
     fill="#f2f2f2"
     id="rect26"
     style="stroke-width:2.31167" />
  <rect
     x="1505.2693"
     y="-165.34914"
     width="4.6245041"
     height="42.75499"
     fill="#f2f2f2"
     id="rect28"
     style="stroke-width:2.31167" />
  <rect
     x="1646.3167"
     y="-165.34914"
     width="4.6245041"
     height="42.75499"
     fill="#f2f2f2"
     id="rect30"
     style="stroke-width:2.31167" />
  <rect
     x="707.54224"
     y="-100.63887"
     width="323.71533"
     height="4.6221614"
     fill="#f2f2f2"
     id="rect32"
     style="stroke-width:2.31167" />
  <rect
     x="795.40784"
     y="-142.23831"
     width="4.6245041"
     height="42.75499"
     fill="#f2f2f2"
     id="rect34"
     style="stroke-width:2.31167" />
  <rect
     x="936.4552"
     y="-142.23831"
     width="4.6245041"
     height="42.75499"
     fill="#f2f2f2"
     id="rect36"
     style="stroke-width:2.31167" />
  <rect
     x="471.6925"
     y="-209.25966"
     width="323.71533"
     height="4.6221614"
     fill="#f2f2f2"
     id="rect38"
     style="stroke-width:2.31167" />
  <rect
     x="559.55811"
     y="-250.8591"
     width="4.6245041"
     height="42.75499"
     fill="#f2f2f2"
     id="rect40"
     style="stroke-width:2.31167" />
  <rect
     x="700.60553"
     y="-250.8591"
     width="4.6245041"
     height="42.75499"
     fill="#f2f2f2"
     id="rect42"
     style="stroke-width:2.31167" />
  <rect
     x="326.0206"
     y="218.29025"
     width="323.71533"
     height="4.6221614"
     fill="#f2f2f2"
     id="rect44"
     style="stroke-width:2.31167" />
  <rect
     x="413.8862"
     y="176.69083"
     width="4.6245041"
     height="42.75499"
     fill="#f2f2f2"
     id="rect46"
     style="stroke-width:2.31167" />
  <rect
     x="554.93353"
     y="176.69083"
     width="4.6245041"
     height="42.75499"
     fill="#f2f2f2"
     id="rect48"
     style="stroke-width:2.31167" />
  <rect
     x="164.16298"
     y="689.75067"
     width="323.71533"
     height="4.6221614"
     fill="#f2f2f2"
     id="rect50"
     style="stroke-width:2.31167" />
  <rect
     x="252.02855"
     y="648.15131"
     width="4.6245041"
     height="42.75499"
     fill="#f2f2f2"
     id="rect52"
     style="stroke-width:2.31167" />
  <rect
     x="393.0759"
     y="648.15131"
     width="4.6245041"
     height="42.75499"
     fill="#f2f2f2"
     id="rect54"
     style="stroke-width:2.31167" />
  <rect
     x="1694.874"
     y="495.61993"
     width="323.71533"
     height="4.6221614"
     fill="#f2f2f2"
     id="rect56"
     style="stroke-width:2.31167" />
  <rect
     x="1782.7395"
     y="454.02045"
     width="4.6245041"
     height="42.75499"
     fill="#f2f2f2"
     id="rect58"
     style="stroke-width:2.31167" />
  <rect
     x="1923.7869"
     y="454.02045"
     width="4.6245041"
     height="42.75499"
     fill="#f2f2f2"
     id="rect60"
     style="stroke-width:2.31167" />
  <rect
     x="1600.0715"
     y="199.80162"
     width="323.71533"
     height="4.6221614"
     fill="#f2f2f2"
     id="rect62"
     style="stroke-width:2.31167" />
  <rect
     x="1831.2968"
     y="203.26822"
     width="4.6245041"
     height="42.75499"
     fill="#f2f2f2"
     id="rect64"
     style="stroke-width:2.31167" />
  <rect
     x="1690.2494"
     y="203.26822"
     width="4.6245041"
     height="42.75499"
     fill="#f2f2f2"
     id="rect66"
     style="stroke-width:2.31167" />
  <rect
     x="32.364594"
     y="-146.86049"
     width="323.71533"
     height="4.6221614"
     fill="#f2f2f2"
     id="rect68"
     style="stroke-width:2.31167" />
  <rect
     x="263.58981"
     y="-143.39386"
     width="4.6245041"
     height="42.75499"
     fill="#f2f2f2"
     id="rect70"
     style="stroke-width:2.31167" />
  <rect
     x="122.54243"
     y="-143.39386"
     width="4.6245041"
     height="42.75499"
     fill="#f2f2f2"
     id="rect72"
     style="stroke-width:2.31167" />
  <rect
     x="53.174862"
     y="458.64267"
     width="323.71533"
     height="4.6221614"
     fill="#f2f2f2"
     id="rect74"
     style="stroke-width:2.31167" />
  <rect
     x="284.40009"
     y="462.10928"
     width="4.6245041"
     height="42.75499"
     fill="#f2f2f2"
     id="rect76"
     style="stroke-width:2.31167" />
  <rect
     x="143.35269"
     y="462.10928"
     width="4.6245041"
     height="42.75499"
     fill="#f2f2f2"
     id="rect78"
     style="stroke-width:2.31167" />
  <rect
     x="1072.8781"
     y="-297.08072"
     width="323.71533"
     height="4.6221614"
     fill="#f2f2f2"
     id="rect80"
     style="stroke-width:2.31167" />
  <rect
     x="1304.1034"
     y="-293.61411"
     width="4.6245041"
     height="42.75499"
     fill="#f2f2f2"
     id="rect82"
     style="stroke-width:2.31167" />
  <rect
     x="1163.0559"
     y="-293.61411"
     width="4.6245041"
     height="42.75499"
     fill="#f2f2f2"
     id="rect84"
     style="stroke-width:2.31167" />
  <rect
     x="164.16298"
     y="24.159479"
     width="323.71533"
     height="4.6221614"
     fill="#f2f2f2"
     id="rect86"
     style="stroke-width:2.31167" />
  <rect
     x="252.02855"
     y="-17.439985"
     width="4.6245041"
     height="42.75499"
     fill="#f2f2f2"
     id="rect88"
     style="stroke-width:2.31167" />
  <rect
     x="393.0759"
     y="-17.439985"
     width="4.6245041"
     height="42.75499"
     fill="#f2f2f2"
     id="rect90"
     style="stroke-width:2.31167" />
  <path
     d="M 539.90394,-20.906589 V 1067.6124 H 1548.0459 V -20.906589 Z m 504.07096,78.576735 a 34.683783,34.666209 0 1 1 34.6838,-34.666199 34.683783,34.666209 0 0 1 -34.6838,34.666199 z"
     fill="#3f3d56"
     id="path92"
     style="stroke-width:2.31167" />
  <path
     d="m 86.142862,974.70078 c 15.986908,59.06712 70.745508,95.64882 70.745508,95.64882 0,0 28.8388,-59.1849 12.85194,-118.25203 -15.98688,-59.06712 -70.745512,-95.64888 -70.745512,-95.64888 0,0 -28.838802,59.18495 -12.851936,118.25209 z"
     fill="#3f3d56"
     id="path94"
     style="stroke-width:2.31167" />
  <path
     d="m 109.63445,962.00663 c 43.8682,42.68227 49.22638,108.29487 49.22638,108.29487 0,0 -65.766228,-3.5891 -109.634438,-46.2713 C 5.3581819,981.34795 0,915.73528 0,915.73528 c 0,0 65.766233,3.58904 109.63445,46.27135 z"
     fill="#793ab2"
     id="path96"
     style="stroke-width:2.31167" />
  <rect
     x="38.145222"
     y="1065.3013"
     width="2101.8372"
     height="4.6221614"
     fill="#3f3d56"
     id="rect98"
     style="stroke-width:2.31167" />
  <path
     d="m 443.94548,922.79576 a 50.942106,50.916295 0 0 0 -32.44351,-47.37716 50.869548,50.843774 0 1 0 -36.85207,0 50.849176,50.823413 0 0 0 0,94.75431 50.869548,50.843774 0 1 0 36.85207,0 50.942084,50.916273 0 0 0 32.44351,-47.37715 z m -97.11459,-94.75432 a 46.245043,46.221611 0 1 1 56.68009,44.99062 50.923099,50.897299 0 0 0 -20.8701,0 46.293461,46.270007 0 0 1 -35.80999,-44.99062 z m 92.49008,189.50866 a 46.245043,46.221611 0 1 1 -56.68009,-44.99061 50.924163,50.898361 0 0 0 20.8701,0 46.293439,46.269984 0 0 1 35.80999,44.99061 z m -35.80999,-49.76373 a 50.923099,50.897299 0 0 0 -20.8701,0 46.196092,46.172687 0 0 1 0,-89.98121 50.924163,50.898361 0 0 0 20.8701,0 46.196092,46.172687 0 0 1 0,89.98121 z"
     fill="#3f3d56"
     id="path100"
     style="stroke-width:2.31167" />
  <path
     d="M 1181.5539,206.73485 H 652.04817 a 16.185764,16.177565 0 1 1 0,-32.35513 h 529.50573 a 16.185764,16.177565 0 0 1 0,32.35513 z"
     fill="#f2f2f2"
     id="path102"
     style="stroke-width:2.31167" />
  <path
     d="M 1181.5539,373.13266 H 652.04817 a 16.185767,16.177568 0 1 1 0,-32.35513 h 529.50573 a 16.185767,16.177568 0 0 1 0,32.35513 z"
     fill="#f2f2f2"
     id="path104"
     style="stroke-width:2.31167" />
  <path
     d="M 1181.5539,539.53046 H 652.04817 a 16.185764,16.177565 0 1 1 0,-32.35513 h 529.50573 a 16.185764,16.177565 0 0 1 0,32.35513 z"
     fill="#f2f2f2"
     id="path106"
     style="stroke-width:2.31167" />
  <path
     d="M 1181.5539,705.92826 H 652.04817 a 16.185764,16.177565 0 1 1 0,-32.35512 h 529.50573 a 16.185764,16.177565 0 0 1 0,32.35512 z"
     fill="#f2f2f2"
     id="path108"
     style="stroke-width:2.31167" />
  <path
     d="M 1181.5539,872.32607 H 652.04817 a 16.185767,16.177568 0 1 1 0,-32.35513 h 529.50573 a 16.185767,16.177568 0 0 1 0,32.35513 z"
     fill="#f2f2f2"
     id="path110"
     style="stroke-width:2.31167" />
  <path
     d="M 1089.0639,206.73485 H 649.73592 a 16.185764,16.177565 0 1 1 0,-32.35513 h 439.32798 a 16.185764,16.177565 0 0 1 0,32.35513 z"
     fill="#793ab2"
     id="path112"
     style="stroke-width:2.31167" />
  <path
     d="M 952.64095,373.13266 H 649.73592 a 16.185767,16.177568 0 1 1 0,-32.35513 h 302.90503 a 16.185767,16.177568 0 0 1 0,32.35513 z"
     fill="#793ab2"
     id="path114"
     style="stroke-width:2.31167" />
  <path
     d="M 786.1588,539.53046 H 649.73592 a 16.185764,16.177565 0 1 1 0,-32.35513 H 786.1588 a 16.185764,16.177565 0 0 1 0,32.35513 z"
     fill="#793ab2"
     id="path116"
     style="stroke-width:2.31167" />
  <path
     d="M 1130.6844,705.92826 H 649.73592 a 16.185764,16.177565 0 1 1 0,-32.35512 h 480.94848 a 16.185764,16.177565 0 0 1 0,32.35512 z"
     fill="#793ab2"
     id="path118"
     style="stroke-width:2.31167" />
  <path
     d="M 1024.3208,872.32607 H 649.73592 a 16.185767,16.177568 0 1 1 0,-32.35513 h 374.58488 a 16.185767,16.177568 0 0 1 0,32.35513 z"
     fill="#793ab2"
     id="path120"
     style="stroke-width:2.31167" />
  <rect
     x="1396.5934"
     y="174.37973"
     width="4.6245041"
     height="32.355129"
     fill="#793ab2"
     id="rect122"
     style="stroke-width:2.31167" />
  <path
     d="m 1435.9016,209.04594 a 18.498017,18.488645 0 1 1 18.4981,-18.48866 18.519221,18.509838 0 0 1 -18.4981,18.48866 z m 0,-32.35514 a 13.873512,13.866484 0 1 0 13.8735,13.86648 13.888659,13.881621 0 0 0 -13.8735,-13.86648 z"
     fill="#793ab2"
     id="path124"
     style="stroke-width:2.31167" />
  <rect
     x="1396.5934"
     y="340.7775"
     width="4.6245041"
     height="32.355129"
     fill="#793ab2"
     id="rect126"
     style="stroke-width:2.31167" />
  <path
     d="m 1435.9016,375.44372 a 18.498017,18.488645 0 1 1 18.4981,-18.48862 18.519221,18.509838 0 0 1 -18.4981,18.48862 z m 0,-32.35511 a 13.873512,13.866484 0 1 0 13.8735,13.86649 13.888659,13.881621 0 0 0 -13.8735,-13.86649 z"
     fill="#793ab2"
     id="path128"
     style="stroke-width:2.31167" />
  <rect
     x="1396.5934"
     y="507.17535"
     width="4.6245041"
     height="32.355129"
     fill="#793ab2"
     id="rect130"
     style="stroke-width:2.31167" />
  <path
     d="m 1435.9016,541.84155 a 18.498017,18.488645 0 1 1 18.4981,-18.48865 18.519221,18.509838 0 0 1 -18.4981,18.48865 z m 0,-32.35514 a 13.873512,13.866484 0 1 0 13.8735,13.86649 13.888659,13.881621 0 0 0 -13.8735,-13.86649 z"
     fill="#793ab2"
     id="path132"
     style="stroke-width:2.31167" />
  <rect
     x="1396.5934"
     y="673.57312"
     width="4.6245041"
     height="32.355129"
     fill="#793ab2"
     id="rect134"
     style="stroke-width:2.31167" />
  <path
     d="m 1435.9016,708.23935 a 18.498017,18.488645 0 1 1 18.4981,-18.48865 18.519221,18.509838 0 0 1 -18.4981,18.48865 z m 0,-32.35513 a 13.873512,13.866484 0 1 0 13.8735,13.86648 13.888659,13.881621 0 0 0 -13.8735,-13.86648 z"
     fill="#793ab2"
     id="path136"
     style="stroke-width:2.31167" />
  <rect
     x="1396.5934"
     y="839.97089"
     width="4.6245041"
     height="32.355129"
     fill="#793ab2"
     id="rect138"
     style="stroke-width:2.31167" />
  <path
     d="m 1435.9016,874.63715 a 18.498017,18.488645 0 1 1 18.4981,-18.48865 18.519221,18.509838 0 0 1 -18.4981,18.48865 z m 0,-32.35512 a 13.873512,13.866484 0 1 0 13.8735,13.86647 13.888659,13.881621 0 0 0 -13.8735,-13.86647 z"
     fill="#793ab2"
     id="path140"
     style="stroke-width:2.31167" />
  <ellipse
     cx="1435.9017"
     cy="190.5573"
     fill="#793ab2"
     id="circle142"
     rx="9.2490082"
     ry="9.2443228"
     style="stroke-width:2.31167" />
  <ellipse
     cx="1435.9017"
     cy="689.75067"
     fill="#793ab2"
     id="circle144"
     rx="9.2490082"
     ry="9.2443228"
     style="stroke-width:2.31167" />
  <ellipse
     cx="1435.9017"
     cy="856.14856"
     fill="#793ab2"
     id="circle146"
     rx="9.2490082"
     ry="9.2443228"
     style="stroke-width:2.31167" />
  <ellipse
     cx="1043.9749"
     cy="23.003929"
     fill="#3f3d56"
     id="circle148"
     rx="16.185764"
     ry="16.177565"
     style="stroke-width:2.31167" />
  <ellipse
     cx="1043.9749"
     cy="-404.54596"
     fill="#3f3d56"
     id="circle150"
     rx="16.185764"
     ry="16.177565"
     style="stroke-width:2.31167" />
  <rect
     x="1041.6628"
     y="-404.54614"
     width="4.6245041"
     height="427.54996"
     fill="#3f3d56"
     id="rect152"
     style="stroke-width:2.31167" />
  <metadata
     id="metadata896">
    <rdf:RDF>
      <cc:Work
         rdf:about="">
        <dc:title>percentages</dc:title>
      </cc:Work>
    </rdf:RDF>
  </metadata>
</svg>
