<?xml version="1.0" encoding="UTF-8" standalone="no"?>
<svg
   id="a2942aa7-bf0d-42c0-bc52-bf4c952347c5"
   data-name="Layer 1"
   width="925.497"
   height="645.18443"
   viewBox="0 0 925.497 645.18443"
   version="1.1"
   sodipodi:docname="undraw_percentages_color5652c7.svg"
   inkscape:version="1.1.1 (3bf5ae0d25, 2021-09-20)"
   xmlns:inkscape="http://www.inkscape.org/namespaces/inkscape"
   xmlns:sodipodi="http://sodipodi.sourceforge.net/DTD/sodipodi-0.dtd"
   xmlns="http://www.w3.org/2000/svg"
   xmlns:svg="http://www.w3.org/2000/svg">
  <defs
     id="defs193" />
  <sodipodi:namedview
     id="namedview191"
     pagecolor="#505050"
     bordercolor="#eeeeee"
     borderopacity="1"
     inkscape:pageshadow="0"
     inkscape:pageopacity="0"
     inkscape:pagecheckerboard="0"
     showgrid="false"
     inkscape:zoom="1.2120565"
     inkscape:cx="402.20897"
     inkscape:cy="136.95731"
     inkscape:window-width="1920"
     inkscape:window-height="986"
     inkscape:window-x="-11"
     inkscape:window-y="-11"
     inkscape:window-maximized="1"
     inkscape:current-layer="a2942aa7-bf0d-42c0-bc52-bf4c952347c5" />
  <title
     id="title2">percentages</title>
  <circle
     cx="233.08818"
     cy="328.45705"
     r="18.40881"
     fill="#f2f2f2"
     id="circle4" />
  <circle
     cx="170.08818"
     cy="540.45705"
     r="11.40881"
     fill="#f2f2f2"
     id="circle6" />
  <rect
     x="379.99701"
     y="-135.25838"
     width="140"
     height="2"
     fill="#f2f2f2"
     id="rect8" />
  <rect
     x="417.99701"
     y="-153.25838"
     width="2"
     height="18.5"
     fill="#f2f2f2"
     id="rect10" />
  <rect
     x="478.99701"
     y="-153.25838"
     width="2"
     height="18.5"
     fill="#f2f2f2"
     id="rect12" />
  <rect
     x="605.997"
     y="505.5"
     width="140"
     height="2"
     fill="#f2f2f2"
     id="rect14" />
  <rect
     x="643.997"
     y="487.5"
     width="2"
     height="18.5"
     fill="#f2f2f2"
     id="rect16" />
  <rect
     x="704.997"
     y="487.5"
     width="2"
     height="18.5"
     fill="#f2f2f2"
     id="rect18" />
  <rect
     x="612.997"
     y="200.5"
     width="140"
     height="2"
     fill="#f2f2f2"
     id="rect20" />
  <rect
     x="650.997"
     y="182.5"
     width="2"
     height="18.5"
     fill="#f2f2f2"
     id="rect22" />
  <rect
     x="711.997"
     y="182.5"
     width="2"
     height="18.5"
     fill="#f2f2f2"
     id="rect24" />
  <rect
     x="612.99701"
     y="-28.258371"
     width="140"
     height="2"
     fill="#f2f2f2"
     id="rect26" />
  <rect
     x="650.99701"
     y="-46.258369"
     width="2"
     height="18.5"
     fill="#f2f2f2"
     id="rect28" />
  <rect
     x="711.99701"
     y="-46.258369"
     width="2"
     height="18.5"
     fill="#f2f2f2"
     id="rect30" />
  <rect
     x="305.99701"
     y="-18.258369"
     width="140"
     height="2"
     fill="#f2f2f2"
     id="rect32" />
  <rect
     x="343.99701"
     y="-36.258369"
     width="2"
     height="18.5"
     fill="#f2f2f2"
     id="rect34" />
  <rect
     x="404.99701"
     y="-36.258369"
     width="2"
     height="18.5"
     fill="#f2f2f2"
     id="rect36" />
  <rect
     x="203.99699"
     y="-65.258369"
     width="140"
     height="2"
     fill="#f2f2f2"
     id="rect38" />
  <rect
     x="241.99699"
     y="-83.258369"
     width="2"
     height="18.5"
     fill="#f2f2f2"
     id="rect40" />
  <rect
     x="302.99701"
     y="-83.258369"
     width="2"
     height="18.5"
     fill="#f2f2f2"
     id="rect42" />
  <rect
     x="140.997"
     y="276.5"
     width="140"
     height="2"
     fill="#f2f2f2"
     id="rect44" />
  <rect
     x="178.997"
     y="258.5"
     width="2"
     height="18.5"
     fill="#f2f2f2"
     id="rect46" />
  <rect
     x="239.997"
     y="258.5"
     width="2"
     height="18.5"
     fill="#f2f2f2"
     id="rect48" />
  <rect
     x="70.997"
     y="480.5"
     width="140"
     height="2"
     fill="#f2f2f2"
     id="rect50" />
  <rect
     x="108.997"
     y="462.5"
     width="2"
     height="18.5"
     fill="#f2f2f2"
     id="rect52" />
  <rect
     x="169.997"
     y="462.5"
     width="2"
     height="18.5"
     fill="#f2f2f2"
     id="rect54" />
  <rect
     x="732.997"
     y="396.5"
     width="140"
     height="2"
     fill="#f2f2f2"
     id="rect56" />
  <rect
     x="770.997"
     y="378.5"
     width="2"
     height="18.5"
     fill="#f2f2f2"
     id="rect58" />
  <rect
     x="831.997"
     y="378.5"
     width="2"
     height="18.5"
     fill="#f2f2f2"
     id="rect60" />
  <rect
     x="691.997"
     y="268.5"
     width="140"
     height="2"
     fill="#f2f2f2"
     id="rect62" />
  <rect
     x="791.997"
     y="270"
     width="2"
     height="18.5"
     fill="#f2f2f2"
     id="rect64" />
  <rect
     x="730.997"
     y="270"
     width="2"
     height="18.5"
     fill="#f2f2f2"
     id="rect66" />
  <rect
     x="13.997"
     y="118.5"
     width="140"
     height="2"
     fill="#f2f2f2"
     id="rect68" />
  <rect
     x="113.997"
     y="120"
     width="2"
     height="18.5"
     fill="#f2f2f2"
     id="rect70" />
  <rect
     x="52.997"
     y="120"
     width="2"
     height="18.5"
     fill="#f2f2f2"
     id="rect72" />
  <rect
     x="22.997"
     y="380.5"
     width="140"
     height="2"
     fill="#f2f2f2"
     id="rect74" />
  <rect
     x="122.997"
     y="382"
     width="2"
     height="18.5"
     fill="#f2f2f2"
     id="rect76" />
  <rect
     x="61.997"
     y="382"
     width="2"
     height="18.5"
     fill="#f2f2f2"
     id="rect78" />
  <rect
     x="463.99701"
     y="-103.25837"
     width="140"
     height="2"
     fill="#f2f2f2"
     id="rect80" />
  <rect
     x="563.99701"
     y="-101.75837"
     width="2"
     height="18.5"
     fill="#f2f2f2"
     id="rect82" />
  <rect
     x="502.99701"
     y="-101.75837"
     width="2"
     height="18.5"
     fill="#f2f2f2"
     id="rect84" />
  <rect
     x="70.997"
     y="192.5"
     width="140"
     height="2"
     fill="#f2f2f2"
     id="rect86" />
  <rect
     x="108.997"
     y="174.5"
     width="2"
     height="18.5"
     fill="#f2f2f2"
     id="rect88" />
  <rect
     x="169.997"
     y="174.5"
     width="2"
     height="18.5"
     fill="#f2f2f2"
     id="rect90" />
  <path
     d="M 233.497,18.124904 V 644 h 436 V 18.124904 Z m 218,45.179943 a 15,19.932328 0 1 1 15,-19.932328 15,19.932328 0 0 1 -15,19.932328 z"
     fill="#3f3d56"
     id="path92"
     style="stroke-width:1.15275" />
  <path
     d="M174.50646,731.20512c6.914,25.55824,30.59593,41.38709,30.59593,41.38709s12.47217-25.60922,5.55819-51.16745-30.59593-41.38709-30.59593-41.38709S167.59248,705.64689,174.50646,731.20512Z"
     transform="translate(-137.2515 -127.40779)"
     fill="#3f3d56"
     id="path94" />
  <path
     d="M184.66607,725.71239c18.97207,18.46854,21.28937,46.859,21.28937,46.859s-28.4425-1.553-47.41457-20.02152-21.28937-46.859-21.28937-46.859S165.694,707.24384,184.66607,725.71239Z"
     transform="translate(-137.2515 -127.40779)"
     fill="#5652c7"
     id="path96" />
  <rect
     x="16.497"
     y="643"
     width="909"
     height="2"
     fill="#3f3d56"
     id="rect98" />
  <path
     d="M329.2485,708.74592a22.03138,22.03138,0,0,0-14.03113-20.5,22,22,0,1,0-15.93774,0,21.99119,21.99119,0,0,0,0,41,22,22,0,1,0,15.93774,0A22.03137,22.03137,0,0,0,329.2485,708.74592Zm-42-41a20,20,0,1,1,24.51294,19.46735,22.02316,22.02316,0,0,0-9.02588,0A20.02094,20.02094,0,0,1,287.2485,667.74592Zm40,82a20,20,0,1,1-24.51294-19.46734,22.02362,22.02362,0,0,0,9.02588,0A20.02093,20.02093,0,0,1,327.2485,749.74592Zm-15.48706-21.53265a22.02316,22.02316,0,0,0-9.02588,0,19.97883,19.97883,0,0,1,0-38.93469,22.02362,22.02362,0,0,0,9.02588,0,19.97883,19.97883,0,0,1,0,38.93469Z"
     transform="translate(-137.2515 -127.40779)"
     fill="#3f3d56"
     id="path100" />
  <path
     d="M648.2485,398.90779h-229a7,7,0,1,1,0-14h229a7,7,0,0,1,0,14Z"
     transform="translate(-137.2515 -127.40779)"
     fill="#f2f2f2"
     id="path102" />
  <path
     d="M648.2485,470.90779h-229a7,7,0,1,1,0-14h229a7,7,0,0,1,0,14Z"
     transform="translate(-137.2515 -127.40779)"
     fill="#f2f2f2"
     id="path104" />
  <path
     d="M648.2485,542.90779h-229a7,7,0,1,1,0-14h229a7,7,0,0,1,0,14Z"
     transform="translate(-137.2515 -127.40779)"
     fill="#f2f2f2"
     id="path106" />
  <path
     d="M648.2485,614.90779h-229a7,7,0,1,1,0-14h229a7,7,0,0,1,0,14Z"
     transform="translate(-137.2515 -127.40779)"
     fill="#f2f2f2"
     id="path108" />
  <path
     d="M648.2485,686.90779h-229a7,7,0,1,1,0-14h229a7,7,0,0,1,0,14Z"
     transform="translate(-137.2515 -127.40779)"
     fill="#f2f2f2"
     id="path110" />
  <path
     d="M608.2485,398.90779h-190a7,7,0,1,1,0-14h190a7,7,0,0,1,0,14Z"
     transform="translate(-137.2515 -127.40779)"
     fill="#5652c7"
     id="path112" />
  <path
     d="M549.2485,470.90779h-131a7,7,0,1,1,0-14h131a7,7,0,0,1,0,14Z"
     transform="translate(-137.2515 -127.40779)"
     fill="#5652c7"
     id="path114" />
  <path
     d="M477.2485,542.90779h-59a7,7,0,1,1,0-14h59a7,7,0,0,1,0,14Z"
     transform="translate(-137.2515 -127.40779)"
     fill="#5652c7"
     id="path116" />
  <path
     d="M626.2485,614.90779h-208a7,7,0,1,1,0-14h208a7,7,0,0,1,0,14Z"
     transform="translate(-137.2515 -127.40779)"
     fill="#5652c7"
     id="path118" />
  <path
     d="M580.2485,686.90779h-162a7,7,0,1,1,0-14h162a7,7,0,0,1,0,14Z"
     transform="translate(-137.2515 -127.40779)"
     fill="#5652c7"
     id="path120" />
  <rect
     x="603.997"
     y="257.5"
     width="2"
     height="14"
     fill="#5652c7"
     id="rect122" />
  <path
     d="M758.2485,399.90779a8,8,0,1,1,8-8A8.00917,8.00917,0,0,1,758.2485,399.90779Zm0-14a6,6,0,1,0,6,6A6.00655,6.00655,0,0,0,758.2485,385.90779Z"
     transform="translate(-137.2515 -127.40779)"
     fill="#5652c7"
     id="path124" />
  <rect
     x="603.997"
     y="329.5"
     width="2"
     height="14"
     fill="#5652c7"
     id="rect126" />
  <path
     d="M758.2485,471.90779a8,8,0,1,1,8-8A8.00917,8.00917,0,0,1,758.2485,471.90779Zm0-14a6,6,0,1,0,6,6A6.00655,6.00655,0,0,0,758.2485,457.90779Z"
     transform="translate(-137.2515 -127.40779)"
     fill="#5652c7"
     id="path128" />
  <rect
     x="603.997"
     y="401.5"
     width="2"
     height="14"
     fill="#5652c7"
     id="rect130" />
  <path
     d="M758.2485,543.90779a8,8,0,1,1,8-8A8.00917,8.00917,0,0,1,758.2485,543.90779Zm0-14a6,6,0,1,0,6,6A6.00655,6.00655,0,0,0,758.2485,529.90779Z"
     transform="translate(-137.2515 -127.40779)"
     fill="#5652c7"
     id="path132" />
  <rect
     x="603.997"
     y="473.5"
     width="2"
     height="14"
     fill="#5652c7"
     id="rect134" />
  <path
     d="M758.2485,615.90779a8,8,0,1,1,8-8A8.00917,8.00917,0,0,1,758.2485,615.90779Zm0-14a6,6,0,1,0,6,6A6.00655,6.00655,0,0,0,758.2485,601.90779Z"
     transform="translate(-137.2515 -127.40779)"
     fill="#5652c7"
     id="path136" />
  <rect
     x="603.997"
     y="545.5"
     width="2"
     height="14"
     fill="#5652c7"
     id="rect138" />
  <path
     d="M758.2485,687.90779a8,8,0,1,1,8-8A8.00917,8.00917,0,0,1,758.2485,687.90779Zm0-14a6,6,0,1,0,6,6A6.00655,6.00655,0,0,0,758.2485,673.90779Z"
     transform="translate(-137.2515 -127.40779)"
     fill="#5652c7"
     id="path140" />
  <circle
     cx="620.997"
     cy="264.5"
     r="4"
     fill="#5652c7"
     id="circle142" />
  <circle
     cx="620.997"
     cy="480.5"
     r="4"
     fill="#5652c7"
     id="circle144" />
  <circle
     cx="620.997"
     cy="552.5"
     r="4"
     fill="#5652c7"
     id="circle146" />
  <circle
     cx="451.49701"
     cy="42.317116"
     r="7"
     fill="#3f3d56"
     id="circle148" />
  <circle
     cx="451.49701"
     cy="-149.75838"
     r="7"
     fill="#3f3d56"
     id="circle150" />
  <rect
     x="450.49704"
     y="-149.75844"
     width="2"
     height="185"
     fill="#3f3d56"
     id="rect152" />
  <rect
     x="35.982182"
     y="14.802824"
     width="140"
     height="2"
     fill="#f2f2f2"
     id="rect68-3" />
  <rect
     x="135.98218"
     y="16.302824"
     width="2"
     height="18.5"
     fill="#f2f2f2"
     id="rect70-6" />
  <rect
     x="74.982185"
     y="16.302824"
     width="2"
     height="18.5"
     fill="#f2f2f2"
     id="rect72-0" />
  <rect
     x="724.14087"
     y="91.277954"
     width="140"
     height="2"
     fill="#f2f2f2"
     id="rect86-4" />
  <rect
     x="762.14087"
     y="73.277954"
     width="2"
     height="18.5"
     fill="#f2f2f2"
     id="rect88-8" />
  <rect
     x="823.14087"
     y="73.277954"
     width="2"
     height="18.5"
     fill="#f2f2f2"
     id="rect90-2" />
  <path
     d="m 511.99702,198.5 h -229 a 7,7 0 1 1 0,-14 h 229 a 7,7 0 0 1 0,14 z"
     fill="#f2f2f2"
     id="path104-7" />
  <path
     d="m 412.99702,198.5 h -131 a 7,7 0 1 1 0,-14 h 131 a 7,7 0 0 1 0,14 z"
     fill="#5652c7"
     id="path114-2" />
  <rect
     x="604.99701"
     y="184.5"
     width="2"
     height="14"
     fill="#5652c7"
     id="rect126-8" />
  <path
     d="m 621.99706,199.5 a 8,8 0 1 1 8,-8 8.00917,8.00917 0 0 1 -8,8 z m 0,-14 a 6,6 0 1 0 6,6 6.00655,6.00655 0 0 0 -6,-6 z"
     fill="#5652c7"
     id="path128-3" />
  <path
     d="M 511.99702,126.5 H 282.99705 a 7,7 0 1 1 0,-14 h 228.99997 a 7,7 0 0 1 0,14 z"
     fill="#f2f2f2"
     id="path106-2" />
  <path
     d="M 511.99702,198.5 H 282.99705 a 7,7 0 1 1 0,-14 h 228.99997 a 7,7 0 0 1 0,14 z"
     fill="#f2f2f2"
     id="path108-4" />
  <path
     d="m 340.99705,126.5 h -59 a 7,7 0 1 1 0,-14 h 59 a 7,7 0 0 1 0,14 z"
     fill="#5652c7"
     id="path116-7" />
  <path
     d="M 489.99702,198.5 H 281.99705 a 7,7 0 1 1 0,-14 h 207.99997 a 7,7 0 0 1 0,14 z"
     fill="#5652c7"
     id="path118-0" />
  <rect
     x="604.99707"
     y="112.5"
     width="2"
     height="14"
     fill="#5652c7"
     id="rect130-5" />
  <path
     d="m 621.99702,127.5 a 8,8 0 1 1 8,-8 8.00917,8.00917 0 0 1 -8,8 z m 0,-14 a 6,6 0 1 0 6,6 6.00655,6.00655 0 0 0 -6,-6 z"
     fill="#5652c7"
     id="path132-8" />
  <rect
     x="604.99707"
     y="184.5"
     width="2"
     height="14"
     fill="#5652c7"
     id="rect134-7" />
  <path
     d="m 621.99702,199.5 a 8,8 0 1 1 8,-8 8.00917,8.00917 0 0 1 -8,8 z m 0,-14 a 6,6 0 1 0 6,6 6.00655,6.00655 0 0 0 -6,-6 z"
     fill="#5652c7"
     id="path136-8" />
  <circle
     cx="621.99707"
     cy="191.5"
     r="4"
     fill="#5652c7"
     id="circle144-4" />
</svg>
